<svg width="51" height="97" viewBox="0 0 51 97" fill="none" xmlns="http://www.w3.org/2000/svg">
<path d="M17.7757 95.138V92.1877L12.4859 92.1498L12.4411 96.6114L12.7689 96.6356C14.2285 96.7287 20.1946 96.8668 21.1745 96.5631C22.2649 96.2249 17.7757 95.138 17.7757 95.138Z" fill="#072F5E"/>
<path d="M21.2987 96.287C21.2987 96.3353 19.3181 96.3767 16.8785 96.3767C14.4389 96.3767 12.4583 96.3353 12.4583 96.287C12.4583 96.2387 14.4389 96.1973 16.8785 96.1973C19.3181 96.1973 21.2987 96.2387 21.2987 96.287Z" fill="#263238"/>
<path d="M17.8688 95.7418C17.824 95.7177 17.8688 95.5624 17.9758 95.3968C18.0828 95.2311 18.2277 95.1621 18.2622 95.1966C18.2967 95.2312 18.2243 95.3623 18.1207 95.5037C18.0172 95.6452 17.9137 95.766 17.8688 95.7418Z" fill="#263238"/>
<path d="M18.207 95.935C18.1587 95.935 18.1829 95.7418 18.2864 95.5589C18.3899 95.376 18.5279 95.2656 18.5659 95.2932C18.6038 95.3208 18.5417 95.4761 18.4451 95.6383C18.3485 95.8004 18.2519 95.9523 18.207 95.935Z" fill="#263238"/>
<path d="M14.0525 96.2732C14.0318 96.2732 13.9524 96.2111 13.8386 96.08C13.6996 95.9114 13.5447 95.7566 13.3762 95.6176C13.2104 95.4852 13.013 95.3984 12.8034 95.3657C12.6412 95.345 12.5377 95.3657 12.5273 95.345C12.517 95.3243 12.617 95.2518 12.8068 95.238C13.0573 95.2327 13.3016 95.3158 13.497 95.4727C13.68 95.6218 13.8343 95.8031 13.9524 96.0075C14.0318 96.1593 14.0732 96.2594 14.0525 96.2732Z" fill="#263238"/>
<path d="M17.8861 95.1863C17.9102 95.2277 17.8205 95.3312 17.6687 95.3864C17.5169 95.4416 17.3823 95.4209 17.3754 95.3864C17.3685 95.3519 17.4755 95.2794 17.6066 95.2311C17.7377 95.1828 17.8585 95.1449 17.8861 95.1863Z" fill="#263238"/>
<path d="M17.8033 94.8999C17.8033 94.9516 17.6653 94.993 17.4858 94.9965C17.3064 94.9999 17.1649 94.9585 17.1684 94.9102C17.1718 94.8619 17.3133 94.8171 17.4858 94.8136C17.6584 94.8102 17.7964 94.8516 17.8033 94.8999Z" fill="#263238"/>
<path d="M30.8017 95.138V92.1877L25.5119 92.1498L25.4671 96.5666L25.7949 96.5907C27.2545 96.6839 33.224 96.8668 34.2005 96.5631C35.2909 96.2249 30.8017 95.138 30.8017 95.138Z" fill="#072F5E"/>
<path d="M34.3248 96.2939C34.3248 96.3423 32.3476 96.3837 29.9045 96.3837C27.4615 96.3837 25.4878 96.3423 25.4878 96.2939C25.4878 96.2456 27.465 96.2042 29.9045 96.2042C32.3441 96.2042 34.3248 96.2456 34.3248 96.2939Z" fill="#263238"/>
<path d="M30.8949 95.7418C30.8534 95.7177 30.8949 95.5624 31.0018 95.3968C31.1088 95.2311 31.2537 95.1621 31.2882 95.1966C31.3227 95.2312 31.2503 95.3623 31.1467 95.5037C31.0432 95.6452 30.9397 95.766 30.8949 95.7418Z" fill="#263238"/>
<path d="M31.233 95.935C31.1882 95.935 31.2089 95.7418 31.3158 95.5589C31.4228 95.376 31.5574 95.2656 31.5953 95.2932C31.6333 95.3208 31.5677 95.4761 31.4711 95.6383C31.3745 95.8004 31.2813 95.9523 31.233 95.935Z" fill="#263238"/>
<path d="M27.0785 96.2732C27.0578 96.2732 26.9819 96.2111 26.8645 96.08C26.7255 95.9114 26.5707 95.7566 26.4022 95.6176C26.2364 95.4852 26.039 95.3984 25.8294 95.3657C25.6706 95.345 25.5637 95.3657 25.5533 95.345C25.543 95.3243 25.643 95.2518 25.8328 95.238C26.0833 95.2327 26.3276 95.3158 26.5229 95.4727C26.7069 95.6209 26.8614 95.8023 26.9784 96.0075C27.0578 96.1593 27.0992 96.2594 27.0785 96.2732Z" fill="#263238"/>
<path d="M30.9121 95.1863C30.9363 95.2277 30.8466 95.3312 30.6947 95.3864C30.5429 95.4416 30.4083 95.4209 30.4014 95.3864C30.3945 95.3519 30.5015 95.2794 30.6326 95.2311C30.7638 95.1828 30.8845 95.1449 30.9121 95.1863Z" fill="#263238"/>
<path d="M30.8362 94.8999C30.8362 94.9516 30.6982 94.993 30.5188 94.9965C30.3393 94.9999 30.2013 94.9585 30.2048 94.9102C30.2082 94.8619 30.3462 94.8171 30.5188 94.8136C30.6913 94.8102 30.8362 94.8516 30.8362 94.8999Z" fill="#263238"/>
<path d="M50.2907 7.52726C50.1527 7.38579 49.811 7.4548 49.811 7.4548C49.8453 7.25613 49.8453 7.05306 49.811 6.85439C49.7489 6.66116 49.3142 6.69911 49.3142 6.69911C49.2941 6.5364 49.2941 6.37184 49.3142 6.20913C49.3176 6.17306 49.3099 6.13681 49.292 6.10531C49.2741 6.07381 49.2469 6.04861 49.2141 6.03315C49.0084 5.94927 48.7874 5.90931 48.5654 5.91583C48.2997 5.72605 49.3763 4.21813 49.7765 3.73505C50.1768 3.25197 50.1043 2.87585 49.7489 2.87585C49.5039 2.87585 48.2479 4.32511 47.8615 4.81164C47.475 5.29818 46.4502 6.65081 46.4156 5.57077C46.3811 4.49073 45.9464 3.67639 45.6738 3.53837C45.4012 3.40034 45.1113 3.7247 45.2597 4.0249C45.3901 4.36596 45.4714 4.72378 45.5012 5.08768C45.5387 5.37756 45.5259 5.67173 45.4633 5.95724C45.3489 6.48847 45.1931 7.00995 44.9975 7.51691H44.9699C44.9699 7.51691 37.4406 14.739 36.8955 15.2532C36.4089 15.7155 26.623 14.7045 24.6596 14.4975C23.9924 14.3998 23.3187 14.3537 22.6445 14.3594C21.7922 14.3974 21.6404 14.5182 20.7915 14.5285C18.6478 14.5523 16.5091 14.7404 14.3941 15.091C13.4364 15.2538 12.5419 15.6765 11.808 16.313C11.0742 16.9495 10.5292 17.7753 10.2327 18.7003C8.25548 24.8769 3.7766 39.4971 2.98641 47.7095C2.3893 48.7923 1.85025 49.9061 1.37153 51.0462C0.815986 52.5576 0.950559 52.6093 1.13689 52.6438C1.64068 52.737 2.21348 50.0248 2.42741 50.6805C2.64135 51.3361 1.34048 53.9137 1.86842 53.9896C2.55854 54.0862 3.10718 51.2291 3.17275 51.0014C3.23831 50.7736 3.57992 50.8461 3.51781 51.06C3.41774 51.3637 2.44812 54.5831 3.12444 54.6866C3.4971 54.7418 3.53851 54.062 3.53851 54.062C3.53851 54.062 4.22863 50.9806 4.54263 51.0428C4.85664 51.1049 4.52193 52.9233 4.3632 53.5306C4.20447 54.138 4.42531 54.4451 4.74967 54.2967C4.9705 54.1932 5.49845 52.3471 5.64338 51.7467C5.7883 51.1463 6.15061 49.4831 6.63714 50.4458C7.12368 51.4085 7.86211 51.9675 8.16576 51.9813C8.23419 51.9734 8.29868 51.9453 8.35095 51.9004C8.40322 51.8555 8.44087 51.7961 8.45905 51.7296C8.47724 51.6632 8.47513 51.5929 8.45299 51.5276C8.43086 51.4624 8.3897 51.4053 8.33484 51.3637C8.07366 51.1086 7.8495 50.8183 7.66888 50.501C7.50791 50.2539 7.39115 49.9807 7.32382 49.6936C7.18477 49.1212 7.10384 48.5362 7.08227 47.9476L7.02706 47.6025C7.8 43.7758 10.0256 32.5441 13.2381 25.3703L14.5563 28.0825L15.1291 30.0907L11.6164 38.7621L26.5989 38.5654L24.3629 29.9596L27.0785 20.988C30.015 21.0536 37.5545 21.164 38.8105 20.5947C40.3909 19.9046 48.5654 9.58037 48.5654 9.58037C49.0982 9.16632 49.6085 8.72401 50.094 8.25534C50.094 8.25534 50.5909 7.83781 50.2907 7.52726Z" fill="#FFBE9D"/>
<path d="M10.9573 32.3543C11.3921 30.8706 13.6246 23.5346 13.6246 23.5346C13.6246 23.5346 14.7219 29.5145 14.4321 30.2357C14.1654 30.853 13.8504 31.4484 13.49 32.0162C10.9573 35.8705 11.2886 37.7994 11.2886 37.7994L26.592 37.3335C26.6265 35.1942 25.3601 30.2184 25.0979 29.4248C24.8356 28.6311 25.7086 26.0328 25.7086 26.0328C25.7086 26.0328 27.4339 24.2765 27.3718 23.3724C27.339 22.5603 27.2386 21.7524 27.0716 20.957L36.3882 21.3021L36.0949 14.9875L22.7135 13.6486C22.2477 14.9633 18.0345 14.318 18.0345 14.318C13.4866 14.4699 13.2036 15.3049 11.3127 16.7749C9.42179 18.2448 6.29209 30.8602 6.29209 30.8602L10.9573 32.3543Z" fill="#072F5E"/>
<path d="M20.0048 30.8602C19.7396 30.9076 19.4695 30.9215 19.2008 30.9016C18.7004 30.9016 18.0138 30.8671 17.2581 30.7912C16.5024 30.7153 15.8192 30.6083 15.3327 30.5117C15.0644 30.4772 14.8013 30.41 14.5494 30.3116C14.8192 30.3117 15.0883 30.3371 15.3534 30.3875C15.8434 30.4496 16.5231 30.5359 17.2753 30.6118C18.0276 30.6877 18.7108 30.7395 19.2042 30.774C19.4732 30.7774 19.7413 30.8063 20.0048 30.8602Z" fill="#263238"/>
<path d="M21.0538 29.5593C20.7885 29.6893 20.5079 29.7855 20.2187 29.8457C18.842 30.2075 17.4217 30.3759 15.9986 30.3461C15.7041 30.3557 15.4096 30.3278 15.1222 30.2632C15.4128 30.2265 15.7058 30.2116 15.9986 30.2184C16.5404 30.2011 17.2857 30.1632 18.1069 30.0666C18.9282 29.9699 19.6597 29.8319 20.1773 29.7215C20.4648 29.6447 20.7578 29.5905 21.0538 29.5593Z" fill="#263238"/>
<path d="M26.202 23.7554C26.1951 24.0185 26.1592 24.28 26.0951 24.5353C26.0053 25.0149 25.8673 25.6705 25.6913 26.3882C25.5154 27.106 25.3463 27.7685 25.1945 28.2171C25.1334 28.4738 25.0431 28.7227 24.9253 28.9589C24.9445 28.6967 24.9931 28.4374 25.0702 28.186C25.2014 27.6477 25.3497 27.0266 25.5154 26.3468C25.681 25.6671 25.8397 25.046 25.9708 24.5077C26.0175 24.2486 26.0952 23.996 26.202 23.7554Z" fill="#263238"/>
<path d="M11.1195 31.4744C10.3212 31.3512 9.53337 31.1678 8.76272 30.9258C7.97525 30.7417 7.20251 30.4995 6.45082 30.2012C7.24871 30.3265 8.03639 30.5098 8.80758 30.7498C9.59523 30.9333 10.368 31.1755 11.1195 31.4744Z" fill="#263238"/>
<path d="M27.2372 20.8811C27.1071 20.9035 26.974 20.9035 26.8439 20.8811C26.4834 20.8441 26.1295 20.7594 25.7914 20.6292C25.2269 20.4171 24.7131 20.0892 24.2828 19.6667C23.8526 19.2442 23.5155 18.7364 23.2932 18.1758C23.0475 17.5592 22.9426 16.8955 22.9861 16.2331C23.0015 15.6868 23.1649 15.1549 23.4588 14.6942C23.6656 14.3838 23.9744 14.1555 24.3318 14.0489C24.4273 14.0225 24.5261 14.0098 24.6251 14.0109C24.6941 14.0109 24.7286 14.0109 24.7286 14.0109C24.7286 14.0109 24.5837 14.0109 24.3525 14.1041C24.0246 14.2252 23.7466 14.4523 23.5623 14.7494C23.0931 15.4878 22.9619 16.837 23.4623 18.0965C23.6951 18.6903 24.0597 19.2236 24.5285 19.6561C24.9126 20.0101 25.3551 20.2949 25.8363 20.4981C26.2879 20.6765 26.7577 20.805 27.2372 20.8811Z" fill="#263238"/>
<path d="M35.2806 21.1779C35.1942 20.1197 35.1666 19.0576 35.1978 17.9964C35.1707 16.9361 35.203 15.8751 35.2944 14.8184C35.3808 15.8754 35.4084 16.9364 35.3772 17.9964C35.4062 19.0579 35.3739 20.1201 35.2806 21.1779Z" fill="#263238"/>
<path d="M22.6238 14.0351C22.6617 13.2656 22.7411 12.396 22.7411 12.396C22.7411 12.396 24.6458 12.1856 24.7597 10.2187C24.8736 8.25188 24.7597 3.71434 24.7597 3.71434L21.3091 1.94763L17.4789 4.96L18.069 14.7942L21.5817 15.0185C21.8502 15.0259 22.1107 14.9266 22.306 14.7422C22.5014 14.5579 22.6156 14.3036 22.6238 14.0351Z" fill="#FFBE9D"/>
<path d="M22.9654 8.66255C22.9654 8.66255 22.9654 8.7005 22.9343 8.74536C22.9086 8.7779 22.8754 8.8037 22.8376 8.82053C22.7997 8.83737 22.7583 8.84473 22.7169 8.84198C22.4961 8.84198 22.2822 8.58663 22.2062 8.28988C22.1702 8.14603 22.1702 7.9955 22.2062 7.85166C22.2133 7.78887 22.236 7.72884 22.2721 7.67702C22.3083 7.6252 22.3568 7.58323 22.4133 7.55491C22.4597 7.53573 22.5118 7.53573 22.5582 7.55491C22.5926 7.57199 22.6205 7.59986 22.6376 7.63427C22.6617 7.69293 22.6376 7.73089 22.6376 7.72744C22.6376 7.72399 22.6376 7.69293 22.6031 7.65842C22.585 7.63371 22.5585 7.61652 22.5286 7.61015C22.4986 7.60379 22.4674 7.60869 22.4409 7.62392C22.3985 7.64951 22.3634 7.68539 22.3386 7.72823C22.3139 7.77106 22.3004 7.81945 22.2994 7.86891C22.2704 7.99726 22.2704 8.13048 22.2994 8.25883C22.3684 8.52797 22.5547 8.74536 22.7204 8.76606C22.7528 8.77046 22.7857 8.76813 22.8172 8.75922C22.8487 8.75032 22.878 8.73503 22.9033 8.71431C22.9447 8.6867 22.9585 8.65909 22.9654 8.66255Z" fill="#EB996E"/>
<path d="M25.9433 2.65159C25.6776 1.74753 24.7148 1.29895 23.8384 1.05051C22.503 0.670941 21.0607 0.505312 19.7563 0.984945C18.452 1.46458 16.8854 2.30652 16.8854 3.74542C16.1159 3.68331 15.6743 4.35618 15.3706 5.19123C15.1765 5.69997 15.0602 6.23508 15.0256 6.7785C14.9289 8.66253 14.401 11.2643 13.1795 12.6445C12.4894 13.414 11.5336 13.9454 11.1402 14.9047C10.7951 15.7363 10.9746 16.7231 10.6536 17.5651C10.3672 18.307 9.73579 18.8349 9.27341 19.4802C8.80234 20.2122 8.52511 21.0519 8.46777 21.9205C8.41043 22.7891 8.57485 23.658 8.9456 24.4456C9.31901 25.213 9.84475 25.8963 10.4908 26.4539C11.1368 27.0116 11.8896 27.4318 12.7033 27.6891C14.3151 28.1795 16.0339 28.1963 17.6549 27.7374C18.8715 27.4465 20.0064 26.8838 20.9744 26.0915C21.9648 25.2827 22.6451 24.1563 22.8998 22.9032C23.1448 21.4953 22.7514 20.0633 22.4581 18.6624C21.5403 14.2353 21.8025 14.0041 22.9619 9.89439C22.9895 9.82193 23.0033 9.74602 23.024 9.67356C23.0448 9.60109 23.0551 9.56659 23.0689 9.51138C23.1018 9.34892 23.1192 9.18369 23.1207 9.01794C22.9513 9.08091 22.7675 9.09424 22.5909 9.05634C22.4142 9.01844 22.252 8.9309 22.1234 8.804C21.9945 8.6687 21.9047 8.50103 21.8633 8.31878C21.822 8.13652 21.8308 7.94648 21.8888 7.76882C21.9702 7.57452 22.0915 7.39948 22.2449 7.25504C22.3982 7.11059 22.5802 6.99997 22.7791 6.93033C23.1621 6.7716 23.5727 6.68879 23.9488 6.51281C24.7459 6.13324 25.298 5.3465 25.6741 4.52181C25.9833 3.95023 26.0788 3.28717 25.9433 2.65159Z" fill="#263238"/>
<path d="M23.1034 8.75568C23.1763 8.8634 23.2365 8.97918 23.2828 9.10074C23.3863 9.31812 23.5244 9.62523 23.6762 9.98064L23.7038 10.0462H23.6313L23.2863 10.0773C23.0482 10.0773 22.848 10.1221 22.6134 10.1187C22.593 10.1141 22.574 10.1044 22.5584 10.0905C22.5427 10.0766 22.5307 10.059 22.5237 10.0393C22.5134 10.0079 22.5134 9.97407 22.5237 9.94268C22.5317 9.89617 22.542 9.8501 22.5547 9.80466L22.6169 9.55967C22.6481 9.39623 22.6967 9.2366 22.7618 9.08348C22.7554 9.25008 22.7311 9.41551 22.6893 9.57692L22.641 9.82191C22.6238 9.90472 22.5927 10.0324 22.641 10.022C22.8135 10.022 23.0585 9.98409 23.2863 9.97029L23.6313 9.93923L23.5865 10.0151C23.4381 9.67008 23.3139 9.34573 23.2414 9.12144C23.1779 9.00689 23.1314 8.88367 23.1034 8.75568Z" fill="#072F5E"/>
<path d="M11.2886 37.7994L26.592 37.3336L33.2516 63.3304L32.0267 93.1504H23.935L24.9253 63.9653L19.0075 45.8669L19.9185 94.3064L11.7406 94.4272L10.8814 48.8965C10.8434 47.6301 10.4294 44.7765 10.5846 43.5205L11.2886 37.7994Z" fill="#263238"/>
<path d="M21.0434 46.2361C20.7929 46.2519 20.5414 46.2368 20.2946 46.1913C19.8322 46.136 19.2008 46.0394 18.5072 45.9014C17.8136 45.7634 17.1925 45.6047 16.744 45.477C16.5042 45.4243 16.2722 45.3408 16.0538 45.2285C16.0538 45.1768 17.1787 45.4459 18.559 45.7254C19.9392 46.0049 21.0503 46.1844 21.0434 46.2361Z" fill="#455A64"/>
<path d="M31.9438 91.5149C31.9438 91.5632 30.1116 91.6046 27.8514 91.6046C25.5913 91.6046 23.7556 91.5632 23.7556 91.5149C23.7556 91.4666 25.5878 91.4252 27.8514 91.4252C30.115 91.4252 31.9438 91.4631 31.9438 91.5149Z" fill="#455A64"/>
<path d="M19.8461 93.0469C19.8461 93.0986 18.0655 93.1366 15.871 93.1366C13.6764 93.1366 11.8993 93.0986 11.8993 93.0469C11.8993 92.9951 13.6798 92.9572 15.871 92.9572C18.0621 92.9572 19.8461 92.9986 19.8461 93.0469Z" fill="#455A64"/>
<path d="M18.7902 92.9227C18.7419 92.9227 18.5279 82.3397 18.3105 69.2861C18.0931 56.2325 17.9655 45.6426 18.0103 45.6426C18.0552 45.6426 18.276 56.2221 18.49 69.2826C18.7039 82.3432 18.8419 92.9227 18.7902 92.9227Z" fill="#455A64"/>
<path d="M30.8569 91.5149C30.8531 91.4678 30.8531 91.4205 30.8569 91.3734V90.9593C30.8569 90.5866 30.8845 90.0518 30.9052 89.372C30.9535 87.9918 31.0225 85.987 31.1088 83.5302C31.2951 78.5889 31.5574 71.7774 31.8438 64.2586C31.8438 64.1861 31.8438 64.1171 31.8438 64.055V64.0791C30.0322 56.8329 28.3932 50.256 27.2027 45.4977L25.8225 39.8697C25.6638 39.2107 25.543 38.6965 25.4567 38.3377C25.4153 38.1686 25.3877 38.0375 25.3636 37.9374C25.3501 37.8925 25.342 37.8462 25.3394 37.7994C25.3573 37.8429 25.3712 37.8879 25.3808 37.9339C25.4084 38.0306 25.4429 38.1617 25.4912 38.3273C25.5844 38.6724 25.719 39.1969 25.8915 39.8525C26.2366 41.1844 26.7231 43.1029 27.3304 45.4666C28.5312 50.2215 30.1875 56.7811 32.0232 64.0377V64.0619C32.0232 64.124 32.0232 64.1965 32.0232 64.2655C31.7161 71.7843 31.4366 78.5924 31.233 83.5336C31.1261 85.9939 31.0363 87.9849 30.9742 89.372C30.9397 90.0622 30.9121 90.5866 30.8949 90.9593C30.8949 91.1353 30.8742 91.2733 30.8707 91.3734C30.8712 91.4209 30.8666 91.4683 30.8569 91.5149Z" fill="#455A64"/>
<path d="M28.2172 63.4477C27.636 63.6388 27.0373 63.7717 26.4298 63.8445C25.6845 63.9722 25.0495 64.0619 24.7631 64.0757V64.0067C24.8563 64.0343 24.9046 64.0516 24.9046 64.0654C24.9046 64.0792 24.846 64.0654 24.7493 64.0654H24.5423L24.7493 64.0032C25.0185 63.9239 25.6534 63.7927 26.3987 63.6582C26.9965 63.5285 27.6056 63.458 28.2172 63.4477Z" fill="#455A64"/>
<path d="M28.0757 64.438C27.5375 64.4626 26.9981 64.4384 26.4643 64.3655C25.9253 64.3545 25.3883 64.2956 24.8598 64.1895C25.9381 64.1016 27.0237 64.1854 28.0757 64.438Z" fill="#455A64"/>
<path opacity="0.2" d="M11.223 38.348C11.4042 38.5808 11.6325 38.7727 11.893 38.9112C12.1534 39.0497 12.4401 39.1318 12.7344 39.152C13.3507 39.225 13.9741 39.2134 14.5873 39.1175C18.5383 38.6793 22.7239 38.2756 26.592 37.3336C21.5852 37.6131 16.2954 37.5199 11.2886 37.7994L11.2368 38.2273" fill="black"/>
<g opacity="0.2">
<path d="M16.3816 45.4045L19.2042 56.3567L19.0075 45.8669L16.3816 45.4045Z" fill="black"/>
</g>
</svg>
