<svg width="149" height="111" viewBox="0 0 149 111" fill="none" xmlns="http://www.w3.org/2000/svg">
<path d="M148.025 96.7139H0.455841V96.7877H148.025V96.7139Z" fill="#E6E6E6"/>
<path d="M132.043 99.2668H126.574V99.3406H132.043V99.2668Z" fill="#E6E6E6"/>
<path d="M124.635 99.2668H116.914V99.3406H124.635V99.2668Z" fill="#E6E6E6"/>
<path d="M103.574 99.3406H97.8602V99.4144H103.574V99.3406Z" fill="#E6E6E6"/>
<path d="M25.4747 98.6707H12.7277V98.7444H25.4747V98.6707Z" fill="#E6E6E6"/>
<path d="M10.098 98.6707H8.22978V98.7444H10.098V98.6707Z" fill="#E6E6E6"/>
<path d="M49.1389 100.893H30.5511V100.967H49.1389V100.893Z" fill="#E6E6E6"/>
<path d="M70.4036 83.5507H13.4153C12.9689 83.5499 12.541 83.3721 12.2256 83.0561C11.9102 82.7401 11.7331 82.3119 11.7331 81.8655V1.75617C11.7369 1.31229 11.9158 0.887872 12.2308 0.575097C12.5458 0.262321 12.9715 0.0864537 13.4153 0.0856934H70.4036C70.8505 0.0856934 71.2792 0.263245 71.5952 0.579288C71.9112 0.895332 72.0888 1.32398 72.0888 1.77093V81.8655C72.0888 82.3124 71.9112 82.7411 71.5952 83.0571C71.2792 83.3732 70.8505 83.5507 70.4036 83.5507ZM13.4153 0.144721C12.9885 0.145503 12.5794 0.315625 12.2778 0.617747C11.9762 0.919868 11.8068 1.3293 11.8068 1.75617V81.8655C11.8068 82.2924 11.9762 82.7018 12.2778 83.0039C12.5794 83.306 12.9885 83.4762 13.4153 83.4769H70.4036C70.8307 83.4762 71.2401 83.3061 71.5422 83.0041C71.8442 82.7021 72.0142 82.2926 72.015 81.8655V1.75617C72.0142 1.32903 71.8442 0.919604 71.5422 0.617566C71.2401 0.315529 70.8307 0.145501 70.4036 0.144721H13.4153Z" fill="#E6E6E6"/>
<path d="M134.245 83.5507H77.2537C76.807 83.5499 76.3788 83.3721 76.0629 83.0563C75.7471 82.7404 75.5692 82.3122 75.5685 81.8655V1.75617C75.5731 1.31203 75.7526 0.887606 76.0681 0.574912C76.3836 0.262218 76.8095 0.0864455 77.2537 0.0856934H134.245C134.688 0.0872294 135.113 0.26344 135.428 0.576132C135.742 0.888825 135.92 1.3128 135.924 1.75617V81.8655C135.924 82.3114 135.747 82.7392 135.433 83.055C135.118 83.3709 134.691 83.5492 134.245 83.5507ZM77.2537 0.144721C76.8266 0.145501 76.4171 0.315529 76.1151 0.617566C75.8131 0.919604 75.643 1.32903 75.6423 1.75617V81.8655C75.643 82.2926 75.8131 82.7021 76.1151 83.0041C76.4171 83.3061 76.8266 83.4762 77.2537 83.4769H134.245C134.672 83.4762 135.081 83.3061 135.383 83.0041C135.685 82.7021 135.856 82.2926 135.856 81.8655V1.75617C135.856 1.32903 135.685 0.919604 135.383 0.617566C135.081 0.315529 134.672 0.145501 134.245 0.144721H77.2537Z" fill="#E6E6E6"/>
<path d="M124.715 9.1051H84.6646V47.3432H124.715V9.1051Z" fill="#E0E0E0"/>
<path d="M125.603 9.1051H85.553V47.3432H125.603V9.1051Z" fill="#F5F5F5"/>
<path d="M124.007 45.5488V10.8996L87.1526 10.8996V45.5488H124.007Z" fill="white"/>
<path d="M124.007 45.5487V10.8995H123.334V45.5487H124.007Z" fill="#E0E0E0"/>
<path d="M124.942 34.7792H86.2141V37.1875H124.942V34.7792Z" fill="#F5F5F5"/>
<path d="M75.1995 78.0759H67.2957V95.6042H75.1995V78.0759Z" fill="#E6E6E6"/>
<path d="M103.618 95.6042H68.8157V96.7139H103.618V95.6042Z" fill="#E6E6E6"/>
<path d="M75.1995 95.6042H105.132V78.0759H75.1995V95.6042Z" fill="#FAFAFA"/>
<path d="M78.3073 85.9827H102.025V80.2334H78.3073V85.9827Z" fill="#E6E6E6"/>
<path d="M78.3073 93.4438H102.025V87.6945H78.3073V93.4438Z" fill="#E6E6E6"/>
<path d="M93.7224 82.7125H86.6125C86.4202 82.7125 86.2643 82.8685 86.2643 83.0608V83.1523C86.2643 83.3446 86.4202 83.5005 86.6125 83.5005H93.7224C93.9148 83.5005 94.0707 83.3446 94.0707 83.1523V83.0608C94.0707 82.8685 93.9148 82.7125 93.7224 82.7125Z" fill="#FAFAFA"/>
<path d="M93.7224 90.1766H86.6125C86.4202 90.1766 86.2643 90.3325 86.2643 90.5248V90.6163C86.2643 90.8087 86.4202 90.9646 86.6125 90.9646H93.7224C93.9148 90.9646 94.0707 90.8087 94.0707 90.6163V90.5248C94.0707 90.3325 93.9148 90.1766 93.7224 90.1766Z" fill="#FAFAFA"/>
<path d="M26.9268 59.5324H18.8636V94.4974H26.9268V59.5324Z" fill="#E6E6E6"/>
<path d="M60.1741 94.4974H20.4131V96.7139H60.1741V94.4974Z" fill="#E6E6E6"/>
<path d="M26.9268 94.4974H61.7206L61.7206 59.5324L26.9268 59.5324L26.9268 94.4974Z" fill="#FAFAFA"/>
<path d="M30.0966 75.3016H58.5508V63.8326H30.0966V75.3016Z" fill="#E6E6E6"/>
<path d="M30.0966 90.1943H58.5508V78.7252H30.0966V90.1943Z" fill="#E6E6E6"/>
<path d="M47.5186 70.3551H41.1288C40.9208 70.3543 40.7216 70.2714 40.5746 70.1243C40.4275 69.9773 40.3445 69.778 40.3438 69.5701C40.3437 69.3616 40.4264 69.1616 40.5735 69.0139C40.7207 68.8662 40.9203 68.7828 41.1288 68.782H47.5186C47.727 68.7828 47.9267 68.8662 48.0739 69.0139C48.221 69.1616 48.3036 69.3616 48.3036 69.5701C48.3028 69.778 48.2199 69.9773 48.0728 70.1243C47.9258 70.2714 47.7265 70.3543 47.5186 70.3551Z" fill="#FAFAFA"/>
<path d="M47.5186 85.2448H41.1288C40.9208 85.244 40.7216 85.1611 40.5746 85.014C40.4275 84.867 40.3445 84.6677 40.3438 84.4598C40.3445 84.2518 40.4275 84.0525 40.5746 83.9055C40.7216 83.7584 40.9208 83.6755 41.1288 83.6747H47.5186C47.7265 83.6755 47.9258 83.7584 48.0728 83.9055C48.2199 84.0525 48.3028 84.2518 48.3036 84.4598C48.3036 84.668 48.2209 84.8676 48.0737 85.0149C47.9265 85.1621 47.7268 85.2448 47.5186 85.2448Z" fill="#FAFAFA"/>
<path d="M93.4243 75.2957C93.4243 75.2957 87.4861 65.0574 95.7234 56.9086C95.7234 56.9086 97.875 58.3076 97.8425 60.1935C97.8101 62.0795 95.5405 62.5546 96.0274 64.1277C96.5144 65.7008 98.6571 67.2414 97.2523 68.5548C95.8474 69.8681 97.4766 71.0103 97.3821 72.6041C97.2877 74.1978 93.4243 75.2957 93.4243 75.2957Z" fill="#FAFAFA"/>
<path d="M84.7414 72.3709C84.7414 72.3709 84.945 78.0759 92.7308 78.0759C100.516 78.0759 100.717 72.3709 100.717 72.3709H84.7414Z" fill="#E6E6E6"/>
<path d="M93.8729 76.2313C93.8729 76.2313 96.2783 64.6412 85.9042 59.5058C85.9042 59.5058 84.3075 61.5157 84.9332 63.2925C85.5589 65.0692 87.861 64.8065 87.8846 66.4534C87.9082 68.1003 86.3676 70.24 88.1148 71.028C89.862 71.816 88.6726 73.4334 89.2658 74.915C89.8591 76.3966 93.8729 76.2313 93.8729 76.2313Z" fill="#E6E6E6"/>
<path d="M46.5121 26.896C46.5121 26.896 46.7158 30.3255 54.4986 30.3255C62.2814 30.3255 62.488 26.896 62.488 26.896H46.5121Z" fill="#F0F0F0"/>
<path d="M25.4039 32.8224L24.1259 41.3489H25.4039L33.2427 32.8224H25.4039Z" fill="#F5F5F5"/>
<path d="M24.1259 32.8224V41.3489L31.9648 32.8224H24.1259Z" fill="#E0E0E0"/>
<path d="M56.1484 32.8224L54.8675 41.3489H56.1484L63.9873 32.8224H56.1484Z" fill="#F5F5F5"/>
<path d="M54.8675 32.8224V41.3489L62.7093 32.8224H54.8675Z" fill="#E0E0E0"/>
<path d="M18.3678 32.9847H26.8943V30.3255H18.3678V32.9847Z" fill="#E0E0E0"/>
<path d="M69.2879 30.3255H26.8973V32.9847H69.2879V30.3255Z" fill="#F5F5F5"/>
<path d="M35.6068 19.3995C37.8115 19.6947 39.175 14.9164 34.3082 10.8612C34.5708 15.5539 31.767 18.8712 35.6068 19.3995Z" fill="#E0E0E0"/>
<path d="M37.2271 25.6741C40.4205 23.434 38.2335 15.6099 28.3464 16.1766C32.6259 21.9259 31.6549 29.5759 37.2271 25.6741Z" fill="#E0E0E0"/>
<path d="M36.0997 25.621C33.9747 23.3337 36.9851 17.5785 44.638 19.6799C40.3231 23.4695 39.8007 29.5995 36.0997 25.621Z" fill="#E0E0E0"/>
<path d="M38.8238 22.286C39.5587 21.4006 40.4264 20.3853 40.2168 19.3346C40.0073 18.2839 39.479 17.4782 39.8981 16.3449C40.3998 14.9872 40.3024 13.3669 39.4554 13.5027C38.6083 13.6384 37.658 14.6331 37.6846 15.9464C37.7111 17.2598 36.867 17.6287 36.0849 18.3075C35.3028 18.9863 34.9988 19.9721 34.8571 20.9638C34.6122 22.5044 32.6141 22.2122 32.0828 23.5521C31.5368 24.8448 32.6288 26.5684 34.3761 26.9639C36.1233 27.3594 37.3688 27.6073 38.5611 26.2438C39.7712 24.7711 37.7347 23.5669 38.8238 22.286Z" fill="#F5F5F5"/>
<path d="M32.8089 30.3255H39.3757L39.8715 25.9604H32.313L32.8089 30.3255Z" fill="#E6E6E6"/>
<path d="M31.8261 26.7396H40.3615V25.7775H31.8261V26.7396Z" fill="#E6E6E6"/>
<path d="M54.1296 54.8279H46.9991V59.5294H54.1296V54.8279Z" fill="#F5F5F5"/>
<path d="M41.6453 59.5324H46.9991V54.8309H41.6453V59.5324Z" fill="#E0E0E0"/>
<path d="M39.5557 52.3251H36.4981V59.5324H39.5557V52.3251Z" fill="#F5F5F5"/>
<path d="M34.2019 59.5324H36.4981V52.3251H34.2019V59.5324Z" fill="#E0E0E0"/>
<path d="M74.2403 110.042C105.844 110.042 131.465 108.547 131.465 106.701C131.465 104.856 105.844 103.36 74.2403 103.36C42.6362 103.36 17.016 104.856 17.016 106.701C17.016 108.547 42.6362 110.042 74.2403 110.042Z" fill="#F5F5F5"/>
<path d="M46.8456 52.272C47.1856 52.4216 47.5455 52.521 47.914 52.5671C48.6717 52.6594 49.4377 52.4818 50.0774 52.0654C51.0897 51.4102 51.7036 50.2621 51.6062 49.2055C51.601 49.1539 51.5766 49.1061 51.5378 49.0716C51.4989 49.0372 51.4486 49.0186 51.3967 49.0196C50.4804 49.013 49.5742 49.2104 48.7437 49.5973C47.9132 49.9842 47.1792 50.5511 46.5948 51.2567C46.3173 50.0762 46.0724 48.8277 45.8953 47.5409C46.3864 47.917 46.9636 48.1646 47.5746 48.2611C47.8275 48.2918 48.0838 48.2808 48.3331 48.2286C49.6524 47.9571 50.6942 46.5434 51.6446 45.0529C51.6621 45.0262 51.6737 44.9961 51.6788 44.9646C51.6839 44.9331 51.6823 44.9008 51.6741 44.8699C51.6661 44.8401 51.6513 44.8126 51.6308 44.7895C51.6103 44.7665 51.5847 44.7485 51.556 44.7371C49.1507 43.7337 46.6007 45.9029 45.7861 46.685C45.6623 45.6012 45.5962 44.5116 45.5883 43.4208C46.103 43.5846 46.6315 43.7012 47.1673 43.7691C48.463 43.9196 49.552 43.6953 50.3312 43.0932C51.255 42.3849 51.6829 41.2073 51.5678 39.6932C51.5654 39.6642 51.557 39.636 51.543 39.6105C51.5291 39.5849 51.51 39.5626 51.487 39.5448C51.4639 39.527 51.4374 39.5142 51.4092 39.5073C51.3809 39.5003 51.3515 39.4993 51.3229 39.5043C48.584 39.9028 46.4797 41.6559 45.6031 42.5C45.6031 42.3052 45.6031 42.1104 45.6238 41.9097C45.627 41.8614 45.6135 41.8134 45.5854 41.7739C45.5613 41.4036 45.455 41.0433 45.2743 40.7191C45.0936 40.3949 44.8429 40.1151 44.5406 39.8998C43.8529 39.4542 42.8908 39.3951 41.6778 39.7198C41.642 39.7301 41.6089 39.7477 41.5804 39.7716C41.5519 39.7955 41.5288 39.8251 41.5125 39.8585C41.4964 39.89 41.488 39.9249 41.488 39.9603C41.488 39.9957 41.4964 40.0306 41.5125 40.0621C41.5627 40.1477 42.6222 41.9363 44.4904 42.1576C44.6927 42.1755 44.8961 42.1755 45.0984 42.1576C45.0748 42.6948 45.0659 43.2349 45.0748 43.775C44.4244 43.2174 43.6601 42.8085 42.8353 42.5771C42.0104 42.3457 41.145 42.2972 40.2995 42.4351C40.2327 42.4459 40.1725 42.4817 40.1312 42.5354C40.1117 42.5612 40.0979 42.5909 40.0908 42.6224C40.0837 42.654 40.0834 42.6867 40.0899 42.7184C40.4618 44.5453 41.362 45.776 42.4982 46.0062C42.5484 46.0062 42.6015 46.0239 42.6576 46.0328C43.2479 46.1007 44.092 45.9265 45.1191 44.9496C45.1914 46.198 45.3323 47.4414 45.5411 48.6743C44.5495 48.0338 42.2739 46.8621 40.2493 48.0014C40.198 48.0285 40.1585 48.0736 40.1384 48.1281C40.1182 48.1825 40.1188 48.2425 40.1401 48.2965C40.9635 49.9611 41.8607 50.8288 42.8878 50.9527H42.9144C43.7703 51.0442 44.6852 50.6192 45.7212 49.6659C45.9543 50.8701 46.2317 52.027 46.5269 53.1013C45.5706 52.3015 44.3488 52.2661 42.7521 52.9833C42.7171 52.9994 42.6863 53.0231 42.6618 53.0528C42.6372 53.0824 42.6197 53.1171 42.6104 53.1545C42.6011 53.1899 42.6014 53.2271 42.6113 53.2624C42.6211 53.2977 42.6402 53.3297 42.6665 53.3552C42.7344 53.423 43.8942 54.5357 45.3227 54.698C45.8685 54.7666 46.4223 54.6711 46.9135 54.4236C47.4989 56.3886 48.2127 58.3131 49.0503 60.1847C49.0671 60.2199 49.0928 60.2502 49.1249 60.2724C49.157 60.2947 49.1944 60.3082 49.2333 60.3116C49.2859 60.3166 49.3389 60.3074 49.3868 60.285C49.4475 60.2555 49.4947 60.204 49.5188 60.141C49.5429 60.0779 49.5422 60.0081 49.5166 59.9456C48.4141 57.4666 47.5206 54.8998 46.8456 52.272Z" fill="#072F5E"/>
<g opacity="0.6">
<path d="M46.8456 52.272C47.1856 52.4216 47.5455 52.521 47.914 52.5671C48.6717 52.6594 49.4377 52.4818 50.0774 52.0654C51.0897 51.4102 51.7036 50.2621 51.6062 49.2055C51.601 49.1539 51.5766 49.1061 51.5378 49.0716C51.4989 49.0372 51.4486 49.0186 51.3967 49.0196C50.4804 49.013 49.5742 49.2104 48.7437 49.5973C47.9132 49.9842 47.1792 50.5511 46.5948 51.2567C46.3173 50.0762 46.0724 48.8277 45.8953 47.5409C46.3864 47.917 46.9636 48.1646 47.5746 48.2611C47.8275 48.2918 48.0838 48.2808 48.3331 48.2286C49.6524 47.9571 50.6942 46.5434 51.6446 45.0529C51.6621 45.0262 51.6737 44.9961 51.6788 44.9646C51.6839 44.9331 51.6823 44.9008 51.6741 44.8699C51.6661 44.8401 51.6513 44.8126 51.6308 44.7895C51.6103 44.7665 51.5847 44.7485 51.556 44.7371C49.1507 43.7337 46.6007 45.9029 45.7861 46.685C45.6623 45.6012 45.5962 44.5116 45.5883 43.4208C46.103 43.5846 46.6315 43.7012 47.1673 43.7691C48.463 43.9196 49.552 43.6953 50.3312 43.0932C51.255 42.3849 51.6829 41.2073 51.5678 39.6932C51.5654 39.6642 51.557 39.636 51.543 39.6105C51.5291 39.5849 51.51 39.5626 51.487 39.5448C51.4639 39.527 51.4374 39.5142 51.4092 39.5073C51.3809 39.5003 51.3515 39.4993 51.3229 39.5043C48.584 39.9028 46.4797 41.6559 45.6031 42.5C45.6031 42.3052 45.6031 42.1104 45.6238 41.9097C45.627 41.8614 45.6135 41.8134 45.5854 41.7739C45.5613 41.4036 45.455 41.0433 45.2743 40.7191C45.0936 40.3949 44.8429 40.1151 44.5406 39.8998C43.8529 39.4542 42.8908 39.3951 41.6778 39.7198C41.642 39.7301 41.6089 39.7477 41.5804 39.7716C41.5519 39.7955 41.5288 39.8251 41.5125 39.8585C41.4964 39.89 41.488 39.9249 41.488 39.9603C41.488 39.9957 41.4964 40.0306 41.5125 40.0621C41.5627 40.1477 42.6222 41.9363 44.4904 42.1576C44.6927 42.1755 44.8961 42.1755 45.0984 42.1576C45.0748 42.6948 45.0659 43.2349 45.0748 43.775C44.4244 43.2174 43.6601 42.8085 42.8353 42.5771C42.0104 42.3457 41.145 42.2972 40.2995 42.4351C40.2327 42.4459 40.1725 42.4817 40.1312 42.5354C40.1117 42.5612 40.0979 42.5909 40.0908 42.6224C40.0837 42.654 40.0834 42.6867 40.0899 42.7184C40.4618 44.5453 41.362 45.776 42.4982 46.0062C42.5484 46.0062 42.6015 46.0239 42.6576 46.0328C43.2479 46.1007 44.092 45.9265 45.1191 44.9496C45.1914 46.198 45.3323 47.4414 45.5411 48.6743C44.5495 48.0338 42.2739 46.8621 40.2493 48.0014C40.198 48.0285 40.1585 48.0736 40.1384 48.1281C40.1182 48.1825 40.1188 48.2425 40.1401 48.2965C40.9635 49.9611 41.8607 50.8288 42.8878 50.9527H42.9144C43.7703 51.0442 44.6852 50.6192 45.7212 49.6659C45.9543 50.8701 46.2317 52.027 46.5269 53.1013C45.5706 52.3015 44.3488 52.2661 42.7521 52.9833C42.7171 52.9994 42.6863 53.0231 42.6618 53.0528C42.6372 53.0824 42.6197 53.1171 42.6104 53.1545C42.6011 53.1899 42.6014 53.2271 42.6113 53.2624C42.6211 53.2977 42.6402 53.3297 42.6665 53.3552C42.7344 53.423 43.8942 54.5357 45.3227 54.698C45.8685 54.7666 46.4223 54.6711 46.9135 54.4236C47.4989 56.3886 48.2127 58.3131 49.0503 60.1847C49.0671 60.2199 49.0928 60.2502 49.1249 60.2724C49.157 60.2947 49.1944 60.3082 49.2333 60.3116C49.2859 60.3166 49.3389 60.3074 49.3868 60.285C49.4475 60.2555 49.4947 60.204 49.5188 60.141C49.5429 60.0779 49.5422 60.0081 49.5166 59.9456C48.4141 57.4666 47.5206 54.8998 46.8456 52.272Z" fill="black"/>
</g>
<path d="M123.779 45.3392H52.4149C51.2429 45.3392 50.2928 46.2893 50.2928 47.4612V91.4132C50.2928 92.5852 51.2429 93.5352 52.4149 93.5352H123.779C124.951 93.5352 125.901 92.5852 125.901 91.4132V47.4612C125.901 46.2893 124.951 45.3392 123.779 45.3392Z" fill="#072F5E"/>
<path opacity="0.6" d="M123.779 45.3392H52.4149C51.2429 45.3392 50.2928 46.2893 50.2928 47.4612V91.4132C50.2928 92.5852 51.2429 93.5352 52.4149 93.5352H123.779C124.951 93.5352 125.901 92.5852 125.901 91.4132V47.4612C125.901 46.2893 124.951 45.3392 123.779 45.3392Z" fill="black"/>
<path d="M97.7687 106.701H80.1136C81.8431 100.179 80.8072 93.1516 77.0087 86.632H94.6639C98.4623 93.1516 99.4983 100.179 97.7687 106.701Z" fill="#072F5E"/>
<path d="M96.8479 106.701H79.1898C80.9193 100.179 79.8863 93.1516 76.085 86.632H93.7431C97.5562 93.1516 98.5774 100.179 96.8479 106.701Z" fill="#072F5E"/>
<path d="M97.45 96.0056H79.6001C78.987 92.7009 77.7972 89.53 76.085 86.6379H93.9349C95.6446 89.5312 96.8343 92.7017 97.45 96.0056Z" fill="#072F5E"/>
<g opacity="0.4">
<path d="M97.7687 106.701H80.1136C81.8431 100.179 80.8072 93.1516 77.0087 86.632H94.6639C98.4623 93.1516 99.4983 100.179 97.7687 106.701Z" fill="black"/>
<path d="M96.8479 106.701H79.1898C80.9193 100.179 79.8863 93.1516 76.085 86.632H93.7431C97.5562 93.1516 98.5774 100.179 96.8479 106.701Z" fill="black"/>
<path d="M97.45 96.0056H79.6001C78.987 92.7009 77.7972 89.53 76.085 86.6379H93.9349C95.6446 89.5312 96.8343 92.7017 97.45 96.0056Z" fill="black"/>
</g>
<path d="M96.8479 106.701H79.1898C80.9193 100.179 79.8863 93.1516 76.085 86.632H93.7431C97.5562 93.1516 98.5774 100.179 96.8479 106.701Z" fill="#072F5E"/>
<path opacity="0.2" d="M96.8479 106.701H79.1898C80.9193 100.179 79.8863 93.1516 76.085 86.632H93.7431C97.5562 93.1516 98.5774 100.179 96.8479 106.701Z" fill="black"/>
<path opacity="0.2" d="M97.2611 96.0056H79.5824C78.9745 92.7044 77.796 89.5344 76.0997 86.6379H93.7785C95.4747 89.5344 96.6532 92.7044 97.2611 96.0056Z" fill="black"/>
<path d="M122.776 45.3392H51.4114C50.2394 45.3392 49.2894 46.2893 49.2894 47.4612V91.4132C49.2894 92.5852 50.2394 93.5352 51.4114 93.5352H122.776C123.948 93.5352 124.898 92.5852 124.898 91.4132V47.4612C124.898 46.2893 123.948 45.3392 122.776 45.3392Z" fill="#072F5E"/>
<path opacity="0.3" d="M122.776 45.3392H51.4114C50.2394 45.3392 49.2894 46.2893 49.2894 47.4612V91.4132C49.2894 92.5852 50.2394 93.5352 51.4114 93.5352H122.776C123.948 93.5352 124.898 92.5852 124.898 91.4132V47.4612C124.898 46.2893 123.948 45.3392 122.776 45.3392Z" fill="black"/>
<path d="M93.5719 105.305H73.414C73.0437 105.305 72.6886 105.452 72.4268 105.714C72.165 105.976 72.018 106.331 72.018 106.701H94.9679C94.9679 106.331 94.8208 105.976 94.559 105.714C94.2972 105.452 93.9421 105.305 93.5719 105.305Z" fill="#072F5E"/>
<path opacity="0.3" d="M93.5719 105.305H73.414C73.0437 105.305 72.6886 105.452 72.4268 105.714C72.165 105.976 72.018 106.331 72.018 106.701H94.9679C94.9679 106.331 94.8208 105.976 94.559 105.714C94.2972 105.452 93.9421 105.305 93.5719 105.305Z" fill="black"/>
<path d="M124.898 47.78H49.2894V86.629H124.898V47.78Z" fill="#072F5E"/>
<path opacity="0.84" d="M124.871 47.78H49.2628V86.629H124.871V47.78Z" fill="#FAFAFA"/>
<path opacity="0.23" d="M113.91 50.7816H62.972C62.5091 50.7816 62.1338 51.1568 62.1338 51.6197V81.4169C62.1338 81.8798 62.5091 82.2551 62.972 82.2551H113.91C114.373 82.2551 114.748 81.8798 114.748 81.4169V51.6197C114.748 51.1568 114.373 50.7816 113.91 50.7816Z" fill="#072F5E"/>
<path opacity="0.67" d="M114.527 52.9478V81.4169C114.527 81.6392 114.438 81.8524 114.281 82.0096C114.124 82.1667 113.911 82.2551 113.688 82.2551H62.7506C62.5286 82.2543 62.3158 82.1657 62.1588 82.0087C62.0018 81.8517 61.9132 81.6389 61.9124 81.4169V52.9478H114.527Z" fill="#FAFAFA"/>
<path opacity="0.41" d="M114.373 54.0635H62.0659V81.1424H114.373V54.0635Z" fill="white"/>
<path opacity="0.19" d="M103.692 72.7575C102.317 72.7575 100.974 72.3499 99.8307 71.5861C98.6877 70.8224 97.7968 69.7369 97.2707 68.4669C96.7447 67.1968 96.607 65.7993 96.8752 64.451C97.1434 63.1028 97.8054 61.8643 98.7774 60.8923C99.7495 59.9202 100.988 59.2582 102.336 58.9901C103.684 58.7219 105.082 58.8595 106.352 59.3856C107.622 59.9117 108.708 60.8025 109.471 61.9455C110.235 63.0885 110.643 64.4323 110.643 65.807C110.64 67.6497 109.907 69.4162 108.604 70.7192C107.301 72.0221 105.535 72.7552 103.692 72.7575ZM103.692 58.9303C102.332 58.9303 101.003 59.3336 99.8717 60.0892C98.7408 60.8449 97.8594 61.9189 97.3389 63.1754C96.8184 64.432 96.6823 65.8146 96.9476 67.1486C97.2129 68.4825 97.8679 69.7079 98.8296 70.6696C99.7913 71.6313 101.017 72.2863 102.351 72.5516C103.685 72.8169 105.067 72.6807 106.324 72.1603C107.58 71.6398 108.654 70.7584 109.41 69.6275C110.166 68.4966 110.569 67.1671 110.569 65.807C110.567 63.9837 109.842 62.2355 108.553 60.9462C107.264 59.6569 105.516 58.9319 103.692 58.9303Z" fill="#072F5E"/>
<path opacity="0.19" d="M92.0077 72.7575C90.633 72.7575 89.2892 72.3499 88.1462 71.5861C87.0032 70.8224 86.1123 69.7369 85.5862 68.4669C85.0602 67.1968 84.9225 65.7993 85.1907 64.451C85.4589 63.1028 86.1209 61.8643 87.0929 60.8923C88.065 59.9202 89.3034 59.2582 90.6517 58.9901C92 58.7219 93.3975 58.8595 94.6675 59.3856C95.9375 59.9117 97.0231 60.8025 97.7868 61.9455C98.5505 63.0885 98.9582 64.4323 98.9582 65.807C98.955 67.6494 98.2218 69.4155 96.919 70.7183C95.6162 72.0211 93.8501 72.7544 92.0077 72.7575ZM92.0077 58.9303C90.6476 58.9303 89.318 59.3336 88.1872 60.0892C87.0563 60.8449 86.1749 61.9189 85.6544 63.1754C85.1339 64.432 84.9977 65.8146 85.2631 67.1486C85.5284 68.4825 86.1834 69.7079 87.1451 70.6696C88.1068 71.6313 89.3321 72.2863 90.6661 72.5516C92 72.8169 93.3827 72.6807 94.6393 72.1603C95.8958 71.6398 96.9698 70.7584 97.7254 69.6275C98.4811 68.4966 98.8844 67.1671 98.8844 65.807C98.882 63.9839 98.1568 62.2361 96.8676 60.947C95.5785 59.6579 93.8308 58.9326 92.0077 58.9303Z" fill="#072F5E"/>
<path opacity="0.19" d="M110.607 76.6416H69.5831C69.5782 76.6416 69.5733 76.6406 69.5688 76.6386C69.5643 76.6366 69.5603 76.6338 69.5569 76.6302C69.5536 76.6265 69.551 76.6223 69.5495 76.6176C69.5479 76.613 69.5472 76.6081 69.5477 76.6032V75.461C69.5472 75.4561 69.5479 75.4512 69.5495 75.4465C69.551 75.4419 69.5536 75.4376 69.5569 75.434C69.5603 75.4304 69.5643 75.4275 69.5688 75.4256C69.5733 75.4236 69.5782 75.4226 69.5831 75.4226H110.607C110.612 75.4226 110.617 75.4236 110.622 75.4256C110.626 75.4275 110.63 75.4304 110.633 75.434C110.637 75.4376 110.639 75.4419 110.641 75.4465C110.642 75.4512 110.643 75.4561 110.643 75.461V76.6032C110.643 76.6081 110.642 76.613 110.641 76.6176C110.639 76.6223 110.637 76.6265 110.633 76.6302C110.63 76.6338 110.626 76.6366 110.622 76.6386C110.617 76.6406 110.612 76.6416 110.607 76.6416ZM69.6096 76.5678H110.569V75.4964H69.6096V76.5678Z" fill="#072F5E"/>
<path opacity="0.19" d="M112.903 78.6367H63.5445C63.5396 78.6367 63.5348 78.6357 63.5303 78.6337C63.5258 78.6318 63.5217 78.6289 63.5184 78.6253C63.5151 78.6217 63.5125 78.6174 63.5109 78.6128C63.5093 78.6081 63.5087 78.6032 63.5091 78.5983V56.6046C63.5087 56.5997 63.5093 56.5948 63.5109 56.5902C63.5125 56.5855 63.5151 56.5813 63.5184 56.5776C63.5217 56.574 63.5258 56.5712 63.5303 56.5692C63.5348 56.5672 63.5396 56.5662 63.5445 56.5663H112.903C112.908 56.5662 112.913 56.5672 112.918 56.5692C112.922 56.5712 112.926 56.574 112.93 56.5776C112.933 56.5813 112.935 56.5855 112.937 56.5902C112.939 56.5948 112.939 56.5997 112.939 56.6046V78.5924C112.94 78.5977 112.94 78.6033 112.939 78.6087C112.938 78.6141 112.936 78.6191 112.932 78.6234C112.929 78.6277 112.924 78.6311 112.919 78.6334C112.914 78.6357 112.909 78.6369 112.903 78.6367ZM63.5918 78.5629H112.88V56.64H63.5829L63.5918 78.5629Z" fill="#072F5E"/>
<path d="M112.245 51.8706C112.245 51.9589 112.27 52.0453 112.319 52.119C112.368 52.1927 112.437 52.2503 112.518 52.2844C112.6 52.3186 112.689 52.3279 112.776 52.311C112.863 52.2941 112.942 52.2519 113.005 52.1897C113.068 52.1275 113.11 52.0481 113.128 51.9616C113.145 51.8751 113.137 51.7853 113.103 51.7037C113.069 51.6221 113.012 51.5523 112.939 51.5032C112.865 51.4541 112.779 51.4279 112.691 51.4279C112.633 51.4275 112.575 51.4387 112.521 51.4607C112.467 51.4828 112.417 51.5154 112.376 51.5565C112.335 51.5977 112.302 51.6466 112.279 51.7005C112.257 51.7544 112.245 51.8122 112.245 51.8706Z" fill="white"/>
<path d="M111.112 52.3163C111.358 52.3163 111.558 52.1167 111.558 51.8706C111.558 51.6245 111.358 51.425 111.112 51.425C110.866 51.425 110.666 51.6245 110.666 51.8706C110.666 52.1167 110.866 52.3163 111.112 52.3163Z" fill="white"/>
<path d="M109.533 52.3163C109.779 52.3163 109.979 52.1167 109.979 51.8706C109.979 51.6245 109.779 51.425 109.533 51.425C109.287 51.425 109.087 51.6245 109.087 51.8706C109.087 52.1167 109.287 52.3163 109.533 52.3163Z" fill="white"/>
<path d="M114.527 52.8918H61.9124V53.0039H114.527V52.8918Z" fill="#072F5E"/>
<path opacity="0.47" d="M69.4975 47.78L62.5529 86.629H69.4267L76.3713 47.78H69.4975Z" fill="#FAFAFA"/>
<path opacity="0.47" d="M78.0476 47.78L71.106 86.629H74.5414L81.486 47.78H78.0476Z" fill="#FAFAFA"/>
<path opacity="0.4" d="M116.463 47.78L109.518 86.629H111.239L118.18 47.78H116.463Z" fill="white"/>
<path opacity="0.4" d="M113.438 47.78L106.493 86.629H108.214L115.155 47.78H113.438Z" fill="white"/>
<path d="M98.3738 105.305H94.7642C94.394 105.305 94.0389 105.452 93.7771 105.714C93.5153 105.976 93.3682 106.331 93.3682 106.701H99.7668C99.7672 106.518 99.7315 106.337 99.6616 106.167C99.5918 105.998 99.4893 105.844 99.3599 105.714C99.2305 105.585 99.0768 105.482 98.9076 105.412C98.7384 105.341 98.557 105.305 98.3738 105.305Z" fill="#072F5E"/>
<path opacity="0.4" d="M98.3738 105.305H94.7642C94.394 105.305 94.0389 105.452 93.7771 105.714C93.5153 105.976 93.3682 106.331 93.3682 106.701H99.7668C99.7672 106.518 99.7315 106.337 99.6616 106.167C99.5918 105.998 99.4893 105.844 99.3599 105.714C99.2305 105.585 99.0768 105.482 98.9076 105.412C98.7384 105.341 98.557 105.305 98.3738 105.305Z" fill="black"/>
<path d="M88.5398 90.1707C88.5398 90.4567 88.455 90.7363 88.2961 90.9741C88.1372 91.2119 87.9113 91.3973 87.647 91.5068C87.3828 91.6162 87.092 91.6449 86.8115 91.5891C86.5309 91.5333 86.2733 91.3955 86.071 91.1933C85.8688 90.991 85.731 90.7333 85.6752 90.4528C85.6194 90.1723 85.6481 89.8815 85.7575 89.6172C85.867 89.353 86.0523 89.1271 86.2902 88.9682C86.528 88.8093 86.8076 88.7245 87.0936 88.7245C87.4772 88.7245 87.845 88.8769 88.1162 89.1481C88.3874 89.4193 88.5398 89.7871 88.5398 90.1707Z" fill="#072F5E"/>
<path opacity="0.5" d="M88.5398 90.1707C88.5398 90.4567 88.455 90.7363 88.2961 90.9741C88.1372 91.2119 87.9113 91.3973 87.647 91.5068C87.3828 91.6162 87.092 91.6449 86.8115 91.5891C86.5309 91.5333 86.2733 91.3955 86.071 91.1933C85.8688 90.991 85.731 90.7333 85.6752 90.4528C85.6194 90.1723 85.6481 89.8815 85.7575 89.6172C85.867 89.353 86.0523 89.1271 86.2902 88.9682C86.528 88.8093 86.8076 88.7245 87.0936 88.7245C87.4772 88.7245 87.845 88.8769 88.1162 89.1481C88.3874 89.4193 88.5398 89.7871 88.5398 90.1707Z" fill="black"/>
<path d="M74.7362 101.714C74.5325 94.6479 74.5502 51.5607 74.9605 48.022L75.5183 47.2517C75.5183 47.2517 75.2615 47.9364 75.1995 60.0459C75.1376 72.1555 75.0549 99.9161 75.1228 101.714H74.7362Z" fill="#072F5E"/>
<path d="M78.0506 75.5082C80.4117 71.577 82.9971 68.782 84.8683 67.2444C86.7395 65.7067 81.8343 75.6912 79.9159 79.407C77.9975 83.1228 75.6334 87.2311 74.8719 90.7019C74.7244 83.6422 75.6865 79.4395 78.0506 75.5082Z" fill="#072F5E"/>
<path d="M74.9192 48.5179C75.4032 44.0495 74.748 39.9205 77.1799 34.6877C79.6119 29.4549 81.4624 25.3466 83.8087 23.437C84.3724 22.9766 82.4452 32.0728 80.2051 37.1964C78.6261 40.8118 78.1185 43.3943 76.4421 45.8321C76.0495 46.3988 74.9192 48.5179 74.9192 48.5179Z" fill="#072F5E"/>
<path d="M74.9073 72.3591C75.3973 66.843 75.84 61.5305 79.0068 53.6828C79.7771 51.7703 86.9165 38.4064 88.7788 36.9602C89.6908 36.249 86.5004 45.1297 83.3837 52.6026C81.0492 58.2102 80.0811 59.8157 77.481 66.3206C76.4627 68.8971 74.9073 72.3591 74.9073 72.3591Z" fill="#072F5E"/>
<path d="M70.7518 45.1385C68.0956 41.5408 65.5279 39.1089 63.6419 37.8368C61.756 36.5648 66.8885 45.4101 69.3558 49.2705C71.8232 53.1309 74.0574 56.4807 75.0785 59.8276C74.5886 52.7826 73.4081 48.7392 70.7518 45.1385Z" fill="#072F5E"/>
<path d="M74.9074 82.1341C74.4056 78.2973 73.3726 73.7905 71.897 70.4496C70.4213 67.1086 68.1487 61.985 66.3425 60.2466C65.9086 59.8275 68.2313 69.7943 69.7247 72.4447C71.2181 75.095 72.3102 77.5948 73.2487 79.0971C73.5615 79.5841 74.9074 82.1341 74.9074 82.1341Z" fill="#072F5E"/>
<path opacity="0.5" d="M74.7362 101.714C74.5325 94.6479 74.5502 51.5607 74.9605 48.022L75.5183 47.2517C75.5183 47.2517 75.2615 47.9364 75.1995 60.0459C75.1376 72.1555 75.0549 99.9161 75.1228 101.714H74.7362Z" fill="white"/>
<path opacity="0.5" d="M78.0506 75.5082C80.4117 71.577 82.9971 68.782 84.8683 67.2444C86.7395 65.7067 81.8343 75.6912 79.9159 79.407C77.9975 83.1228 75.6334 87.2311 74.8719 90.7019C74.7244 83.6422 75.6865 79.4395 78.0506 75.5082Z" fill="white"/>
<path opacity="0.5" d="M74.9192 48.5179C75.4032 44.0495 74.748 39.9205 77.1799 34.6877C79.6119 29.4549 81.4624 25.3466 83.8087 23.437C84.3724 22.9766 82.4452 32.0728 80.2051 37.1964C78.6261 40.8118 78.1185 43.3943 76.4421 45.8321C76.0495 46.3988 74.9192 48.5179 74.9192 48.5179Z" fill="white"/>
<path opacity="0.5" d="M74.9073 72.3591C75.3973 66.843 75.84 61.5305 79.0068 53.6828C79.7771 51.7703 86.9165 38.4064 88.7788 36.9602C89.6908 36.249 86.5004 45.1297 83.3837 52.6026C81.0492 58.2102 80.0811 59.8157 77.481 66.3206C76.4627 68.8971 74.9073 72.3591 74.9073 72.3591Z" fill="white"/>
<path opacity="0.5" d="M70.7518 45.1385C68.0956 41.5408 65.5279 39.1089 63.6419 37.8368C61.756 36.5648 66.8885 45.4101 69.3558 49.2705C71.8232 53.1309 74.0574 56.4807 75.0785 59.8276C74.5886 52.7826 73.4081 48.7392 70.7518 45.1385Z" fill="white"/>
<path opacity="0.5" d="M74.9074 82.1341C74.4056 78.2973 73.3726 73.7905 71.897 70.4496C70.4213 67.1086 68.1487 61.985 66.3425 60.2466C65.9086 59.8275 68.2313 69.7943 69.7247 72.4447C71.2181 75.095 72.3102 77.5948 73.2487 79.0971C73.5615 79.5841 74.9074 82.1341 74.9074 82.1341Z" fill="white"/>
<path d="M80.5268 106.701H69.3411L68.497 100.273H81.3709L80.5268 106.701Z" fill="#263238"/>
<path d="M82.2032 101.023H67.6617L67.2456 98.8536H82.6193L82.2032 101.023Z" fill="#263238"/>
<path d="M68.3228 52.1982H35.046C33.9066 52.1982 32.983 53.1219 32.983 54.2612V104.638C32.983 105.778 33.9066 106.701 35.046 106.701H68.3228C69.4622 106.701 70.3858 105.778 70.3858 104.638V54.2612C70.3858 53.1219 69.4622 52.1982 68.3228 52.1982Z" fill="#072F5E"/>
<path opacity="0.6" d="M68.3228 52.1982H35.046C33.9066 52.1982 32.983 53.1219 32.983 54.2612V104.638C32.983 105.778 33.9066 106.701 35.046 106.701H68.3228C69.4622 106.701 70.3858 105.778 70.3858 104.638V54.2612C70.3858 53.1219 69.4622 52.1982 68.3228 52.1982Z" fill="black"/>
<path d="M67.3341 52.1982H34.0573C32.9179 52.1982 31.9943 53.1219 31.9943 54.2612V104.638C31.9943 105.778 32.9179 106.701 34.0573 106.701H67.3341C68.4735 106.701 69.3971 105.778 69.3971 104.638V54.2612C69.3971 53.1219 68.4735 52.1982 67.3341 52.1982Z" fill="#072F5E"/>
<path opacity="0.3" d="M67.3341 52.1982H34.0573C32.9179 52.1982 31.9943 53.1219 31.9943 54.2612V104.638C31.9943 105.778 32.9179 106.701 34.0573 106.701H67.3341C68.4735 106.701 69.3971 105.778 69.3971 104.638V54.2612C69.3971 53.1219 68.4735 52.1982 67.3341 52.1982Z" fill="black"/>
<path d="M69.3971 54.5652H31.9943V101.876H69.3971V54.5652Z" fill="#FAFAFA"/>
<path opacity="0.1" d="M69.3971 54.5652H31.9943V101.876H69.3971V54.5652Z" fill="#072F5E"/>
<path opacity="0.48" d="M45.2548 54.6833L36.6958 101.994H43.2331L51.7921 54.6833H45.2548Z" fill="#FAFAFA"/>
<path opacity="0.48" d="M53.7342 54.5652L45.1752 101.879H48.4423L57.0013 54.5652H53.7342Z" fill="#FAFAFA"/>
<path d="M50.6942 105.665C51.4701 105.665 52.0991 105.036 52.0991 104.261C52.0991 103.485 51.4701 102.856 50.6942 102.856C49.9184 102.856 49.2894 103.485 49.2894 104.261C49.2894 105.036 49.9184 105.665 50.6942 105.665Z" fill="#072F5E"/>
<path opacity="0.5" d="M50.6942 105.665C51.4701 105.665 52.0991 105.036 52.0991 104.261C52.0991 103.485 51.4701 102.856 50.6942 102.856C49.9184 102.856 49.2894 103.485 49.2894 104.261C49.2894 105.036 49.9184 105.665 50.6942 105.665Z" fill="black"/>
<path d="M51.0189 53.2873C51.0189 53.3515 50.9998 53.4142 50.9642 53.4676C50.9285 53.521 50.8778 53.5626 50.8185 53.5872C50.7591 53.6118 50.6939 53.6182 50.6309 53.6057C50.5679 53.5932 50.5101 53.5622 50.4647 53.5168C50.4193 53.4714 50.3883 53.4136 50.3758 53.3506C50.3633 53.2876 50.3697 53.2224 50.3943 53.163C50.4189 53.1037 50.4605 53.053 50.5139 53.0173C50.5673 52.9817 50.63 52.9626 50.6942 52.9626C50.7803 52.9626 50.8629 52.9968 50.9238 53.0577C50.9847 53.1186 51.0189 53.2012 51.0189 53.2873Z" fill="#072F5E"/>
<path opacity="0.5" d="M51.0189 53.2873C51.0189 53.3515 50.9998 53.4142 50.9642 53.4676C50.9285 53.521 50.8778 53.5626 50.8185 53.5872C50.7591 53.6118 50.6939 53.6182 50.6309 53.6057C50.5679 53.5932 50.5101 53.5622 50.4647 53.5168C50.4193 53.4714 50.3883 53.4136 50.3758 53.3506C50.3633 53.2876 50.3697 53.2224 50.3943 53.163C50.4189 53.1037 50.4605 53.053 50.5139 53.0173C50.5673 52.9817 50.63 52.9626 50.6942 52.9626C50.7803 52.9626 50.8629 52.9968 50.9238 53.0577C50.9847 53.1186 51.0189 53.2012 51.0189 53.2873Z" fill="black"/>
<path d="M97.4116 44.0613L99.6635 43.6392C99.6996 43.6332 99.7338 43.6194 99.7638 43.5986C99.7939 43.5778 99.819 43.5507 99.8373 43.5191C99.8556 43.4875 99.8667 43.4523 99.8699 43.4159C99.873 43.3795 99.8681 43.3429 99.8554 43.3087L98.0846 38.0641C98.0568 37.9884 98.0037 37.9247 97.9343 37.8838C97.8649 37.8429 97.7834 37.8273 97.7038 37.8398L95.4549 38.2589C95.4185 38.2648 95.3839 38.2787 95.3536 38.2996C95.3232 38.3206 95.298 38.348 95.2796 38.38C95.2612 38.4119 95.2502 38.4476 95.2473 38.4843C95.2445 38.521 95.2498 38.558 95.263 38.5924L97.0339 43.837C97.0605 43.9127 97.113 43.9767 97.182 44.0177C97.2511 44.0587 97.3324 44.0741 97.4116 44.0613Z" fill="#072F5E"/>
<path opacity="0.6" d="M97.4116 44.0613L99.6635 43.6392C99.6996 43.6332 99.7338 43.6194 99.7638 43.5986C99.7939 43.5778 99.819 43.5507 99.8373 43.5191C99.8556 43.4875 99.8667 43.4523 99.8699 43.4159C99.873 43.3795 99.8681 43.3429 99.8554 43.3087L98.0846 38.0641C98.0568 37.9884 98.0037 37.9247 97.9343 37.8838C97.8649 37.8429 97.7834 37.8273 97.7038 37.8398L95.4549 38.2589C95.4185 38.2648 95.3839 38.2787 95.3536 38.2996C95.3232 38.3206 95.298 38.348 95.2796 38.38C95.2612 38.4119 95.2502 38.4476 95.2473 38.4843C95.2445 38.521 95.2498 38.558 95.263 38.5924L97.0339 43.837C97.0605 43.9127 97.113 43.9767 97.182 44.0177C97.2511 44.0587 97.3324 44.0741 97.4116 44.0613Z" fill="black"/>
<path d="M97.6891 44.02L99.938 43.6009C99.9744 43.595 100.009 43.581 100.039 43.5601C100.07 43.5391 100.095 43.5117 100.113 43.4798C100.132 43.4478 100.143 43.4122 100.146 43.3754C100.148 43.3387 100.143 43.3018 100.13 43.2674L98.359 38.0228C98.3313 37.9471 98.2782 37.8834 98.2088 37.8425C98.1394 37.8016 98.0579 37.786 97.9783 37.7984L95.7294 38.2205C95.6931 38.226 95.6585 38.2395 95.6282 38.2602C95.5978 38.2808 95.5725 38.308 95.5541 38.3397C95.5357 38.3715 95.5247 38.4069 95.5218 38.4435C95.5189 38.4801 95.5243 38.5168 95.5375 38.5511L97.3083 43.7957C97.3361 43.8713 97.3892 43.935 97.4586 43.9759C97.528 44.0168 97.6095 44.0324 97.6891 44.02Z" fill="#072F5E"/>
<path opacity="0.3" d="M97.6891 44.02L99.938 43.6009C99.9744 43.595 100.009 43.581 100.039 43.5601C100.07 43.5391 100.095 43.5117 100.113 43.4798C100.132 43.4478 100.143 43.4122 100.146 43.3754C100.148 43.3387 100.143 43.3018 100.13 43.2674L98.359 38.0228C98.3313 37.9471 98.2782 37.8834 98.2088 37.8425C98.1394 37.8016 98.0579 37.786 97.9783 37.7984L95.7294 38.2205C95.6931 38.226 95.6585 38.2395 95.6282 38.2602C95.5978 38.2808 95.5725 38.308 95.5541 38.3397C95.5357 38.3715 95.5247 38.4069 95.5218 38.4435C95.5189 38.4801 95.5243 38.5168 95.5375 38.5511L97.3083 43.7957C97.3361 43.8713 97.3892 43.935 97.4586 43.9759C97.528 44.0168 97.6095 44.0324 97.6891 44.02Z" fill="black"/>
<path d="M97.1873 43.4385L100.009 42.9103L98.421 38.2057L95.5965 38.734L97.1873 43.4385Z" fill="#FAFAFA"/>
<path opacity="0.14" d="M97.1873 43.4385L100.009 42.9103L98.421 38.2057L95.5965 38.734L97.1873 43.4385Z" fill="#072F5E"/>
<path d="M95.5965 40.7675L95.8179 40.254L97.9429 42.6417L96.1042 42.7833L95.5965 40.7675Z" fill="#E58A7B"/>
<path d="M59.2916 22.2506C61.8067 22.2506 63.8456 20.2117 63.8456 17.6966C63.8456 15.1815 61.8067 13.1426 59.2916 13.1426C56.7765 13.1426 54.7376 15.1815 54.7376 17.6966C54.7376 20.2117 56.7765 22.2506 59.2916 22.2506Z" fill="#072F5E"/>
<path d="M59.2916 23.1065C58.979 23.1067 58.667 23.08 58.359 23.0268L58.4091 22.7316C58.9952 22.8317 59.5939 22.8317 60.18 22.7316L60.2301 23.0268C59.9201 23.0797 59.6061 23.1064 59.2916 23.1065ZM56.597 22.3863C56.0516 22.0727 55.5652 21.6661 55.1597 21.1851L55.3869 20.9933C55.7693 21.4496 56.2288 21.8352 56.7446 22.1325L56.597 22.3863ZM61.9921 22.3863L61.8445 22.1325C62.3603 21.8352 62.8198 21.4496 63.2022 20.9933L63.4265 21.1822C63.0213 21.6583 62.5358 22.0599 61.9921 22.3686V22.3863ZM54.2182 19.5648C54.0026 18.9727 53.8927 18.3474 53.8935 17.7173H54.1887C54.1841 18.3115 54.284 18.9019 54.4838 19.4615L54.2182 19.5648ZM64.365 19.5648L64.0876 19.4645C64.2874 18.9048 64.3873 18.3144 64.3827 17.7202H64.5834H64.6779C64.6794 18.3407 64.5736 18.9568 64.365 19.5412V19.5648ZM54.4897 15.9848L54.2123 15.8844C54.4267 15.2919 54.7434 14.7415 55.1479 14.2582L55.3722 14.4471C54.9933 14.8974 54.6947 15.4096 54.4897 15.9612V15.9848ZM64.0817 15.9553C63.8782 15.3978 63.5785 14.8804 63.1963 14.4265L63.4235 14.2346C63.8295 14.715 64.1491 15.2623 64.368 15.852L64.0817 15.9553ZM56.7269 13.299L56.5793 13.0452C57.1261 12.7255 57.7259 12.5065 58.3501 12.3989L58.4003 12.694C57.8125 12.7906 57.2461 12.9894 56.7269 13.2813V13.299ZM61.8268 13.299C61.3112 13.0054 60.7477 12.8055 60.1623 12.7088L60.2124 12.4136C60.8353 12.5198 61.4347 12.7346 61.9833 13.0482L61.8268 13.299Z" fill="#072F5E"/>
<path d="M94.72 40.7233H93.8346V41.0184H94.72V40.7233Z" fill="#072F5E"/>
<path d="M92.0608 41.0184H90.29V40.7233H92.0608V41.0184ZM88.4955 40.8148C87.9093 40.6529 87.3517 40.401 86.8428 40.0681L87.0051 39.8231C87.4881 40.1374 88.0167 40.3753 88.5723 40.5285L88.4955 40.8148ZM85.494 38.861C85.1062 38.3937 84.7936 37.869 84.5672 37.3056L84.8417 37.1964C85.0598 37.7306 85.3584 38.2283 85.7271 38.6721L85.494 38.861ZM84.154 35.5407C84.154 35.3901 84.154 35.2455 84.154 35.0861C84.1534 34.6312 84.2049 34.1776 84.3075 33.7344L84.6026 33.8023C84.5057 34.2233 84.4572 34.6541 84.458 35.0861C84.458 35.2308 84.458 35.3813 84.458 35.52L84.154 35.5407ZM85.2224 32.2056L84.9686 32.0551C85.2789 31.5329 85.667 31.0611 86.1197 30.6561L86.3174 30.8775C85.8873 31.2589 85.5181 31.7038 85.2224 32.1967V32.2056ZM87.7606 29.936L87.6396 29.6674C88.1926 29.4176 88.781 29.2553 89.3839 29.1863L89.4193 29.4815C88.8469 29.5447 88.2876 29.695 87.7606 29.9271V29.936ZM94.9148 29.4402H94.72V29.145H94.9148C95.4284 29.1447 95.9396 29.0752 96.4347 28.9384L96.5144 29.2336C95.9926 29.3716 95.4545 29.4381 94.9148 29.4313V29.4402ZM92.9462 29.4402H91.1754V29.145H92.9462V29.4402ZM98.1642 28.4721L98.0019 28.2271C98.485 27.911 98.917 27.5228 99.2828 27.0761L99.513 27.262C99.1277 27.7293 98.6728 28.1344 98.1642 28.4632V28.4721ZM100.434 25.7037L100.159 25.5945C100.372 25.0573 100.502 24.4912 100.546 23.9152L100.841 23.9388C100.794 24.5412 100.657 25.1332 100.434 25.6948V25.7037ZM100.41 22.2004C100.278 21.6382 100.06 21.0997 99.7639 20.6037L100.018 20.4532C100.329 20.9747 100.558 21.5412 100.697 22.1325L100.41 22.2004ZM98.666 19.2785C98.2349 18.8957 97.7483 18.5802 97.2227 18.343L97.3408 18.0744C97.895 18.3219 98.4077 18.6534 98.8608 19.0572L98.666 19.2785ZM95.5611 17.8884C95.3475 17.8648 95.1327 17.853 94.9177 17.853H93.8051V17.5579H94.9148C95.1416 17.5555 95.3684 17.5684 95.5936 17.5963L95.5611 17.8884ZM92.0195 17.853H90.2486V17.5579H92.0195V17.853ZM88.4778 17.853H86.707V17.5579H88.4778V17.853ZM84.9362 17.853H83.1653V17.5579H84.9362V17.853ZM81.3945 17.853H79.6237V17.5579H81.3945V17.853ZM77.8528 17.853H76.082V17.5579H77.8528V17.853ZM74.3112 17.853H72.5404V17.5579H74.3112V17.853ZM70.7695 17.853H68.9987V17.5579H70.7695V17.853Z" fill="#072F5E"/>
<path d="M67.1748 17.549H66.2893V17.8441H67.1748V17.549Z" fill="#072F5E"/>
<path d="M59.4156 24.0568H59.1676V24.7976H59.4156V24.0568Z" fill="#072F5E"/>
<path d="M28.494 73.0674H28.249V71.5917H28.494V73.0674ZM28.494 70.1161H28.249V68.6404H28.494V70.1161ZM55.4312 69.3575C55.1423 69.3573 54.8544 69.3256 54.5724 69.2631L54.6255 69.024C55.0953 69.1244 55.5797 69.1364 56.0539 69.0595L56.0923 69.3015C55.8715 69.3333 55.6484 69.3472 55.4253 69.3428L55.4312 69.3575ZM40.2198 69.3575L40.205 69.1096C40.6841 69.08 41.153 68.9588 41.5863 68.7525L41.6925 68.9739C41.2273 69.1877 40.7253 69.31 40.2139 69.3339L40.2198 69.3575ZM38.7057 69.148C38.2201 68.9866 37.7702 68.733 37.3806 68.4013L37.5399 68.2124C37.9051 68.5242 38.327 68.7627 38.7825 68.9148L38.7057 69.148ZM57.5119 68.7614L57.3821 68.5518C57.7905 68.2999 58.1472 67.9724 58.4328 67.5867L58.6335 67.7343C58.3278 68.142 57.9472 68.4876 57.5119 68.7525V68.7614ZM53.1704 68.6522C52.7486 68.3636 52.3859 67.9969 52.1021 67.572L52.3086 67.4332C52.5747 67.8331 52.9154 68.1778 53.3121 68.4485L53.1704 68.6522ZM42.9055 68.0619L42.7255 67.8966C43.0491 67.5416 43.3016 67.1278 43.4693 66.6777L43.7024 66.7633C43.5207 67.2371 43.2503 67.6718 42.9055 68.0442V68.0619ZM36.4302 67.2237C36.1912 66.7707 36.0429 66.2755 35.9934 65.7657L36.2384 65.7421C36.2853 66.2199 36.4246 66.684 36.6486 67.1086L36.4302 67.2237ZM28.494 67.1352H28.249V65.6595H28.494V67.1352ZM59.2946 66.353L59.0555 66.2911C59.133 65.9842 59.1727 65.669 59.1736 65.3525V64.8478H59.4215V65.3525C59.4188 65.6902 59.3742 66.0263 59.2887 66.353H59.2946ZM51.5147 66.1582C51.4605 65.8931 51.4328 65.6232 51.4321 65.3525V64.656H51.68V65.3525C51.6804 65.6063 51.7061 65.8594 51.7567 66.1081L51.5147 66.1582ZM43.9474 65.2492H43.7024V63.7735H43.9474V65.2492ZM36.2177 64.2546H35.9698V62.7789H36.2177V64.2546ZM28.494 64.169H28.249V62.6933H28.494V64.169ZM59.4215 63.3662H59.1736V61.8906H59.4215V63.3662ZM51.6889 63.1715H51.4409V62.1267C51.442 61.9856 51.4341 61.8447 51.4173 61.7046L51.6623 61.6751C51.68 61.825 51.6888 61.9758 51.6889 62.1267V63.1715ZM43.9562 62.286H43.7113V62.1296C43.7105 61.6721 43.7883 61.2179 43.9415 60.7867L44.1746 60.8694C44.0297 61.2737 43.9558 61.7001 43.9562 62.1296V62.286ZM35.8931 61.3239C35.7899 60.8543 35.5964 60.4092 35.3235 60.0135L35.5271 59.8748C35.8127 60.2973 36.0132 60.7715 36.1174 61.2708L35.8931 61.3239ZM28.6002 61.2412L28.3611 61.1822C28.4823 60.6849 28.6988 60.2158 28.9986 59.801L29.1964 59.9456C28.9155 60.3344 28.7112 60.7731 28.5943 61.2383L28.6002 61.2412ZM59.4215 60.4001H59.1736V58.9244H59.4215V60.4001ZM50.9894 60.347C50.7607 59.9245 50.4531 59.5498 50.0833 59.2432L50.2397 59.0543C50.6353 59.3819 50.964 59.7828 51.2078 60.2348L50.9894 60.347ZM44.9036 59.6446L44.7177 59.4793C45.0578 59.0963 45.4687 58.7827 45.9278 58.5555L46.037 58.7768C45.6044 58.988 45.2174 59.2818 44.8977 59.6416L44.9036 59.6446ZM34.3082 59.013C33.9092 58.7462 33.4621 58.5598 32.9919 58.464L33.042 58.222C33.5433 58.3257 34.0195 58.5262 34.4439 58.8123L34.3082 59.013ZM30.2353 58.9687L30.1054 58.7591C30.5366 58.4829 31.018 58.2943 31.5221 58.2043L31.5663 58.4492C31.0913 58.5326 30.6371 58.708 30.2294 58.9657L30.2353 58.9687ZM48.829 58.5614C48.4643 58.4457 48.0841 58.387 47.7015 58.3873C47.5923 58.3873 47.5068 58.3873 47.4064 58.3873L47.3887 58.1393C47.489 58.1393 47.5923 58.1393 47.6838 58.1393C48.0921 58.1393 48.4981 58.201 48.888 58.3223L48.829 58.5614ZM59.4215 57.434H59.1736V55.9583H59.4215V57.434ZM59.4215 54.4678H59.1736V52.9921H59.4215V54.4678ZM59.4215 51.5017H59.1736V50.026H59.4215V51.5017ZM59.4215 48.5503H59.1736V47.0746H59.4215V48.5503ZM59.4215 45.5842H59.1736V44.1085H59.4215V45.5842ZM59.4215 42.6151H59.1736V41.1394H59.4215V42.6151ZM59.4215 39.6637H59.1736V38.188H59.4215V39.6637ZM59.4215 36.6976H59.1736V35.2219H59.4215V36.6976ZM59.4215 33.7314H59.1736V32.2557H59.4215V33.7314ZM59.4215 30.7801H59.1736V29.3044H59.4215V30.7801ZM59.4215 27.8139H59.1736V26.3382H59.4215V27.8139Z" fill="#072F5E"/>
<path d="M28.491 74.5815H28.2431V75.3223H28.491V74.5815Z" fill="#072F5E"/>
<path d="M58.7338 19.916C58.6166 19.915 58.5044 19.8684 58.4209 19.7862L56.8744 18.2397C56.7922 18.1563 56.7462 18.0439 56.7462 17.9268C56.7462 17.8097 56.7922 17.6973 56.8744 17.614C56.9153 17.5726 56.964 17.5397 57.0177 17.5172C57.0714 17.4948 57.1291 17.4833 57.1873 17.4833C57.2455 17.4833 57.3031 17.4948 57.3568 17.5172C57.4105 17.5397 57.4592 17.5726 57.5001 17.614L58.7338 18.8476L61.0801 16.5013C61.1641 16.4231 61.2751 16.3805 61.3898 16.3825C61.5044 16.3846 61.6139 16.431 61.695 16.5121C61.7761 16.5933 61.8226 16.7027 61.8246 16.8174C61.8266 16.9321 61.784 17.0431 61.7058 17.127L59.0496 19.7832C59.0085 19.8254 58.9594 19.8588 58.9052 19.8817C58.8509 19.9045 58.7926 19.9162 58.7338 19.916Z" fill="white"/>
<path d="M114.232 28.7466C113.936 30.2222 113.293 33.1736 114.32 34.1623C114.32 34.1623 113.919 35.638 111.195 35.638C108.196 35.638 109.76 34.1623 109.76 34.1623C111.398 33.7728 111.354 32.5597 111.071 31.4205L114.232 28.7466Z" fill="#E58A7B"/>
<path d="M108.264 34.667C108.264 34.4457 108.6 34.2184 109.09 34.0414C109.353 33.944 109.61 33.575 110.008 33.5072C110.303 33.457 110.684 33.7108 111.062 33.6842C111.378 33.6606 111.708 33.3537 112.074 33.3507C112.44 33.3478 112.735 33.6459 113.095 33.6665C113.32 33.6665 113.544 33.395 113.733 33.4127C113.922 33.4304 114.125 33.7521 114.305 33.7846C114.544 33.8259 114.813 33.5868 114.975 33.64C115.235 33.7226 115.27 34.0738 115.386 34.1683C115.716 34.4368 115.976 34.6907 115.681 34.7379C114.952 34.853 114.922 34.4427 114.184 34.4427C113.446 34.4427 113.446 34.7379 112.709 34.7231C111.971 34.7084 111.974 34.428 111.233 34.428C110.492 34.428 110.507 34.6316 109.757 34.7084C109.261 34.7914 108.754 34.7774 108.264 34.667Z" fill="#072F5E"/>
<g opacity="0.6">
<path d="M108.264 34.667C108.264 34.4457 108.6 34.2184 109.09 34.0414C109.353 33.944 109.61 33.575 110.008 33.5072C110.303 33.457 110.684 33.7108 111.062 33.6842C111.378 33.6606 111.708 33.3537 112.074 33.3507C112.44 33.3478 112.735 33.6459 113.095 33.6665C113.32 33.6665 113.544 33.395 113.733 33.4127C113.922 33.4304 114.125 33.7521 114.305 33.7846C114.544 33.8259 114.813 33.5868 114.975 33.64C115.235 33.7226 115.27 34.0738 115.386 34.1683C115.716 34.4368 115.976 34.6907 115.681 34.7379C114.952 34.853 114.922 34.4427 114.184 34.4427C113.446 34.4427 113.446 34.7379 112.709 34.7231C111.971 34.7084 111.974 34.428 111.233 34.428C110.492 34.428 110.507 34.6316 109.757 34.7084C109.261 34.7914 108.754 34.7774 108.264 34.667Z" fill="black"/>
</g>
<path d="M119.591 37.341C119.975 38.1526 120.276 38.9288 120.58 39.7375C120.884 40.5462 121.129 41.3608 121.365 42.1842C121.604 43.0159 121.801 43.8591 121.955 44.7106C122.026 45.1385 122.1 45.5665 122.147 46.0062C122.177 46.2217 122.203 46.4401 122.218 46.6614L122.268 47.3403C122.281 47.9015 122.181 48.4596 121.973 48.9812C121.803 49.4188 121.601 49.843 121.368 50.2503C120.928 51.0084 120.435 51.7343 119.892 52.4225C118.842 53.7562 117.689 55.0064 116.445 56.1619L115.524 55.3119C116.011 54.6685 116.51 54.0074 116.976 53.3404C117.443 52.6734 117.909 52.0064 118.331 51.3246C118.754 50.6597 119.137 49.9698 119.476 49.2586C119.632 48.9333 119.765 48.5969 119.872 48.2522C119.958 47.9968 119.998 47.7279 119.99 47.4583L119.916 46.9005C119.895 46.7087 119.863 46.5168 119.824 46.3102C119.762 45.9265 119.677 45.5399 119.591 45.1562C119.506 44.7726 119.408 44.3889 119.296 44.0052C119.184 43.6215 119.084 43.2378 118.966 42.8571C118.732 42.0956 118.464 41.3371 118.186 40.5875C117.909 39.8378 117.596 39.0764 117.301 38.3769L119.591 37.341Z" fill="#E58A7B"/>
<path d="M118.585 34.7261C119.612 34.9504 120.707 38.6455 120.707 38.6455L116.663 41.225C116.663 41.225 115.394 38.2736 115.884 36.9868C116.398 35.6587 117.372 34.4604 118.585 34.7261Z" fill="#072F5E"/>
<path opacity="0.6" d="M118.585 34.7261C119.612 34.9504 120.707 38.6455 120.707 38.6455L116.663 41.225C116.663 41.225 115.394 38.2736 115.884 36.9868C116.398 35.6587 117.372 34.4604 118.585 34.7261Z" fill="white"/>
<path opacity="0.28" d="M118.036 35.9833L116.655 41.2014V41.225L118.272 40.192L118.036 35.9833Z" fill="#072F5E"/>
<path d="M105.581 34.7969C105.581 34.7969 104.401 35.213 106.762 49.7161H116.796C116.628 45.6314 116.622 43.1109 118.567 34.7261C117.161 34.4358 115.736 34.2474 114.302 34.1624C112.784 34.056 111.261 34.056 109.743 34.1624C107.803 34.3424 105.581 34.7969 105.581 34.7969Z" fill="#072F5E"/>
<path opacity="0.6" d="M105.581 34.7969C105.581 34.7969 104.401 35.213 106.762 49.7161H116.796C116.628 45.6314 116.622 43.1109 118.567 34.7261C117.161 34.4358 115.736 34.2474 114.302 34.1624C112.784 34.056 111.261 34.056 109.743 34.1624C107.803 34.3424 105.581 34.7969 105.581 34.7969Z" fill="white"/>
<path d="M116.002 54.9814L113.612 54.2612L114.609 56.5692C114.609 56.5692 116.188 56.7227 116.758 55.8668L116.002 54.9814Z" fill="#E58A7B"/>
<path d="M111.676 55.0227L112.614 56.9086L114.609 56.5751L113.612 54.2672L111.676 55.0227Z" fill="#E58A7B"/>
<path d="M122.327 105.37H119.857L119.06 99.6446H121.533L122.327 105.37Z" fill="#E58A7B"/>
<path d="M111.094 105.37H108.624L108.459 99.6446H110.929L111.094 105.37Z" fill="#E58A7B"/>
<path d="M108.459 99.6476L108.544 102.596H111.018L110.932 99.6476H108.459Z" fill="#CF6F64"/>
<path d="M121.533 99.6476H119.06L119.47 102.596H121.944L121.533 99.6476Z" fill="#CF6F64"/>
<path d="M109.415 49.7161C109.415 49.7161 110.849 66.6866 112.34 76.249C113.541 83.9728 118.874 102.026 118.874 102.026H122.245C122.245 102.026 119.467 84.5896 118.856 76.9397C117.313 57.6081 120.019 54.1875 116.805 49.7043L109.415 49.7161Z" fill="#072F5E"/>
<path opacity="0.6" d="M109.415 49.7161C109.415 49.7161 110.849 66.6866 112.34 76.249C113.541 83.9728 118.874 102.026 118.874 102.026H122.245C122.245 102.026 119.467 84.5896 118.856 76.9397C117.313 57.6081 120.019 54.1875 116.805 49.7043L109.415 49.7161Z" fill="black"/>
<path opacity="0.4" d="M112.478 56.3922C112.478 56.3922 111.097 60.6953 111.118 66.902C111.357 69.0005 111.611 71.0841 111.87 73.0143C112.661 71.214 114.116 65.9664 112.478 56.3922Z" fill="black"/>
<path d="M106.765 49.7161C106.765 49.7161 104.814 68.7614 104.976 76.2992C105.144 84.141 108.019 102.026 108.019 102.026H111.36C111.36 102.026 110.832 84.6132 111.127 76.8983C111.448 68.5017 114.116 49.7161 114.116 49.7161H106.765Z" fill="#072F5E"/>
<path opacity="0.6" d="M106.765 49.7161C106.765 49.7161 104.814 68.7614 104.976 76.2992C105.144 84.141 108.019 102.026 108.019 102.026H111.36C111.36 102.026 110.832 84.6132 111.127 76.8983C111.448 68.5017 114.116 49.7161 114.116 49.7161H106.765Z" fill="black"/>
<path d="M118.856 105.515C118.689 105.529 118.522 105.484 118.384 105.388C118.343 105.348 118.313 105.299 118.296 105.244C118.279 105.189 118.276 105.131 118.287 105.075C118.29 105.04 118.303 105.006 118.324 104.977C118.344 104.948 118.372 104.925 118.405 104.91C118.7 104.783 119.444 105.264 119.526 105.32C119.536 105.326 119.544 105.335 119.548 105.346C119.553 105.356 119.555 105.368 119.553 105.379C119.551 105.391 119.546 105.401 119.538 105.41C119.53 105.418 119.52 105.424 119.509 105.426C119.295 105.48 119.076 105.509 118.856 105.515ZM118.526 105.004C118.5 105.003 118.475 105.008 118.452 105.019C118.434 105.019 118.411 105.043 118.405 105.093C118.395 105.129 118.396 105.168 118.406 105.204C118.417 105.24 118.437 105.273 118.464 105.299C118.588 105.415 118.912 105.429 119.349 105.344C119.102 105.174 118.821 105.059 118.526 105.004Z" fill="#072F5E"/>
<path d="M119.494 105.429C119.485 105.432 119.476 105.432 119.467 105.429C119.231 105.297 118.783 104.762 118.836 104.485C118.845 104.439 118.87 104.398 118.906 104.368C118.942 104.338 118.987 104.321 119.033 104.32C119.078 104.313 119.124 104.317 119.167 104.331C119.21 104.344 119.249 104.368 119.281 104.399C119.55 104.635 119.553 105.35 119.553 105.379C119.553 105.389 119.55 105.4 119.545 105.408C119.54 105.417 119.532 105.424 119.523 105.429C119.514 105.432 119.503 105.432 119.494 105.429ZM119.075 104.426H119.048C118.974 104.426 118.957 104.467 118.951 104.494C118.918 104.665 119.199 105.066 119.432 105.252C119.439 104.976 119.359 104.705 119.205 104.476C119.169 104.443 119.123 104.425 119.075 104.426Z" fill="#072F5E"/>
<path d="M107.609 105.515C107.401 105.532 107.193 105.479 107.018 105.364C106.978 105.328 106.947 105.282 106.929 105.23C106.911 105.179 106.906 105.123 106.915 105.069C106.916 105.037 106.926 105.006 106.943 104.978C106.96 104.951 106.984 104.928 107.012 104.913C107.308 104.748 108.302 105.252 108.411 105.308C108.423 105.314 108.432 105.323 108.438 105.334C108.444 105.345 108.446 105.358 108.444 105.37C108.442 105.382 108.437 105.393 108.428 105.402C108.42 105.41 108.409 105.416 108.397 105.418C108.138 105.475 107.874 105.507 107.609 105.515ZM107.169 105.004C107.131 105.002 107.094 105.009 107.06 105.025C107.048 105.032 107.039 105.041 107.032 105.052C107.025 105.064 107.022 105.077 107.021 105.09C107.017 105.124 107.02 105.159 107.032 105.191C107.044 105.224 107.064 105.253 107.089 105.276C107.24 105.412 107.647 105.435 108.193 105.344C107.873 105.173 107.527 105.058 107.169 105.004Z" fill="#072F5E"/>
<path d="M108.376 105.429H108.352C108.057 105.297 107.467 104.762 107.52 104.482C107.52 104.417 107.579 104.334 107.741 104.317C107.8 104.311 107.859 104.317 107.914 104.335C107.97 104.353 108.022 104.382 108.066 104.42C108.376 104.677 108.432 105.344 108.435 105.37C108.436 105.38 108.434 105.391 108.43 105.4C108.426 105.409 108.419 105.417 108.411 105.423C108.401 105.429 108.388 105.431 108.376 105.429ZM107.786 104.426H107.75C107.644 104.426 107.635 104.479 107.632 104.494C107.606 104.662 108.001 105.084 108.302 105.261C108.277 104.981 108.167 104.715 107.986 104.5C107.931 104.453 107.861 104.427 107.789 104.426H107.786Z" fill="#072F5E"/>
<path d="M108.29 26.1464C108.271 26.1484 108.252 26.146 108.234 26.1393C108.216 26.1327 108.2 26.122 108.187 26.108C108.092 25.9949 107.972 25.9062 107.836 25.8492C107.7 25.7922 107.552 25.7686 107.405 25.7804C107.374 25.7846 107.343 25.7765 107.318 25.7576C107.293 25.7388 107.277 25.711 107.272 25.6801C107.269 25.6497 107.277 25.6192 107.295 25.5946C107.313 25.5699 107.34 25.553 107.37 25.5473C107.555 25.5317 107.742 25.5603 107.914 25.6305C108.086 25.7008 108.24 25.8108 108.361 25.9516C108.382 25.974 108.394 26.0036 108.394 26.0343C108.394 26.0649 108.382 26.0945 108.361 26.1169C108.341 26.1335 108.316 26.1438 108.29 26.1464Z" fill="#263238"/>
<path d="M107.777 27.6132C107.666 28.0886 107.49 28.5464 107.254 28.9738C107.365 29.0315 107.488 29.0643 107.612 29.0699C107.737 29.0755 107.862 29.0538 107.978 29.0063L107.777 27.6132Z" fill="#DF5753"/>
<path d="M107.907 27.2384C107.933 27.4362 107.854 27.6103 107.724 27.628C107.594 27.6457 107.467 27.5011 107.429 27.3063C107.39 27.1115 107.482 26.9315 107.612 26.9138C107.741 26.896 107.886 27.0525 107.907 27.2384Z" fill="#263238"/>
<path d="M107.679 26.9433L107.187 26.8754C107.187 26.8754 107.482 27.1941 107.679 26.9433Z" fill="#263238"/>
<path d="M119.692 105.084H122.469C122.516 105.083 122.563 105.1 122.599 105.131C122.635 105.162 122.658 105.205 122.664 105.252L122.982 107.451C122.988 107.507 122.982 107.563 122.965 107.616C122.947 107.669 122.919 107.718 122.881 107.76C122.844 107.801 122.798 107.834 122.747 107.857C122.695 107.88 122.64 107.891 122.584 107.891C121.616 107.873 121.15 107.817 119.928 107.817C119.178 107.817 118.08 107.894 117.041 107.894C116.002 107.894 115.949 106.867 116.38 106.775C118.319 106.359 118.623 105.783 119.278 105.235C119.394 105.137 119.54 105.084 119.692 105.084Z" fill="#263238"/>
<path d="M108.538 105.084H111.316C111.363 105.083 111.41 105.1 111.446 105.131C111.482 105.162 111.506 105.205 111.513 105.252L111.829 107.451C111.835 107.506 111.829 107.563 111.812 107.616C111.795 107.669 111.766 107.717 111.729 107.759C111.692 107.8 111.646 107.833 111.595 107.856C111.544 107.879 111.489 107.891 111.434 107.891C110.466 107.873 109.999 107.817 108.777 107.817C108.025 107.817 106.472 107.894 105.433 107.894C104.395 107.894 104.341 106.867 104.772 106.775C106.708 106.359 107.473 105.783 108.125 105.235C108.241 105.138 108.387 105.085 108.538 105.084Z" fill="#263238"/>
<path opacity="0.28" d="M105.292 37.1403V37.1993C105.321 38.8491 105.549 41.6264 106.233 46.2955L107.632 40.8148L105.292 37.1403Z" fill="#072F5E"/>
<path d="M107.278 37.9873C107.001 39.3892 106.688 40.7616 106.316 42.1399C105.944 43.5182 105.566 44.8877 105.076 46.2719L104.885 46.7883L104.675 47.3078C104.628 47.4308 104.572 47.5502 104.507 47.6649C104.426 47.8177 104.326 47.9604 104.212 48.0899C103.944 48.3844 103.593 48.5903 103.205 48.6802C102.881 48.7542 102.544 48.7542 102.219 48.6802C101.972 48.6292 101.731 48.55 101.502 48.4441C101.122 48.2658 100.762 48.0471 100.428 47.7918C99.8316 47.3326 99.2766 46.822 98.7693 46.266C98.5154 46.0003 98.2793 45.7229 98.0491 45.4425C97.8189 45.1621 97.5976 44.8818 97.3792 44.5719L98.3148 43.7425C99.3072 44.6387 100.379 45.4428 101.517 46.1449C101.763 46.2878 102.022 46.4064 102.29 46.4991C102.518 46.5847 102.721 46.5611 102.641 46.5463C102.594 46.5529 102.548 46.5711 102.509 46.5995L102.55 46.4725L102.706 46.0062L102.854 45.5252C103.238 44.2295 103.565 42.8689 103.89 41.5349L104.814 37.4738L107.278 37.9873Z" fill="#E58A7B"/>
<path d="M97.4559 44.6958L96.1042 42.7833L97.9429 42.6417C97.9429 42.6417 98.9818 43.8399 98.6158 44.8021L97.4559 44.6958Z" fill="#E58A7B"/>
<path d="M97.3438 42.2905L97.7333 42.0514L97.9134 41.1453L98.2115 41.5172L98.4328 43.6451L97.3438 42.2905Z" fill="#E58A7B"/>
<path d="M114.444 25.621C114.645 28.0648 114.78 29.0948 113.736 30.5174C112.163 32.6512 109.114 32.362 108.19 30.0245C107.355 27.9202 107.169 24.2752 109.406 22.9707C109.897 22.6803 110.454 22.5204 111.025 22.5063C111.595 22.4921 112.16 22.6241 112.665 22.8897C113.17 23.1554 113.598 23.5458 113.91 24.0239C114.221 24.502 114.405 25.0518 114.444 25.621Z" fill="#E58A7B"/>
<path d="M108.981 22.6962C108.481 22.9064 108.072 23.2864 107.825 23.7692C107.578 24.252 107.51 24.8065 107.632 25.3348C107.632 25.3348 109.554 24.5054 109.63 27.5837C109.686 29.8061 108.155 32.8047 108.155 32.8047C108.155 32.8047 111.717 33.5425 116.844 31.9724C119.025 31.3054 118.042 18.2131 108.981 22.6962Z" fill="#263238"/>
<path d="M108.798 24.0568C108.45 24.895 108.541 26.5537 109.914 26.3766C111.286 26.1995 110.885 24.8153 110.885 24.8153L108.798 24.0568Z" fill="#263238"/>
<path d="M110.327 27.3683C110.341 27.8428 110.168 28.3039 109.846 28.6521C109.415 29.1066 108.875 28.7997 108.727 28.2212C108.591 27.7047 108.653 26.84 109.217 26.598C109.341 26.5473 109.476 26.5284 109.61 26.5431C109.743 26.5578 109.871 26.6056 109.981 26.6821C110.091 26.7586 110.181 26.8615 110.241 26.9813C110.301 27.1011 110.331 27.2341 110.327 27.3683Z" fill="#E58A7B"/>
<path d="M122.495 102.136H118.644L118.234 100.793L122.628 100.896L122.495 102.136Z" fill="#072F5E"/>
<path d="M115.589 50.2592H115.855C115.911 50.2592 115.952 50.2326 115.946 50.1972L115.819 49.0166C115.819 48.9842 115.769 48.9547 115.713 48.9547H115.442C115.388 48.9547 115.347 48.9842 115.35 49.0166L115.477 50.1972C115.489 50.2385 115.536 50.2592 115.589 50.2592Z" fill="#072F5E"/>
<path d="M108.99 50.2592H109.261C109.315 50.2592 109.356 50.2326 109.353 50.1972L109.226 49.0166C109.226 48.9842 109.173 48.9547 109.12 48.9547H108.848C108.792 48.9547 108.751 48.9842 108.757 49.0166L108.884 50.1972C108.887 50.2385 108.934 50.2592 108.99 50.2592Z" fill="#072F5E"/>
<path d="M111.617 102.136H107.762L107.485 100.987L111.761 100.793L111.617 102.136Z" fill="#072F5E"/>
<path d="M116.956 49.1288L117.407 50.0142C117.443 50.085 117.36 50.1559 117.245 50.1559H106.706C106.614 50.1559 106.54 50.1116 106.534 50.0555L106.443 49.1701C106.443 49.1081 106.517 49.055 106.614 49.055H116.782C116.815 49.0506 116.848 49.0551 116.879 49.0681C116.909 49.0811 116.936 49.102 116.956 49.1288Z" fill="#072F5E"/>
<path opacity="0.1" d="M116.956 49.1288L117.407 50.0142C117.443 50.085 117.36 50.1559 117.245 50.1559H106.706C106.614 50.1559 106.54 50.1116 106.534 50.0555L106.443 49.1701C106.443 49.1081 106.517 49.055 106.614 49.055H116.782C116.815 49.0506 116.848 49.0551 116.879 49.0681C116.909 49.0811 116.936 49.102 116.956 49.1288Z" fill="black"/>
<path opacity="0.6" d="M115.589 50.2592H115.855C115.911 50.2592 115.952 50.2326 115.946 50.1972L115.819 49.0166C115.819 48.9842 115.769 48.9547 115.713 48.9547H115.442C115.388 48.9547 115.347 48.9842 115.35 49.0166L115.477 50.1972C115.489 50.2385 115.536 50.2592 115.589 50.2592Z" fill="black"/>
<path opacity="0.6" d="M108.99 50.2592H109.261C109.315 50.2592 109.356 50.2326 109.353 50.1972L109.226 49.0166C109.226 48.9842 109.173 48.9547 109.12 48.9547H108.848C108.792 48.9547 108.751 48.9842 108.757 49.0166L108.884 50.1972C108.887 50.2385 108.934 50.2592 108.99 50.2592Z" fill="black"/>
<path d="M105.581 34.7969C104.563 35.0566 103.852 39.2505 103.852 39.2505L107.783 41.9215C107.783 41.9215 109.362 36.9278 108.568 35.7974C107.75 34.6405 107.069 34.4191 105.581 34.7969Z" fill="#072F5E"/>
<path opacity="0.6" d="M105.581 34.7969C104.563 35.0566 103.852 39.2505 103.852 39.2505L107.783 41.9215C107.783 41.9215 109.362 36.9278 108.568 35.7974C107.75 34.6405 107.069 34.4191 105.581 34.7969Z" fill="white"/>
<path d="M49.8206 88.8721C49.8221 88.8623 49.8221 88.8523 49.8206 88.8426C49.9033 88.3674 49.9741 87.8892 50.0331 87.4052C50.8684 88.3349 51.5944 88.571 52.1138 88.571C52.1689 88.5741 52.2241 88.5741 52.2791 88.571C53.2973 88.4707 54.1562 87.4731 54.5812 85.9148C54.5896 85.8839 54.5913 85.8517 54.5862 85.8201C54.5811 85.7885 54.5694 85.7584 54.5517 85.7318C54.5151 85.6758 54.4596 85.635 54.3953 85.6167C53.6739 85.4193 52.9178 85.3845 52.1813 85.5146C51.4449 85.6448 50.7464 85.9367 50.1364 86.3693C50.1718 85.9148 50.1925 85.4603 50.1984 85.0028C50.3631 85.0317 50.53 85.0465 50.6972 85.0471C52.3795 85.0471 53.4213 83.5507 53.4715 83.4769C53.4903 83.4485 53.5018 83.4158 53.5049 83.3818C53.5079 83.3478 53.5026 83.3136 53.4892 83.2822C53.4755 83.2478 53.4548 83.2166 53.4284 83.1907C53.4019 83.1647 53.3704 83.1446 53.3357 83.1316C52.285 82.7361 51.4321 82.7007 50.8034 83.0313C50.4034 83.2488 50.096 83.6044 49.9387 84.0318C49.4941 83.0632 48.8207 82.2173 47.9764 81.5669C47.1322 80.9165 46.1425 80.4811 45.0925 80.2983C45.0625 80.2912 45.0312 80.2913 45.0012 80.2986C44.9713 80.3059 44.9435 80.3203 44.9201 80.3404C44.8968 80.3606 44.8786 80.386 44.867 80.4146C44.8554 80.4432 44.8507 80.4742 44.8535 80.5049C44.9597 82.0308 45.243 83.8931 46.5003 84.7844C47.0034 85.129 47.6026 85.3057 48.2121 85.2891C48.7334 85.2778 49.2508 85.1953 49.7498 85.0441C49.7236 86.1316 49.625 87.2162 49.4547 88.2906C48.7552 87.4967 46.9755 85.7318 44.5465 85.1238C44.5195 85.1154 44.491 85.113 44.463 85.1167C44.4349 85.1204 44.408 85.1302 44.3842 85.1454C44.3603 85.1605 44.34 85.1807 44.3247 85.2045C44.3094 85.2283 44.2995 85.2552 44.2956 85.2832C44.1156 86.5966 44.4285 87.662 45.1958 88.3644C45.8333 88.9547 46.7482 89.2498 47.8521 89.2498C48.3418 89.2453 48.8301 89.1939 49.31 89.0964C49.1448 89.9965 48.9411 90.8672 48.7198 91.7172C47.9554 91.1092 45.7448 89.5715 43.6375 90.212C43.6096 90.2211 43.5843 90.2365 43.5633 90.257C43.5423 90.2774 43.5263 90.3024 43.5165 90.33C43.5064 90.3596 43.5028 90.3909 43.5058 90.422C43.5089 90.453 43.5185 90.4831 43.5342 90.5101C44.3134 91.9622 45.0925 92.7679 45.9809 93.0483C46.2122 93.1202 46.4529 93.157 46.6951 93.1575C47.3218 93.1314 47.9314 92.9455 48.4659 92.6174C48.1324 93.733 47.7665 94.7719 47.4064 95.6986C46.8044 95.1364 46.0712 94.7338 45.2737 94.5276C44.4762 94.3214 43.6397 94.3181 42.8406 94.5181C42.8153 94.5236 42.7915 94.5341 42.7704 94.5491C42.7493 94.5641 42.7315 94.5832 42.718 94.6053C42.7045 94.6273 42.6955 94.6519 42.6918 94.6775C42.688 94.7031 42.6894 94.7291 42.696 94.7542C42.8196 95.2327 43.0531 95.6757 43.3779 96.0482C43.7027 96.4207 44.1099 96.7122 44.5672 96.8998C44.9012 97.0381 45.2593 97.1093 45.6208 97.1094C46.0991 97.1057 46.5685 96.9797 46.9843 96.7434C46.5137 97.8931 45.9827 99.0172 45.3936 100.111C45.3685 100.165 45.3645 100.227 45.3825 100.285C45.4005 100.342 45.4392 100.39 45.4909 100.421C45.5296 100.446 45.5747 100.459 45.6208 100.459C45.6552 100.46 45.6892 100.452 45.7193 100.435C45.7494 100.419 45.7745 100.394 45.792 100.365C46.5063 99.0256 47.1419 97.6459 47.6956 96.2328C47.7071 96.2102 47.716 96.1865 47.7222 96.162C47.8324 95.8845 47.9416 95.5983 48.0498 95.3031C48.7611 96.1236 49.6258 96.5781 50.4935 96.5781C50.588 96.5781 50.6795 96.5781 50.7739 96.5781C51.2549 96.5301 51.7092 96.334 52.0739 96.0168C52.4387 95.6996 52.696 95.277 52.8104 94.8073C52.8187 94.7544 52.81 94.7001 52.7856 94.6524C52.7612 94.6047 52.7224 94.5659 52.6746 94.5417C52.0239 94.1769 51.296 93.9715 50.5506 93.9422C49.8053 93.913 49.0635 94.0608 48.3863 94.3734C48.6194 93.6976 48.8467 92.9804 49.0562 92.2366C49.0749 92.2064 49.0851 92.1718 49.0857 92.1363C49.1418 91.9267 49.2008 91.7172 49.254 91.5017C50.1069 92.4285 50.8949 92.883 51.6534 92.883C52.5743 92.883 53.4243 92.2012 54.2418 90.817C54.2639 90.7655 54.2675 90.708 54.2519 90.6541C54.2362 90.6003 54.2024 90.5536 54.1562 90.5219C52.4415 89.3413 50.3902 90.1471 49.4753 90.6193C49.6052 90.0664 49.7193 89.5037 49.8177 88.9311L49.8206 88.8721Z" fill="#072F5E"/>
<path opacity="0.3" d="M49.8206 88.8721C49.8221 88.8623 49.8221 88.8523 49.8206 88.8426C49.9033 88.3674 49.9741 87.8892 50.0331 87.4052C50.8684 88.3349 51.5944 88.571 52.1138 88.571C52.1689 88.5741 52.2241 88.5741 52.2791 88.571C53.2973 88.4707 54.1562 87.4731 54.5812 85.9148C54.5896 85.8839 54.5913 85.8517 54.5862 85.8201C54.5811 85.7885 54.5694 85.7584 54.5517 85.7318C54.5151 85.6758 54.4596 85.635 54.3953 85.6167C53.6739 85.4193 52.9178 85.3845 52.1813 85.5146C51.4449 85.6448 50.7464 85.9367 50.1364 86.3693C50.1718 85.9148 50.1925 85.4603 50.1984 85.0028C50.3631 85.0317 50.53 85.0465 50.6972 85.0471C52.3795 85.0471 53.4213 83.5507 53.4715 83.4769C53.4903 83.4485 53.5018 83.4158 53.5049 83.3818C53.5079 83.3478 53.5026 83.3136 53.4892 83.2822C53.4755 83.2478 53.4548 83.2166 53.4284 83.1907C53.4019 83.1647 53.3704 83.1446 53.3357 83.1316C52.285 82.7361 51.4321 82.7007 50.8034 83.0313C50.4034 83.2488 50.096 83.6044 49.9387 84.0318C49.4941 83.0632 48.8207 82.2173 47.9764 81.5669C47.1322 80.9165 46.1425 80.4811 45.0925 80.2983C45.0625 80.2912 45.0312 80.2913 45.0012 80.2986C44.9713 80.3059 44.9435 80.3203 44.9201 80.3404C44.8968 80.3606 44.8786 80.386 44.867 80.4146C44.8554 80.4432 44.8507 80.4742 44.8535 80.5049C44.9597 82.0308 45.243 83.8931 46.5003 84.7844C47.0034 85.129 47.6026 85.3057 48.2121 85.2891C48.7334 85.2778 49.2508 85.1953 49.7498 85.0441C49.7236 86.1316 49.625 87.2162 49.4547 88.2906C48.7552 87.4967 46.9755 85.7318 44.5465 85.1238C44.5195 85.1154 44.491 85.113 44.463 85.1167C44.4349 85.1204 44.408 85.1302 44.3842 85.1454C44.3603 85.1605 44.34 85.1807 44.3247 85.2045C44.3094 85.2283 44.2995 85.2552 44.2956 85.2832C44.1156 86.5966 44.4285 87.662 45.1958 88.3644C45.8333 88.9547 46.7482 89.2498 47.8521 89.2498C48.3418 89.2453 48.8301 89.1939 49.31 89.0964C49.1448 89.9965 48.9411 90.8672 48.7198 91.7172C47.9554 91.1092 45.7448 89.5715 43.6375 90.212C43.6096 90.2211 43.5843 90.2365 43.5633 90.257C43.5423 90.2774 43.5263 90.3024 43.5165 90.33C43.5064 90.3596 43.5028 90.3909 43.5058 90.422C43.5089 90.453 43.5185 90.4831 43.5342 90.5101C44.3134 91.9622 45.0925 92.7679 45.9809 93.0483C46.2122 93.1202 46.4529 93.157 46.6951 93.1575C47.3218 93.1314 47.9314 92.9455 48.4659 92.6174C48.1324 93.733 47.7665 94.7719 47.4064 95.6986C46.8044 95.1364 46.0712 94.7338 45.2737 94.5276C44.4762 94.3214 43.6397 94.3181 42.8406 94.5181C42.8153 94.5236 42.7915 94.5341 42.7704 94.5491C42.7493 94.5641 42.7315 94.5832 42.718 94.6053C42.7045 94.6273 42.6955 94.6519 42.6918 94.6775C42.688 94.7031 42.6894 94.7291 42.696 94.7542C42.8196 95.2327 43.0531 95.6757 43.3779 96.0482C43.7027 96.4207 44.1099 96.7122 44.5672 96.8998C44.9012 97.0381 45.2593 97.1093 45.6208 97.1094C46.0991 97.1057 46.5685 96.9797 46.9843 96.7434C46.5137 97.8931 45.9827 99.0172 45.3936 100.111C45.3685 100.165 45.3645 100.227 45.3825 100.285C45.4005 100.342 45.4392 100.39 45.4909 100.421C45.5296 100.446 45.5747 100.459 45.6208 100.459C45.6552 100.46 45.6892 100.452 45.7193 100.435C45.7494 100.419 45.7745 100.394 45.792 100.365C46.5063 99.0256 47.1419 97.6459 47.6956 96.2328C47.7071 96.2102 47.716 96.1865 47.7222 96.162C47.8324 95.8845 47.9416 95.5983 48.0498 95.3031C48.7611 96.1236 49.6258 96.5781 50.4935 96.5781C50.588 96.5781 50.6795 96.5781 50.7739 96.5781C51.2549 96.5301 51.7092 96.334 52.0739 96.0168C52.4387 95.6996 52.696 95.277 52.8104 94.8073C52.8187 94.7544 52.81 94.7001 52.7856 94.6524C52.7612 94.6047 52.7224 94.5659 52.6746 94.5417C52.0239 94.1769 51.296 93.9715 50.5506 93.9422C49.8053 93.913 49.0635 94.0608 48.3863 94.3734C48.6194 93.6976 48.8467 92.9804 49.0562 92.2366C49.0749 92.2064 49.0851 92.1718 49.0857 92.1363C49.1418 91.9267 49.2008 91.7172 49.254 91.5017C50.1069 92.4285 50.8949 92.883 51.6534 92.883C52.5743 92.883 53.4243 92.2012 54.2418 90.817C54.2639 90.7655 54.2675 90.708 54.2519 90.6541C54.2362 90.6003 54.2024 90.5536 54.1562 90.5219C52.4415 89.3413 50.3902 90.1471 49.4753 90.6193C49.6052 90.0664 49.7193 89.5037 49.8177 88.9311L49.8206 88.8721Z" fill="black"/>
<path d="M39.1189 94.8545C39.4371 94.9544 39.7682 95.0071 40.1017 95.0109C40.5251 95.0089 40.9432 94.9166 41.3281 94.74C41.7129 94.5635 42.0556 94.3068 42.3333 93.9872C42.611 93.6676 42.8173 93.2924 42.9384 92.8867C43.0595 92.481 43.0925 92.0541 43.0354 91.6346C43.0255 91.5887 42.9988 91.5482 42.9606 91.5209C42.9224 91.4936 42.8754 91.4815 42.8288 91.487C42.013 91.5772 41.2275 91.8478 40.5292 92.2792C39.8308 92.7105 39.2372 93.2918 38.7913 93.9809C38.4194 92.9597 38.0712 91.8736 37.779 90.7491C38.2559 91.0312 38.7955 91.1904 39.3491 91.2125C39.5767 91.2133 39.8029 91.1774 40.0191 91.1063C41.1672 90.7255 41.9552 89.3561 42.637 87.9306C42.6493 87.9048 42.6557 87.8765 42.6557 87.8479C42.6557 87.8193 42.6493 87.7911 42.637 87.7653C42.6269 87.7396 42.611 87.7166 42.5905 87.6982C42.57 87.6798 42.5455 87.6663 42.5189 87.6591C40.2729 87.0186 38.2306 89.2144 37.5872 89.9995C37.3618 89.0475 37.1884 88.0839 37.0677 87.113C37.5435 87.204 38.0266 87.2515 38.5109 87.2547C39.6915 87.2547 40.6241 86.9419 41.2557 86.325C42.0054 85.596 42.2621 84.504 42.0024 83.17C41.9974 83.1442 41.987 83.1198 41.9719 83.0984C41.9568 83.0769 41.9373 83.0589 41.9147 83.0455C41.8921 83.0321 41.8669 83.0237 41.8409 83.0207C41.8148 83.0178 41.7884 83.0204 41.7634 83.0283C39.3668 83.6658 37.6757 85.4485 36.9851 86.2926C36.9851 86.1184 36.9556 85.9443 36.9438 85.7702C36.9402 85.7264 36.9226 85.685 36.8936 85.6521C36.8338 85.3251 36.7014 85.0157 36.5063 84.7465C36.3112 84.4773 36.0583 84.2553 35.7662 84.0967C35.111 83.7721 34.2462 83.8193 33.2014 84.2355C33.1705 84.2475 33.1426 84.2661 33.1196 84.2901C33.0967 84.3141 33.0793 84.3428 33.0686 84.3742C33.058 84.4046 33.0549 84.4371 33.0595 84.4689C33.0642 84.5007 33.0764 84.531 33.0952 84.5571C33.1483 84.628 34.2757 86.1096 35.9639 86.1096C36.1462 86.109 36.328 86.0912 36.507 86.0565C36.5424 86.5365 36.5925 87.0176 36.6575 87.4997C36.0214 87.0673 35.2986 86.7791 34.5395 86.6552C33.7804 86.5313 33.0034 86.5747 32.2629 86.7825C32.2337 86.7897 32.2063 86.8029 32.1824 86.8211C32.1586 86.8394 32.1387 86.8624 32.1242 86.8887C32.1094 86.9139 32.0999 86.9418 32.0963 86.9707C32.0928 86.9997 32.0952 87.029 32.1035 87.057C32.6259 88.6448 33.5556 89.6453 34.5945 89.7309C34.6416 89.734 34.689 89.734 34.7361 89.7309C35.2674 89.7309 36.0023 89.4889 36.8021 88.5091C36.9976 89.6133 37.2538 90.706 37.5695 91.7821C36.6191 91.3158 34.4705 90.513 32.7882 91.7349C32.7645 91.7499 32.7439 91.7695 32.7278 91.7925C32.7116 91.8155 32.7002 91.8415 32.6941 91.8689C32.6881 91.8964 32.6876 91.9248 32.6926 91.9524C32.6976 91.9801 32.708 92.0065 32.7233 92.03C33.6294 93.4261 34.5207 94.096 35.4474 94.096H35.471C36.2413 94.096 37.0175 93.6149 37.8321 92.6557C38.1656 93.7064 38.5316 94.704 38.9064 95.6307C37.9738 95.0198 36.8818 95.1172 35.536 95.9259C35.5068 95.9445 35.4819 95.9691 35.4631 95.9981C35.4443 96.0272 35.4319 96.0599 35.4267 96.0941C35.4231 96.1263 35.4277 96.1589 35.4401 96.1888C35.4525 96.2187 35.4723 96.245 35.4976 96.2653C35.5655 96.3184 36.7135 97.1832 37.9974 97.1832C38.4904 97.1879 38.9735 97.045 39.3845 96.7729C40.1109 98.4614 40.948 100.1 41.8903 101.678C41.9091 101.708 41.9353 101.732 41.9664 101.749C41.9974 101.765 42.0322 101.773 42.0674 101.773C42.1149 101.773 42.1613 101.759 42.2002 101.731C42.252 101.699 42.2894 101.649 42.3043 101.59C42.3192 101.531 42.3104 101.468 42.2799 101.415C41.0445 99.3208 39.9871 97.1261 39.1189 94.8545Z" fill="#072F5E"/>
<path opacity="0.5" d="M39.1189 94.8545C39.4371 94.9544 39.7682 95.0071 40.1017 95.0109C40.5251 95.0089 40.9432 94.9166 41.3281 94.74C41.7129 94.5635 42.0556 94.3068 42.3333 93.9872C42.611 93.6676 42.8173 93.2924 42.9384 92.8867C43.0595 92.481 43.0925 92.0541 43.0354 91.6346C43.0255 91.5887 42.9988 91.5482 42.9606 91.5209C42.9224 91.4936 42.8754 91.4815 42.8288 91.487C42.013 91.5772 41.2275 91.8478 40.5292 92.2792C39.8308 92.7105 39.2372 93.2918 38.7913 93.9809C38.4194 92.9597 38.0712 91.8736 37.779 90.7491C38.2559 91.0312 38.7955 91.1904 39.3491 91.2125C39.5767 91.2133 39.8029 91.1774 40.0191 91.1063C41.1672 90.7255 41.9552 89.3561 42.637 87.9306C42.6493 87.9048 42.6557 87.8765 42.6557 87.8479C42.6557 87.8193 42.6493 87.7911 42.637 87.7653C42.6269 87.7396 42.611 87.7166 42.5905 87.6982C42.57 87.6798 42.5455 87.6663 42.5189 87.6591C40.2729 87.0186 38.2306 89.2144 37.5872 89.9995C37.3618 89.0475 37.1884 88.0839 37.0677 87.113C37.5435 87.204 38.0266 87.2515 38.5109 87.2547C39.6915 87.2547 40.6241 86.9419 41.2557 86.325C42.0054 85.596 42.2621 84.504 42.0024 83.17C41.9974 83.1442 41.987 83.1198 41.9719 83.0984C41.9568 83.0769 41.9373 83.0589 41.9147 83.0455C41.8921 83.0321 41.8669 83.0237 41.8409 83.0207C41.8148 83.0178 41.7884 83.0204 41.7634 83.0283C39.3668 83.6658 37.6757 85.4485 36.9851 86.2926C36.9851 86.1184 36.9556 85.9443 36.9438 85.7702C36.9402 85.7264 36.9226 85.685 36.8936 85.6521C36.8338 85.3251 36.7014 85.0157 36.5063 84.7465C36.3112 84.4773 36.0583 84.2553 35.7662 84.0967C35.111 83.7721 34.2462 83.8193 33.2014 84.2355C33.1705 84.2475 33.1426 84.2661 33.1196 84.2901C33.0967 84.3141 33.0793 84.3428 33.0686 84.3742C33.058 84.4046 33.0549 84.4371 33.0595 84.4689C33.0642 84.5007 33.0764 84.531 33.0952 84.5571C33.1483 84.628 34.2757 86.1096 35.9639 86.1096C36.1462 86.109 36.328 86.0912 36.507 86.0565C36.5424 86.5365 36.5925 87.0176 36.6575 87.4997C36.0214 87.0673 35.2986 86.7791 34.5395 86.6552C33.7804 86.5313 33.0034 86.5747 32.2629 86.7825C32.2337 86.7897 32.2063 86.8029 32.1824 86.8211C32.1586 86.8394 32.1387 86.8624 32.1242 86.8887C32.1094 86.9139 32.0999 86.9418 32.0963 86.9707C32.0928 86.9997 32.0952 87.029 32.1035 87.057C32.6259 88.6448 33.5556 89.6453 34.5945 89.7309C34.6416 89.734 34.689 89.734 34.7361 89.7309C35.2674 89.7309 36.0023 89.4889 36.8021 88.5091C36.9976 89.6133 37.2538 90.706 37.5695 91.7821C36.6191 91.3158 34.4705 90.513 32.7882 91.7349C32.7645 91.7499 32.7439 91.7695 32.7278 91.7925C32.7116 91.8155 32.7002 91.8415 32.6941 91.8689C32.6881 91.8964 32.6876 91.9248 32.6926 91.9524C32.6976 91.9801 32.708 92.0065 32.7233 92.03C33.6294 93.4261 34.5207 94.096 35.4474 94.096H35.471C36.2413 94.096 37.0175 93.6149 37.8321 92.6557C38.1656 93.7064 38.5316 94.704 38.9064 95.6307C37.9738 95.0198 36.8818 95.1172 35.536 95.9259C35.5068 95.9445 35.4819 95.9691 35.4631 95.9981C35.4443 96.0272 35.4319 96.0599 35.4267 96.0941C35.4231 96.1263 35.4277 96.1589 35.4401 96.1888C35.4525 96.2187 35.4723 96.245 35.4976 96.2653C35.5655 96.3184 36.7135 97.1832 37.9974 97.1832C38.4904 97.1879 38.9735 97.045 39.3845 96.7729C40.1109 98.4614 40.948 100.1 41.8903 101.678C41.9091 101.708 41.9353 101.732 41.9664 101.749C41.9974 101.765 42.0322 101.773 42.0674 101.773C42.1149 101.773 42.1613 101.759 42.2002 101.731C42.252 101.699 42.2894 101.649 42.3043 101.59C42.3192 101.531 42.3104 101.468 42.2799 101.415C41.0445 99.3208 39.9871 97.1261 39.1189 94.8545Z" fill="white"/>
<path d="M47.2352 106.701H40.205L39.6738 99.4321H47.7665L47.2352 106.701Z" fill="#263238"/>
<path d="M48.2889 98.9422H39.1484V100.173H48.2889V98.9422Z" fill="#263238"/>
<path d="M44.1363 63.7086H27.9066C26.7673 63.7086 25.8436 64.6323 25.8436 65.7716V104.638C25.8436 105.778 26.7673 106.701 27.9066 106.701H44.1363C45.2756 106.701 46.1993 105.778 46.1993 104.638V65.7716C46.1993 64.6323 45.2756 63.7086 44.1363 63.7086Z" fill="#072F5E"/>
<path opacity="0.6" d="M44.1363 63.7086H27.9066C26.7673 63.7086 25.8436 64.6323 25.8436 65.7716V104.638C25.8436 105.778 26.7673 106.701 27.9066 106.701H44.1363C45.2756 106.701 46.1993 105.778 46.1993 104.638V65.7716C46.1993 64.6323 45.2756 63.7086 44.1363 63.7086Z" fill="black"/>
<path d="M43.1476 63.7086H26.9179C25.7785 63.7086 24.8549 64.6323 24.8549 65.7716V104.638C24.8549 105.778 25.7785 106.701 26.9179 106.701H43.1476C44.2869 106.701 45.2106 105.778 45.2106 104.638V65.7716C45.2106 64.6323 44.2869 63.7086 43.1476 63.7086Z" fill="#072F5E"/>
<path opacity="0.3" d="M43.1476 63.7086H26.9179C25.7785 63.7086 24.8549 64.6323 24.8549 65.7716V104.638C24.8549 105.778 25.7785 106.701 26.9179 106.701H43.1476C44.2869 106.701 45.2106 105.778 45.2106 104.638V65.7716C45.2106 64.6323 44.2869 63.7086 43.1476 63.7086Z" fill="black"/>
<path d="M45.2106 66.0756H24.8549V103.021H45.2106V66.0756Z" fill="#FAFAFA"/>
<path opacity="0.18" d="M45.2224 65.9989H24.8667V102.944H45.2224V65.9989Z" fill="#072F5E"/>
<path opacity="0.4" d="M32.2422 66.0786L25.64 103.024H32.1773L38.7825 66.0786H32.2422Z" fill="white"/>
<path opacity="0.4" d="M40.3762 66.0786L33.774 103.024H37.0441L43.6463 66.0786H40.3762Z" fill="white"/>
<path d="M35.9521 104.733C35.9521 104.914 35.8983 105.092 35.7974 105.243C35.6965 105.394 35.5532 105.511 35.3855 105.581C35.2177 105.65 35.0332 105.668 34.8551 105.633C34.6771 105.598 34.5135 105.51 34.3852 105.382C34.2568 105.253 34.1694 105.09 34.134 104.912C34.0986 104.734 34.1167 104.549 34.1862 104.382C34.2557 104.214 34.3733 104.07 34.5243 103.97C34.6752 103.869 34.8527 103.815 35.0342 103.815C35.2777 103.815 35.5111 103.912 35.6833 104.084C35.8554 104.256 35.9521 104.489 35.9521 104.733Z" fill="#072F5E"/>
<path opacity="0.5" d="M35.9521 104.733C35.9521 104.914 35.8983 105.092 35.7974 105.243C35.6965 105.394 35.5532 105.511 35.3855 105.581C35.2177 105.65 35.0332 105.668 34.8551 105.633C34.6771 105.598 34.5135 105.51 34.3852 105.382C34.2568 105.253 34.1694 105.09 34.134 104.912C34.0986 104.734 34.1167 104.549 34.1862 104.382C34.2557 104.214 34.3733 104.07 34.5243 103.97C34.6752 103.869 34.8527 103.815 35.0342 103.815C35.2777 103.815 35.5111 103.912 35.6833 104.084C35.8554 104.256 35.9521 104.489 35.9521 104.733Z" fill="black"/>
<path d="M37.4396 65.1223C37.6189 65.1223 37.7642 64.977 37.7642 64.7977C37.7642 64.6184 37.6189 64.473 37.4396 64.473C37.2603 64.473 37.1149 64.6184 37.1149 64.7977C37.1149 64.977 37.2603 65.1223 37.4396 65.1223Z" fill="#072F5E"/>
<path d="M36.1144 65.1223H32.6259C32.5398 65.1223 32.4572 65.0881 32.3963 65.0272C32.3354 64.9664 32.3012 64.8838 32.3012 64.7977C32.302 64.7118 32.3365 64.6297 32.3972 64.569C32.4579 64.5082 32.54 64.4738 32.6259 64.473H36.1115C36.1973 64.4738 36.2795 64.5082 36.3402 64.569C36.4009 64.6297 36.4354 64.7118 36.4361 64.7977C36.4361 64.8833 36.4023 64.9654 36.3421 65.0262C36.2818 65.087 36.2 65.1215 36.1144 65.1223Z" fill="#072F5E"/>
<path opacity="0.5" d="M37.4396 65.1223C37.6189 65.1223 37.7642 64.977 37.7642 64.7977C37.7642 64.6184 37.6189 64.473 37.4396 64.473C37.2603 64.473 37.1149 64.6184 37.1149 64.7977C37.1149 64.977 37.2603 65.1223 37.4396 65.1223Z" fill="black"/>
<path opacity="0.5" d="M36.1144 65.1223H32.6259C32.5398 65.1223 32.4572 65.0881 32.3963 65.0272C32.3354 64.9664 32.3012 64.8838 32.3012 64.7977C32.302 64.7118 32.3365 64.6297 32.3972 64.569C32.4579 64.5082 32.54 64.4738 32.6259 64.473H36.1115C36.1973 64.4738 36.2795 64.5082 36.3402 64.569C36.4009 64.6297 36.4354 64.7118 36.4361 64.7977C36.4361 64.8833 36.4023 64.9654 36.3421 65.0262C36.2818 65.087 36.2 65.1215 36.1144 65.1223Z" fill="black"/>
</svg>
