<svg width="7" height="7" viewBox="0 0 7 7" fill="none" xmlns="http://www.w3.org/2000/svg">
<g clip-path="url(#clip0_1_141)">
<path fill-rule="evenodd" clip-rule="evenodd" d="M6.34967 1.10777C6.41769 1.17579 6.44073 1.27676 6.40896 1.36755L4.65616 6.37555C4.62224 6.47245 4.53261 6.53884 4.43002 6.54302C4.32744 6.54721 4.23269 6.48835 4.191 6.39453L3.22851 4.22893L1.06292 3.26645C0.969099 3.22475 0.910239 3.13001 0.914424 3.02742C0.91861 2.92484 0.984992 2.8352 1.0819 2.80129L6.08989 1.04849C6.18069 1.01671 6.28166 1.03975 6.34967 1.10777ZM3.71688 4.09468L4.39212 5.61398L5.57379 2.23777L3.71688 4.09468ZM5.21967 1.88365L1.84347 3.06533L3.36276 3.74057L5.21967 1.88365Z" fill="white"/>
</g>
<defs>
<clipPath id="clip0_1_141">
<rect width="6.0096" height="6.0096" fill="white" transform="translate(0.663818 0.783936)"/>
</clipPath>
</defs>
</svg>
