<svg width="20" height="3" viewBox="0 0 20 3" fill="none" xmlns="http://www.w3.org/2000/svg">
<g opacity="0.2">
<path d="M1.94855 1.51095C1.93837 1.64975 1.88767 1.7825 1.80273 1.89275C1.7178 2.003 1.60237 2.08588 1.47076 2.13113C1.33915 2.17638 1.19715 2.182 1.06237 2.1473C0.927599 2.11259 0.805976 2.03909 0.712591 1.9359C0.619207 1.83271 0.558171 1.70437 0.537049 1.56681C0.515928 1.42925 0.535648 1.28852 0.593771 1.16206C0.651895 1.03561 0.745865 0.929004 0.864018 0.855461C0.982172 0.781918 1.11931 0.744676 1.25843 0.748357C1.45067 0.759068 1.63094 0.845144 1.76013 0.987902C1.88933 1.13066 1.95703 1.3186 1.94855 1.51095Z" fill="white"/>
<path d="M4.14654 1.52131C4.15333 1.61859 4.14003 1.71622 4.10746 1.80814C4.0749 1.90006 4.02378 1.9843 3.95727 2.05561C3.89076 2.12693 3.81029 2.1838 3.72086 2.22268C3.63143 2.26156 3.53495 2.28163 3.43744 2.28163C3.33992 2.28163 3.24345 2.26156 3.15402 2.22268C3.06459 2.1838 2.98411 2.12693 2.9176 2.05561C2.85109 1.9843 2.79997 1.90006 2.76741 1.80814C2.73485 1.71622 2.72155 1.61859 2.72834 1.52131C2.72155 1.42403 2.73485 1.32639 2.76741 1.23447C2.79997 1.14255 2.85109 1.05832 2.9176 0.987C2.98411 0.915685 3.06459 0.858817 3.15402 0.819935C3.24345 0.781054 3.33992 0.760986 3.43744 0.760986C3.53495 0.760986 3.63143 0.781054 3.72086 0.819935C3.81029 0.858817 3.89076 0.915685 3.95727 0.987C4.02378 1.05832 4.0749 1.14255 4.10746 1.23447C4.14003 1.32639 4.15333 1.42403 4.14654 1.52131Z" fill="white"/>
<path d="M6.34803 1.53164C6.33785 1.67044 6.28715 1.80319 6.20221 1.91344C6.11727 2.02369 6.00184 2.10657 5.87023 2.15182C5.73862 2.19708 5.59662 2.2027 5.46185 2.16799C5.32707 2.13328 5.20545 2.05978 5.11207 1.95659C5.01868 1.8534 4.95765 1.72506 4.93652 1.5875C4.9154 1.44994 4.93512 1.30921 4.99325 1.18276C5.05137 1.0563 5.14534 0.949695 5.26349 0.876152C5.38165 0.802609 5.51879 0.765367 5.65791 0.769048C5.84983 0.780633 6.02957 0.866962 6.15858 1.00952C6.28759 1.15208 6.3556 1.33952 6.34803 1.53164Z" fill="white"/>
<path d="M8.54608 1.54201C8.53589 1.68081 8.48519 1.81357 8.40025 1.92381C8.31532 2.03406 8.19989 2.11695 8.06828 2.1622C7.93667 2.20745 7.79467 2.21307 7.65989 2.17836C7.52512 2.14366 7.4035 2.07016 7.31011 1.96697C7.21673 1.86378 7.15569 1.73545 7.13457 1.59789C7.11345 1.46033 7.13317 1.31958 7.19129 1.19313C7.24942 1.06668 7.34338 0.960071 7.46154 0.886528C7.57969 0.812985 7.71683 0.775743 7.85596 0.779423C8.04788 0.791009 8.22761 0.877338 8.35662 1.0199C8.48563 1.16245 8.55365 1.3499 8.54608 1.54201Z" fill="white"/>
<path d="M10.7441 1.54888C10.7346 1.68788 10.6844 1.82103 10.5999 1.93176C10.5153 2.04249 10.4 2.12592 10.2684 2.17169C10.1368 2.21746 9.99471 2.22355 9.85968 2.18919C9.72465 2.15484 9.60269 2.08156 9.50897 1.97847C9.41524 1.87537 9.35389 1.74701 9.33252 1.60933C9.31115 1.47164 9.33072 1.33073 9.38879 1.20407C9.44686 1.07742 9.54087 0.970628 9.65913 0.896965C9.7774 0.823303 9.9147 0.786012 10.054 0.789745C10.2453 0.801326 10.4245 0.887176 10.5534 1.02898C10.6823 1.17079 10.7507 1.35735 10.7441 1.54888Z" fill="white"/>
<path d="M12.9456 1.55925C12.9361 1.69753 12.8865 1.83004 12.8027 1.94048C12.719 2.05092 12.6048 2.13446 12.4741 2.18083C12.3435 2.22719 12.2022 2.23434 12.0675 2.20142C11.9329 2.1685 11.8108 2.09693 11.7163 1.99552C11.6218 1.89412 11.5591 1.7673 11.5357 1.63068C11.5124 1.49405 11.5295 1.35358 11.5849 1.22655C11.6404 1.09952 11.7318 0.991469 11.8478 0.915704C11.9639 0.839939 12.0996 0.79976 12.2382 0.800112C12.4325 0.807307 12.6161 0.89125 12.7487 1.03354C12.8813 1.17583 12.9521 1.36487 12.9456 1.55925Z" fill="white"/>
<path d="M15.1436 1.56958C15.1504 1.66686 15.1371 1.7645 15.1045 1.85642C15.072 1.94834 15.0208 2.03258 14.9543 2.10389C14.8878 2.17521 14.8073 2.23208 14.7179 2.27096C14.6285 2.30984 14.532 2.3299 14.4345 2.3299C14.337 2.3299 14.2405 2.30984 14.1511 2.27096C14.0616 2.23208 13.9812 2.17521 13.9147 2.10389C13.8482 2.03258 13.797 1.94834 13.7645 1.85642C13.7319 1.7645 13.7186 1.66686 13.7254 1.56958C13.7186 1.4723 13.7319 1.37466 13.7645 1.28274C13.797 1.19082 13.8482 1.10658 13.9147 1.03527C13.9812 0.963954 14.0616 0.907096 14.1511 0.868214C14.2405 0.829332 14.337 0.809265 14.4345 0.809265C14.532 0.809265 14.6285 0.829332 14.7179 0.868214C14.8073 0.907096 14.8878 0.963954 14.9543 1.03527C15.0208 1.10658 15.072 1.19082 15.1045 1.28274C15.1371 1.37466 15.1504 1.4723 15.1436 1.56958Z" fill="white"/>
<path d="M17.3416 1.57999C17.3322 1.71828 17.2826 1.8508 17.1988 1.96123C17.1151 2.07167 17.0008 2.15521 16.8702 2.20157C16.7396 2.24793 16.5983 2.25509 16.4636 2.22216C16.329 2.18924 16.2069 2.11767 16.1124 2.01626C16.0179 1.91486 15.9551 1.78804 15.9318 1.65142C15.9084 1.51479 15.9256 1.37432 15.981 1.24729C16.0365 1.12026 16.1278 1.01221 16.2439 0.936446C16.36 0.860681 16.4957 0.820512 16.6343 0.820864C16.8286 0.828059 17.0122 0.911991 17.1448 1.05428C17.2774 1.19657 17.3482 1.38561 17.3416 1.57999Z" fill="white"/>
<path d="M19.5397 1.59031C19.5301 1.72932 19.48 1.86246 19.3954 1.97319C19.3109 2.08392 19.1956 2.16735 19.064 2.21312C18.9324 2.25889 18.7903 2.26499 18.6553 2.23063C18.5202 2.19628 18.3983 2.123 18.3045 2.0199C18.2108 1.91681 18.1495 1.78844 18.1281 1.65076C18.1067 1.51308 18.1263 1.37216 18.1844 1.24551C18.2424 1.11885 18.3364 1.01206 18.4547 0.938398C18.573 0.864736 18.7103 0.827455 18.8495 0.831188C19.0408 0.842769 19.2201 0.928609 19.349 1.07042C19.4779 1.21223 19.5463 1.39878 19.5397 1.59031Z" fill="white"/>
</g>
</svg>
