<svg width="17" height="17" viewBox="0 0 17 17" fill="none" xmlns="http://www.w3.org/2000/svg">
<g clip-path="url(#clip0_0_1379)">
<path d="M11.3478 4.51247C11.1036 4.51203 10.8606 4.54579 10.6258 4.61277L10.6258 4.61276L10.6238 4.61333C10.5496 4.63549 10.4717 4.64264 10.3946 4.63439C10.3175 4.62613 10.2429 4.60263 10.175 4.56526L10.0945 4.71149L10.175 4.56526C10.1071 4.52788 10.0474 4.47737 9.9992 4.41667C9.95102 4.35598 9.9154 4.2863 9.89441 4.2117C9.87342 4.13711 9.86748 4.05908 9.87693 3.98217C9.88639 3.90525 9.91105 3.83098 9.94948 3.76369C9.98791 3.6964 10.0393 3.63742 10.1008 3.5902C10.1622 3.54298 10.2324 3.50845 10.3074 3.48862L10.3074 3.48865L10.3104 3.4878C10.6476 3.39178 10.9967 3.34335 11.3474 3.34394L11.3481 3.34394C12.1361 3.34165 12.9057 3.58227 13.552 4.03303C14.1983 4.4838 14.69 5.12281 14.9602 5.86306C15.2303 6.60331 15.2658 7.40882 15.0617 8.16993C14.8576 8.93104 14.4239 9.61075 13.8196 10.1165L13.6159 10.2871L13.8579 10.3966C14.8506 10.8458 15.7048 11.5528 16.3318 12.444L16.3325 12.445C16.3771 12.5073 16.4088 12.5779 16.4258 12.6525C16.4429 12.7272 16.4449 12.8046 16.4318 12.88C16.4187 12.9555 16.3907 13.0276 16.3495 13.0922C16.3083 13.1568 16.2546 13.2125 16.1917 13.2561L16.1916 13.2561L16.1897 13.2575C16.0922 13.3272 15.9754 13.3645 15.8556 13.3641C15.7619 13.3635 15.6697 13.3407 15.5866 13.2974C15.5035 13.2542 15.4319 13.1918 15.3777 13.1154C14.9225 12.4696 14.3189 11.9425 13.6177 11.5784C12.9164 11.2143 12.138 11.0237 11.3478 11.0229H11.3476C11.1927 11.0229 11.0441 10.9613 10.9345 10.8517C10.8249 10.7422 10.7634 10.5936 10.7634 10.4386C10.7634 10.2836 10.8249 10.135 10.9345 10.0255C11.0441 9.91589 11.1927 9.85433 11.3476 9.85433C12.056 9.85433 12.7354 9.57293 13.2363 9.07204C13.7372 8.57114 14.0186 7.89178 14.0186 7.1834C14.0186 6.47503 13.7372 5.79566 13.2363 5.29477C12.7354 4.7939 12.0561 4.5125 11.3478 4.51247ZM11.3478 4.51247C11.3478 4.51247 11.3479 4.51247 11.348 4.51247L11.3476 4.6794V4.51247C11.3477 4.51247 11.3477 4.51247 11.3478 4.51247ZM8.71739 10.1168L8.51462 10.2874L8.75603 10.3966C9.74872 10.8458 10.6029 11.5528 11.2299 12.444L11.2297 12.4441L11.2348 12.4506C11.2835 12.513 11.319 12.5847 11.3392 12.6612L11.5006 12.6186L11.3392 12.6612C11.3594 12.7377 11.3638 12.8176 11.3522 12.8959C11.3406 12.9742 11.3132 13.0493 11.2717 13.1167C11.2301 13.184 11.1753 13.2423 11.1106 13.2879C11.0459 13.3334 10.9726 13.3654 10.8952 13.3817C10.8177 13.3981 10.7378 13.3986 10.6601 13.3831C10.5825 13.3677 10.5088 13.3366 10.4436 13.2918C10.3783 13.247 10.3228 13.1894 10.2805 13.1225L10.2807 13.1224L10.2761 13.1159C9.82178 12.4688 9.21837 11.9406 8.51685 11.576C7.81534 11.2114 7.03635 11.0211 6.24574 11.0211C5.45513 11.0211 4.67614 11.2114 3.97462 11.576C3.27311 11.9406 2.6697 12.4688 2.2154 13.1159L2.21503 13.1164C2.16162 13.1931 2.09041 13.2557 2.00751 13.2988C1.92461 13.342 1.83248 13.3644 1.73902 13.3641L1.738 13.3641C1.61814 13.3645 1.50118 13.3272 1.40367 13.2575L1.40287 13.2569C1.27648 13.1677 1.19063 13.032 1.16416 12.8796C1.13769 12.7272 1.17276 12.5704 1.26167 12.4438C1.88861 11.5527 2.7428 10.8458 3.73544 10.3966L3.97686 10.2874L3.77408 10.1168C3.17144 9.60983 2.73927 8.92981 2.53616 8.16893C2.33306 7.40805 2.36883 6.60312 2.63865 5.86326C2.90846 5.1234 3.39926 4.4844 4.0445 4.0329C4.68974 3.5814 5.45822 3.33924 6.24574 3.33924C7.03326 3.33924 7.80173 3.5814 8.44698 4.0329C9.09222 4.4844 9.58302 5.1234 9.85283 5.86326C10.1226 6.60312 10.1584 7.40805 9.95531 8.16893C9.7522 8.92981 9.32003 9.60983 8.71739 10.1168ZM1.3066 13.3933C1.43259 13.4834 1.58368 13.5315 1.73854 13.531C1.85899 13.5314 1.97773 13.5025 2.08457 13.4469C2.19142 13.3913 2.28319 13.3106 2.35202 13.2118C2.79092 12.5867 3.37388 12.0764 4.05161 11.7241C4.72934 11.3719 5.48193 11.188 6.24574 11.188C7.00955 11.188 7.76213 11.3719 8.43987 11.7241C9.1176 12.0764 9.70056 12.5867 10.1395 13.2118L1.3066 13.3933ZM4.02494 5.69951C3.73145 6.13874 3.57481 6.65514 3.57481 7.1834C3.57481 7.89178 3.85621 8.57114 4.3571 9.07204C4.858 9.57293 5.53736 9.85433 6.24574 9.85433C6.774 9.85433 7.2904 9.69769 7.72963 9.4042C8.16886 9.11072 8.5112 8.69357 8.71336 8.20552C8.91552 7.71747 8.96841 7.18044 8.86535 6.66233C8.76229 6.14422 8.50791 5.6683 8.13437 5.29477C7.76084 4.92123 7.28492 4.66685 6.76681 4.56379C6.2487 4.46073 5.71167 4.51363 5.22362 4.71578C4.73557 4.91794 4.31843 5.26028 4.02494 5.69951Z" fill="#072F5E" stroke="#072F5E" stroke-width="0.333867"/>
</g>
<defs>
<clipPath id="clip0_0_1379">
<rect width="16.0256" height="16.0256" fill="white" transform="translate(0.736969 0.422577)"/>
</clipPath>
</defs>
</svg>
