<svg width="17" height="17" viewBox="0 0 17 17" fill="none" xmlns="http://www.w3.org/2000/svg">
<path d="M8.14857 3.79135C6.95626 3.79135 5.9856 4.77088 5.9856 5.96828C5.9856 6.72576 6.37457 7.39459 6.96194 7.78445C6.25252 8.02165 5.63867 8.46499 5.18844 9.04497C4.93952 8.8535 4.66139 8.69952 4.36155 8.58918C4.81623 8.25163 5.11335 7.70939 5.11335 7.09996C5.11335 6.08442 4.29202 5.25308 3.28263 5.25308C2.27325 5.25308 1.45191 6.08442 1.45191 7.09996C1.45191 7.70974 1.74928 8.25223 2.20435 8.58978C0.999565 9.03436 0.139122 10.1983 0.139122 11.5682V12.5305C0.139245 12.6038 0.168588 12.6741 0.220615 12.7257C0.272642 12.7775 0.343041 12.8064 0.416397 12.8061H4.63813C4.64836 12.8072 4.65859 12.8079 4.66883 12.8077H11.6286C11.6388 12.8079 11.6491 12.8072 11.6593 12.8061H15.8813C16.0331 12.8055 16.156 12.6823 16.1564 12.5305V11.5682C16.1564 10.1983 15.2974 9.03436 14.0932 8.58966C14.5483 8.25223 14.8457 7.70961 14.8457 7.09984C14.8457 6.0843 14.0243 5.25295 13.015 5.25295C12.0056 5.25295 11.1842 6.0843 11.1842 7.09984C11.1842 7.70927 11.4815 8.2516 11.9362 8.58906C11.6357 8.69965 11.3575 8.85413 11.1082 9.04607C10.6582 8.46574 10.0452 8.02179 9.33578 7.78445C9.92299 7.39459 10.3121 6.72576 10.3121 5.96828C10.3121 4.77088 9.34096 3.79135 8.14864 3.79135H8.14857ZM8.14857 4.34369C9.04033 4.34369 9.75921 5.0674 9.75921 5.96828C9.75921 6.86211 9.05153 7.57879 8.16966 7.59028C8.16263 7.59028 8.15573 7.58929 8.14857 7.58929C8.14142 7.58929 8.13464 7.59028 8.12749 7.59028C7.24562 7.57893 6.53841 6.86214 6.53841 5.96828C6.53841 5.06728 7.2567 4.34369 8.14845 4.34369H8.14857ZM3.28266 5.80538C3.99022 5.80538 4.56105 6.37965 4.56105 7.09993C4.56105 7.81538 3.99761 8.38719 3.29671 8.39495C3.29202 8.39495 3.28746 8.39446 3.28265 8.39446C3.27797 8.39446 3.27341 8.39495 3.2686 8.39495C2.5677 8.38718 2.00426 7.81525 2.00426 7.09993C2.00426 6.37969 2.57509 5.80538 3.28264 5.80538H3.28266ZM13.0148 5.80538C13.7224 5.80538 14.2932 6.37965 14.2932 7.09993C14.2932 7.81538 13.7297 8.38719 13.0288 8.39495C13.0242 8.39495 13.0196 8.39446 13.0148 8.39446C13.0101 8.39446 13.0055 8.39495 13.0007 8.39495C12.2998 8.38718 11.7364 7.81525 11.7364 7.09993C11.7364 6.37969 12.3072 5.80538 13.0148 5.80538H13.0148ZM8.12743 8.14258C8.13445 8.1427 8.14136 8.14357 8.14851 8.14357C8.15554 8.14357 8.16244 8.14258 8.16959 8.14258C9.93817 8.15392 11.3536 9.58149 11.3536 11.3685L11.3534 12.2552H4.94383V11.3685C4.94383 9.58133 6.35882 8.15394 8.12718 8.14258H8.12743ZM3.26152 8.94792C3.26854 8.94804 3.27545 8.9489 3.2826 8.9489C3.28975 8.9489 3.29653 8.94792 3.30368 8.94792C3.90188 8.95272 4.4478 9.15899 4.88251 9.50407C4.57145 10.0544 4.39156 10.6897 4.39156 11.3687V12.2533H0.691234V11.5682C0.691234 10.1158 1.83315 8.95925 3.26145 8.94779L3.26152 8.94792ZM12.9937 8.94792C13.0008 8.94804 13.0076 8.9489 13.0147 8.9489C13.0219 8.9489 13.0287 8.94792 13.0358 8.94792C14.4641 8.95926 15.606 10.116 15.606 11.5683V12.2533H11.9038L11.9037 11.3687C11.9037 10.6901 11.7243 10.0553 11.4139 9.50505C11.8487 9.15948 12.395 8.95271 12.9937 8.94792H12.9937Z" fill="#263238"/>
</svg>
