<svg width="23" height="20" viewBox="0 0 23 20" fill="none" xmlns="http://www.w3.org/2000/svg">
<path d="M22.6286 13.1396C22.6286 16.4586 19.938 19.1492 16.619 19.1492L7.60461 19.1492C6.68266 19.1492 5.93527 18.4018 5.93527 17.4799L5.93528 6.1284C5.93528 4.28451 7.43005 2.78974 9.27394 2.78974L20.9593 2.78974C21.8812 2.78974 22.6286 3.53713 22.6286 4.45907L22.6286 13.1396Z" fill="#E8F5E9"/>
<path d="M10.3796 8.3469C10.2992 8.3469 10.2246 8.32479 10.1583 8.28924V8.29019C10.1583 8.41667 10.1091 8.53545 10.0199 8.62441C9.93072 8.71361 9.81203 8.76277 9.68569 8.76277C9.60412 8.76277 9.52853 8.74012 9.46151 8.70362C9.45475 8.81933 9.4085 8.92748 9.32598 9.01008C9.23679 9.09928 9.1181 9.14844 8.99168 9.14844C8.74052 9.14844 8.53655 8.95101 8.52185 8.70354C8.44414 8.74554 8.35628 8.76757 8.26566 8.76175C8.01858 8.74554 7.82509 8.53207 7.82509 8.27563V6.15002L7.58305 6.56934C7.49086 6.72973 7.31829 6.82931 7.13249 6.82931C7.04196 6.82931 6.95252 6.80555 6.87332 6.76017C6.77468 6.70298 6.70412 6.61119 6.67478 6.50137C6.64529 6.39149 6.66055 6.27657 6.71757 6.17808C6.71765 6.17808 7.5095 4.80682 7.55781 4.72259C7.56355 4.70993 7.57991 4.6732 7.59384 4.64189C7.60713 4.612 7.61854 4.58132 7.62947 4.55049C7.86827 3.87632 8.45956 3.45754 9.17267 3.45754C10.0987 3.45754 10.8521 4.27448 10.8521 5.27864L10.8522 7.87424C10.8522 8.00057 10.8031 8.11926 10.714 8.20855C10.6248 8.29775 10.5061 8.34691 10.3796 8.34691L10.3796 8.3469ZM9.17268 3.70865C8.55992 3.70865 8.07153 4.05476 7.86616 4.63447C7.85302 4.67128 7.83934 4.70809 7.82337 4.74396C7.77704 4.84787 7.77704 4.84787 7.76398 4.86281L7.76225 4.86132C7.6976 4.98332 7.50551 5.31596 6.935 6.30376C6.91156 6.34427 6.90535 6.39131 6.91731 6.4363C6.92942 6.48129 6.95845 6.5192 6.99864 6.54241C7.12339 6.61406 7.29424 6.56781 7.36535 6.44393L7.84194 5.61879C7.87041 5.56963 7.92799 5.54548 7.98321 5.56043C8.03811 5.57514 8.07626 5.62493 8.07626 5.68172V8.27571C8.07626 8.3981 8.1686 8.50373 8.28212 8.5112C8.34756 8.51466 8.4086 8.49272 8.45446 8.44694C8.49614 8.40525 8.51911 8.34972 8.51911 8.29033V6.59383C8.51911 6.52445 8.57535 6.46821 8.64473 6.46821C8.71411 6.46821 8.77035 6.52437 8.77035 6.59383L8.77027 8.67594C8.77027 8.79802 8.86961 8.89737 8.99169 8.89737C9.051 8.89737 9.10669 8.8744 9.14846 8.83271C9.19015 8.79094 9.21311 8.73525 9.21311 8.67594V6.59383C9.21311 6.52445 9.26928 6.46821 9.33873 6.46821C9.40811 6.46821 9.46435 6.52437 9.46435 6.59383L9.46427 8.27082V8.29032C9.46427 8.41232 9.56361 8.51166 9.68577 8.51166C9.745 8.51166 9.80053 8.48862 9.84254 8.44677C9.88423 8.40516 9.90719 8.34963 9.90719 8.29024V6.59374C9.90719 6.52436 9.96336 6.46812 10.0328 6.46812C10.1022 6.46812 10.1584 6.52428 10.1584 6.59374L10.1583 7.8743C10.1583 7.99646 10.2576 8.0958 10.3796 8.0958C10.439 8.0958 10.4945 8.07276 10.5362 8.03115C10.5781 7.9893 10.601 7.93361 10.601 7.8743L10.601 5.2787C10.601 4.41308 9.96029 3.70868 9.17267 3.70868L9.17268 3.70865Z" fill="#263238"/>
<path d="M5.44422 10.1509L7.26704 9.05738C7.48681 8.92539 7.76958 8.98147 7.91054 9.18512C7.96198 9.25929 7.98825 9.34574 7.99234 9.43376C8.0603 9.39829 8.13424 9.37902 8.20952 9.37902C8.24806 9.37902 8.28676 9.38381 8.32499 9.39333C8.44746 9.42393 8.55066 9.50046 8.61556 9.60869C8.68053 9.71708 8.69949 9.84411 8.66889 9.96644C8.64065 10.0796 8.57182 10.1749 8.47609 10.2403C8.54303 10.2797 8.60077 10.3336 8.64183 10.4022C8.7068 10.5106 8.72576 10.6376 8.69524 10.76C8.66464 10.8824 8.5881 10.9855 8.47972 11.0506L8.47909 11.051C8.54484 11.0904 8.60156 11.1437 8.64215 11.2113C8.7072 11.3197 8.72615 11.4467 8.69555 11.5692C8.66488 11.6916 8.58834 11.7948 8.48011 11.8598L6.25442 13.195C5.83903 13.4441 5.35881 13.5301 4.90244 13.4369C4.44198 13.3428 4.06063 13.0781 3.82876 12.6916C3.46181 12.08 3.51681 11.3575 3.972 10.806C3.99284 10.7808 4.01337 10.7552 4.03201 10.7286C4.05176 10.7005 4.0748 10.6675 4.08267 10.6561C4.12979 10.572 4.8986 9.18679 4.89852 9.18695C4.97616 9.04686 5.12167 8.96757 5.27175 8.96765C5.34176 8.96765 5.41279 8.98487 5.47831 9.02121C5.55744 9.06542 5.62391 9.12984 5.6704 9.20748C5.76597 9.36676 5.76935 9.56609 5.67936 9.7274L5.44422 10.1509ZM5.45515 9.33661C5.43077 9.29594 5.39726 9.26354 5.35628 9.24057C5.27156 9.19369 5.1649 9.22421 5.11827 9.30861C4.56814 10.2997 4.3806 10.6375 4.30823 10.7577L4.30989 10.758C4.30383 10.7782 4.30383 10.7782 4.2376 10.8728C4.2151 10.9048 4.19064 10.9356 4.16571 10.9659C3.77429 11.4401 3.72884 12.0369 4.04402 12.5624C4.23925 12.8879 4.56191 13.111 4.9526 13.1908C5.34754 13.2711 5.7638 13.1964 6.12509 12.9796L8.35098 11.6443C8.40179 11.6139 8.43766 11.5655 8.45198 11.5081C8.46629 11.4509 8.4574 11.3913 8.42688 11.3405C8.36411 11.2359 8.2278 11.2015 8.12318 11.2645L7.02512 11.9233C6.96566 11.959 6.88841 11.9398 6.85278 11.8803C6.81707 11.8208 6.83634 11.7436 6.89581 11.7079L7.99395 11.0492L8.35059 10.8352C8.4014 10.8047 8.43735 10.7563 8.45166 10.6991C8.46598 10.6418 8.45709 10.5822 8.42657 10.5314C8.36372 10.4268 8.22741 10.3927 8.12287 10.4555L6.66809 11.3282C6.60847 11.364 6.53146 11.3446 6.49575 11.2852C6.46004 11.2257 6.47939 11.1485 6.53878 11.1128L8.32424 10.0417C8.37505 10.0112 8.41092 9.96291 8.42524 9.90557C8.43955 9.84831 8.43066 9.78877 8.40022 9.73795C8.36978 9.68722 8.32141 9.65135 8.26407 9.63703C8.20641 9.62272 8.1471 9.63161 8.09645 9.66197L7.76592 9.86027C7.76585 9.86027 7.76585 9.86035 7.76577 9.86035H7.76569L6.31099 10.7331C6.25136 10.7689 6.17428 10.7496 6.13865 10.69C6.10294 10.6306 6.12229 10.5534 6.18167 10.5177L7.63645 9.64498C7.68727 9.61446 7.72321 9.56609 7.73753 9.5089C7.75326 9.44613 7.7413 9.38195 7.70402 9.32815C7.63936 9.23462 7.50108 9.20976 7.39623 9.27277L5.17196 10.6071C5.12327 10.6362 5.06089 10.6292 5.02007 10.5898C4.97916 10.5503 4.96996 10.4882 4.99749 10.4386L5.46001 9.60526C5.50641 9.52196 5.5046 9.41908 5.45513 9.33664L5.45515 9.33661Z" fill="#263238"/>
<path d="M14.1545 12.6915C13.9227 13.0781 13.5414 13.3427 13.0809 13.4368C12.6244 13.5298 12.1444 13.444 11.7289 13.1949L9.50301 11.8596C9.3947 11.7946 9.31808 11.6914 9.28741 11.5689C9.25697 11.4466 9.276 11.3195 9.34089 11.2113C9.3814 11.1437 9.43819 11.0903 9.50403 11.0509L9.5034 11.0505C9.39509 10.9856 9.31848 10.8824 9.28796 10.76C9.25729 10.6376 9.27632 10.5104 9.34129 10.4021C9.38314 10.3325 9.44048 10.278 9.50592 10.2394C9.4109 10.174 9.34247 10.0791 9.31431 9.96645C9.28364 9.84398 9.30267 9.71694 9.36764 9.60871C9.43254 9.5004 9.53582 9.42386 9.65821 9.39327C9.69644 9.38367 9.73522 9.37895 9.77361 9.37895C9.84896 9.37903 9.9229 9.39814 9.99086 9.4337C9.99503 9.34568 10.0212 9.25923 10.0727 9.18505C10.2137 8.98157 10.4962 8.92525 10.7163 9.05731L12.5391 10.1507L12.3041 9.72747C12.214 9.56591 12.2173 9.36659 12.3129 9.20723C12.3594 9.12967 12.426 9.06525 12.5055 9.02065C12.5709 8.98447 12.6417 8.96732 12.7115 8.96732C12.8615 8.9674 13.0072 9.04653 13.0847 9.18663C13.355 9.67361 13.865 10.592 13.9009 10.6561C13.9085 10.6672 13.9316 10.7003 13.9513 10.7283C13.9701 10.755 13.9904 10.7805 14.0114 10.8058C14.4665 11.3575 14.5214 12.08 14.1545 12.6915L14.1545 12.6915ZM13.8176 10.9659C13.7926 10.9356 13.768 10.9047 13.7457 10.8728C13.6777 10.7764 13.676 10.7739 13.6709 10.7486C13.5915 10.6172 13.3977 10.2683 12.8649 9.30848C12.8182 9.22424 12.712 9.19348 12.6274 9.2402C12.5858 9.26349 12.5524 9.29597 12.528 9.33664C12.4786 9.41899 12.4767 9.52188 12.5234 9.60542L12.9857 10.4385C13.0133 10.4882 13.0041 10.5502 12.9633 10.5897C12.9226 10.6292 12.8603 10.6362 12.8113 10.6071L10.5871 9.27269C10.4822 9.20984 10.344 9.23446 10.2792 9.32806C10.2419 9.38187 10.23 9.44605 10.2456 9.50874C10.2599 9.56601 10.2959 9.6143 10.3468 9.64482C10.3469 9.6449 10.347 9.64506 10.3471 9.64514L11.8015 10.5176C11.8609 10.5533 11.8802 10.6304 11.8445 10.69C11.8088 10.7493 11.7318 10.7688 11.6722 10.733L9.88669 9.6619C9.83603 9.63153 9.77641 9.62257 9.71914 9.63696C9.66172 9.65128 9.61343 9.68714 9.58299 9.73804C9.55247 9.78877 9.54366 9.84831 9.55782 9.90558C9.57213 9.96284 9.60808 10.0112 9.65889 10.0417L10.0063 10.2501L11.4443 11.1128C11.5037 11.1485 11.523 11.2256 11.4873 11.2852C11.4516 11.3446 11.3746 11.3639 11.315 11.3282L9.86034 10.4555C9.75572 10.3926 9.61949 10.4267 9.55656 10.5315C9.52604 10.5823 9.51723 10.6418 9.53139 10.6991C9.54571 10.7564 9.58165 10.8046 9.63254 10.8352L9.98918 11.0492L11.0872 11.708C11.1466 11.7437 11.1659 11.8208 11.1302 11.8803C11.0945 11.9397 11.0175 11.9592 10.9579 11.9233L9.85987 11.2646C9.80921 11.2342 9.74982 11.2252 9.69225 11.2396C9.63498 11.2539 9.58653 11.2898 9.55609 11.3405C9.52565 11.3914 9.51676 11.451 9.53092 11.5082C9.54523 11.5654 9.58118 11.6137 9.63207 11.6443L11.858 12.9796C12.2192 13.1963 12.6357 13.2714 13.0305 13.1908C13.4211 13.111 13.7437 12.8879 13.9389 12.5624C14.2544 12.0368 14.2091 11.44 13.8177 10.9659L13.8176 10.9659Z" fill="#263238"/>
</svg>
