<svg width="17" height="17" viewBox="0 0 17 17" fill="none" xmlns="http://www.w3.org/2000/svg">
<path d="M14.0917 14.7997V13.4642C14.0917 12.7558 13.8102 12.0764 13.3094 11.5756C12.8085 11.0747 12.1291 10.7933 11.4207 10.7933H10.753C10.5759 10.7933 10.4061 10.7229 10.2808 10.5977C10.1556 10.4725 10.0853 10.3026 10.0853 10.1255V6.78685C10.0853 6.43267 9.94455 6.09299 9.6941 5.84254C9.44365 5.59209 9.10397 5.45139 8.74979 5.45139C8.3956 5.45139 8.05592 5.59209 7.80547 5.84254C7.55502 6.09299 7.41432 6.43267 7.41432 6.78685V12.7965L5.81176 10.6597C5.68737 10.4938 5.52606 10.3592 5.34063 10.2665C5.15519 10.1738 4.95071 10.1255 4.74339 10.1255H4.45359C3.876 10.1255 3.40792 10.5936 3.40792 11.1712C3.40792 11.3608 3.45934 11.5471 3.55683 11.7094L5.41112 14.7997M8.74979 3.44819V2.78046V3.44819ZM12.7562 7.45459H13.4239H12.7562ZM4.07565 7.45459H4.74339H4.07565ZM5.64015 4.34496L5.16807 3.87287L5.64015 4.34496ZM11.8594 4.34496L12.3315 3.87287L11.8594 4.34496Z" fill="#072F5E"/>
<path d="M14.0917 14.7997V13.4642C14.0917 12.7558 13.8102 12.0764 13.3094 11.5756C12.8085 11.0747 12.1291 10.7933 11.4207 10.7933H10.753C10.5759 10.7933 10.4061 10.7229 10.2808 10.5977C10.1556 10.4725 10.0853 10.3026 10.0853 10.1255V6.78685C10.0853 6.43267 9.94455 6.09299 9.6941 5.84254C9.44365 5.59209 9.10397 5.45139 8.74979 5.45139V5.45139C8.3956 5.45139 8.05592 5.59209 7.80547 5.84254C7.55502 6.09299 7.41432 6.43267 7.41432 6.78685V12.7965L5.81176 10.6597C5.68737 10.4938 5.52606 10.3592 5.34063 10.2665C5.15519 10.1738 4.95071 10.1255 4.74339 10.1255H4.45359C3.876 10.1255 3.40792 10.5936 3.40792 11.1712C3.40792 11.3608 3.45934 11.5471 3.55683 11.7094L5.41112 14.7997M8.74979 3.44819V2.78046M12.7562 7.45459H13.4239M4.07565 7.45459H4.74339M5.64015 4.34496L5.16807 3.87287M11.8594 4.34496L12.3315 3.87287" stroke="#072F5E" stroke-width="0.667733" stroke-linecap="round" stroke-linejoin="round"/>
</svg>
