<svg width="17" height="17" viewBox="0 0 17 17" fill="none" xmlns="http://www.w3.org/2000/svg">
<mask id="path-1-inside-1_0_1385" fill="white">
<path d="M10.3412 8.31675C10.2608 8.31675 10.1862 8.29464 10.1199 8.25909V8.26003C10.1199 8.38652 10.0707 8.5053 9.98151 8.59426C9.89231 8.68346 9.77362 8.73262 9.64729 8.73262C9.56572 8.73262 9.49013 8.70997 9.42311 8.67347C9.41634 8.78917 9.37009 8.89733 9.28758 8.97993C9.19838 9.06912 9.07969 9.11829 8.95327 9.11829C8.70211 9.11829 8.49815 8.92085 8.48345 8.67339C8.40573 8.71539 8.31787 8.73742 8.22725 8.7316C7.98018 8.71539 7.78668 8.50192 7.78668 8.24548V6.11987L7.54464 6.53919C7.45246 6.69958 7.27989 6.79916 7.09409 6.79916C7.00355 6.79916 6.91412 6.7754 6.83491 6.73002C6.73627 6.67283 6.66572 6.58104 6.63638 6.47122C6.60688 6.36134 6.62214 6.24642 6.67917 6.14793C6.67925 6.14793 7.4711 4.77667 7.5194 4.69244C7.52515 4.67978 7.54151 4.64304 7.55543 4.61174C7.56872 4.58185 7.58013 4.55117 7.59106 4.52034C7.82986 3.84617 8.42115 3.42739 9.13426 3.42739C10.0603 3.42739 10.8137 4.24433 10.8137 5.24849L10.8138 7.84409C10.8138 7.97041 10.7647 8.08911 10.6756 8.1784C10.5864 8.2676 10.4677 8.31676 10.3412 8.31676L10.3412 8.31675ZM9.13427 3.6785C8.52152 3.6785 8.03313 4.02461 7.82775 4.60432C7.81462 4.64113 7.80093 4.67794 7.78496 4.71381C7.73863 4.81772 7.73863 4.81772 7.72558 4.83266L7.72385 4.83117C7.65919 4.95317 7.46711 5.28581 6.8966 6.27361C6.87316 6.31412 6.86694 6.36115 6.8789 6.40615C6.89101 6.45114 6.92004 6.48905 6.96023 6.51225C7.08499 6.58391 7.25584 6.53766 7.32694 6.41378L7.80353 5.58864C7.83201 5.53948 7.88958 5.51533 7.9448 5.53028C7.9997 5.54499 8.03785 5.59478 8.03785 5.65157V8.24555C8.03785 8.36795 8.1302 8.47358 8.24371 8.48105C8.30915 8.48451 8.37019 8.46257 8.41605 8.41679C8.45774 8.3751 8.48071 8.31957 8.48071 8.26018V6.56368C8.48071 6.4943 8.53695 6.43806 8.60632 6.43806C8.6757 6.43806 8.73194 6.49422 8.73194 6.56368L8.73186 8.64579C8.73186 8.76787 8.83121 8.86721 8.95328 8.86721C9.01259 8.86721 9.06828 8.84425 9.11005 8.80256C9.15174 8.76079 9.17471 8.7051 9.17471 8.64579V6.56368C9.17471 6.4943 9.23087 6.43806 9.30032 6.43806C9.3697 6.43806 9.42594 6.49422 9.42594 6.56368L9.42586 8.24066V8.26017C9.42586 8.38217 9.52521 8.48151 9.64736 8.48151C9.70659 8.48151 9.76213 8.45847 9.80413 8.41662C9.84582 8.37501 9.86879 8.31948 9.86879 8.26009V6.56359C9.86879 6.49421 9.92495 6.43797 9.99441 6.43797C10.0638 6.43797 10.12 6.49413 10.12 6.56359L10.1199 7.84415C10.1199 7.96631 10.2192 8.06565 10.3412 8.06565C10.4006 8.06565 10.4561 8.04261 10.4978 8.001C10.5397 7.95915 10.5625 7.90346 10.5625 7.84415L10.5626 5.24855C10.5626 4.38292 9.92188 3.67853 9.13426 3.67853L9.13427 3.6785Z"/>
</mask>
<path d="M10.3412 8.31675C10.2608 8.31675 10.1862 8.29464 10.1199 8.25909V8.26003C10.1199 8.38652 10.0707 8.5053 9.98151 8.59426C9.89231 8.68346 9.77362 8.73262 9.64729 8.73262C9.56572 8.73262 9.49013 8.70997 9.42311 8.67347C9.41634 8.78917 9.37009 8.89733 9.28758 8.97993C9.19838 9.06912 9.07969 9.11829 8.95327 9.11829C8.70211 9.11829 8.49815 8.92085 8.48345 8.67339C8.40573 8.71539 8.31787 8.73742 8.22725 8.7316C7.98018 8.71539 7.78668 8.50192 7.78668 8.24548V6.11987L7.54464 6.53919C7.45246 6.69958 7.27989 6.79916 7.09409 6.79916C7.00355 6.79916 6.91412 6.7754 6.83491 6.73002C6.73627 6.67283 6.66572 6.58104 6.63638 6.47122C6.60688 6.36134 6.62214 6.24642 6.67917 6.14793C6.67925 6.14793 7.4711 4.77667 7.5194 4.69244C7.52515 4.67978 7.54151 4.64304 7.55543 4.61174C7.56872 4.58185 7.58013 4.55117 7.59106 4.52034C7.82986 3.84617 8.42115 3.42739 9.13426 3.42739C10.0603 3.42739 10.8137 4.24433 10.8137 5.24849L10.8138 7.84409C10.8138 7.97041 10.7647 8.08911 10.6756 8.1784C10.5864 8.2676 10.4677 8.31676 10.3412 8.31676L10.3412 8.31675ZM9.13427 3.6785C8.52152 3.6785 8.03313 4.02461 7.82775 4.60432C7.81462 4.64113 7.80093 4.67794 7.78496 4.71381C7.73863 4.81772 7.73863 4.81772 7.72558 4.83266L7.72385 4.83117C7.65919 4.95317 7.46711 5.28581 6.8966 6.27361C6.87316 6.31412 6.86694 6.36115 6.8789 6.40615C6.89101 6.45114 6.92004 6.48905 6.96023 6.51225C7.08499 6.58391 7.25584 6.53766 7.32694 6.41378L7.80353 5.58864C7.83201 5.53948 7.88958 5.51533 7.9448 5.53028C7.9997 5.54499 8.03785 5.59478 8.03785 5.65157V8.24555C8.03785 8.36795 8.1302 8.47358 8.24371 8.48105C8.30915 8.48451 8.37019 8.46257 8.41605 8.41679C8.45774 8.3751 8.48071 8.31957 8.48071 8.26018V6.56368C8.48071 6.4943 8.53695 6.43806 8.60632 6.43806C8.6757 6.43806 8.73194 6.49422 8.73194 6.56368L8.73186 8.64579C8.73186 8.76787 8.83121 8.86721 8.95328 8.86721C9.01259 8.86721 9.06828 8.84425 9.11005 8.80256C9.15174 8.76079 9.17471 8.7051 9.17471 8.64579V6.56368C9.17471 6.4943 9.23087 6.43806 9.30032 6.43806C9.3697 6.43806 9.42594 6.49422 9.42594 6.56368L9.42586 8.24066V8.26017C9.42586 8.38217 9.52521 8.48151 9.64736 8.48151C9.70659 8.48151 9.76213 8.45847 9.80413 8.41662C9.84582 8.37501 9.86879 8.31948 9.86879 8.26009V6.56359C9.86879 6.49421 9.92495 6.43797 9.99441 6.43797C10.0638 6.43797 10.12 6.49413 10.12 6.56359L10.1199 7.84415C10.1199 7.96631 10.2192 8.06565 10.3412 8.06565C10.4006 8.06565 10.4561 8.04261 10.4978 8.001C10.5397 7.95915 10.5625 7.90346 10.5625 7.84415L10.5626 5.24855C10.5626 4.38292 9.92188 3.67853 9.13426 3.67853L9.13427 3.6785Z" fill="#072F5E"/>
<path d="M10.3412 8.31675V7.87159H11.914L10.5745 8.69587L10.3412 8.31675ZM10.1199 8.25909H9.67472V7.51529L10.3302 7.86677L10.1199 8.25909ZM9.98151 8.59426L9.66674 8.27949L9.66716 8.27907L9.98151 8.59426ZM9.42311 8.67347L8.97871 8.64749L9.01967 7.94688L9.63601 8.28252L9.42311 8.67347ZM9.28758 8.97993L9.60252 9.29453L9.60235 9.2947L9.28758 8.97993ZM8.48345 8.67339L8.27179 8.28177L8.88639 7.9496L8.92782 8.64699L8.48345 8.67339ZM8.22725 8.7316L8.19871 9.17584L8.19812 9.1758L8.22725 8.7316ZM7.78668 6.11987L7.40115 5.89733L8.23184 4.4582V6.11987H7.78668ZM7.54464 6.53919L7.1587 6.31736L7.1591 6.31665L7.54464 6.53919ZM6.83491 6.73002L6.61359 7.11626L6.61164 7.11513L6.83491 6.73002ZM6.63638 6.47122L7.06631 6.35582L7.06645 6.35631L6.63638 6.47122ZM6.67917 6.14793L6.29393 5.92487L6.42253 5.70277H6.67917V6.14793ZM7.5194 4.69244L7.92483 4.87627L7.91609 4.89555L7.90556 4.91391L7.5194 4.69244ZM7.55543 4.61174L7.14868 4.43085L7.14869 4.43085L7.55543 4.61174ZM7.59106 4.52034L8.01067 4.66897L8.01063 4.66909L7.59106 4.52034ZM10.8137 5.24849L10.3685 5.24851V5.24849H10.8137ZM10.8138 7.84409L11.2589 7.84408V7.84409H10.8138ZM10.6756 8.1784L10.9906 8.49288L10.9903 8.49317L10.6756 8.1784ZM10.3412 8.31676V8.76191H8.76844L10.1079 7.93764L10.3412 8.31676ZM9.13427 3.6785V3.23335H9.72443L9.5623 3.8008L9.13427 3.6785ZM7.82775 4.60432L8.24736 4.75297L8.24702 4.75393L7.82775 4.60432ZM7.78496 4.71381L8.19164 4.89486L8.19154 4.89509L7.78496 4.71381ZM7.72558 4.83266L8.0608 5.12556L7.76958 5.45886L7.43461 5.16957L7.72558 4.83266ZM7.72385 4.83117L7.33052 4.62271L7.59208 4.12918L8.01481 4.49426L7.72385 4.83117ZM6.8966 6.27361L7.28208 6.49624L7.28189 6.49656L6.8966 6.27361ZM6.8789 6.40615L6.44905 6.52187L6.44868 6.52048L6.8789 6.40615ZM6.96023 6.51225L6.73851 6.89826L6.73768 6.89778L6.96023 6.51225ZM7.32694 6.41378L6.94085 6.19219L6.94146 6.19113L7.32694 6.41378ZM7.80353 5.58864L7.41806 5.36599L7.41833 5.36553L7.80353 5.58864ZM7.9448 5.53028L7.8296 5.96027L7.8285 5.95997L7.9448 5.53028ZM8.24371 8.48105L8.2202 8.92562L8.21447 8.92524L8.24371 8.48105ZM8.41605 8.41679L8.73082 8.73156L8.73055 8.73183L8.41605 8.41679ZM8.73194 6.56368H9.1771V6.56369L8.73194 6.56368ZM8.73186 8.64579H8.28671V8.64578L8.73186 8.64579ZM9.11005 8.80256L9.42512 9.11703L9.42452 9.11763L9.11005 8.80256ZM9.42594 6.56368H9.8711V6.5637L9.42594 6.56368ZM9.42586 8.24066H8.98071V8.24064L9.42586 8.24066ZM9.80413 8.41662L10.1186 8.73169L10.1183 8.73198L9.80413 8.41662ZM10.12 6.56359H10.5652V6.56364L10.12 6.56359ZM10.1199 7.84415H9.67471L9.67471 7.84409L10.1199 7.84415ZM10.4978 8.001L10.8126 8.31577L10.8123 8.31606L10.4978 8.001ZM10.5625 7.84415H10.1174V7.84414L10.5625 7.84415ZM10.5626 5.24855H11.0078V5.24857L10.5626 5.24855ZM9.13426 3.67853V4.12368H8.54411L8.70624 3.55623L9.13426 3.67853ZM10.3412 8.7619C10.1773 8.7619 10.031 8.71653 9.90951 8.65141L10.3302 7.86677C10.336 7.86986 10.3396 7.87104 10.3411 7.87143C10.3423 7.87176 10.3422 7.87159 10.3412 7.87159V8.7619ZM10.565 8.25909V8.26003H9.67472V8.25909H10.565ZM10.565 8.26003C10.565 8.50421 10.4692 8.73657 10.2959 8.90945L9.66716 8.27907C9.67034 8.2759 9.67191 8.27318 9.67283 8.27096C9.67376 8.26873 9.67472 8.2653 9.67472 8.26003H10.565ZM10.2963 8.90903C10.1235 9.08178 9.89159 9.17777 9.64729 9.17777V8.28746C9.65239 8.28746 9.65576 8.28654 9.65804 8.28559C9.66032 8.28465 9.66326 8.28296 9.66674 8.27949L10.2963 8.90903ZM9.64729 9.17777C9.48123 9.17777 9.33306 9.13132 9.21021 9.06441L9.63601 8.28252C9.6418 8.28568 9.64548 8.28688 9.64694 8.28728C9.64818 8.28762 9.64808 8.28746 9.64729 8.28746V9.17777ZM9.8675 8.69945C9.85469 8.91856 9.76581 9.13107 9.60252 9.29453L8.97264 8.66532C8.97429 8.66366 8.97525 8.6622 8.97606 8.66037C8.97693 8.65836 8.97831 8.65428 8.97871 8.64749L9.8675 8.69945ZM9.60235 9.2947C9.42957 9.46748 9.19761 9.56344 8.95327 9.56344V8.67313C8.95845 8.67313 8.96184 8.67219 8.96412 8.67125C8.96639 8.67031 8.96933 8.66863 8.97281 8.66515L9.60235 9.2947ZM8.95327 9.56344C8.46182 9.56344 8.06747 9.17773 8.03907 8.69979L8.92782 8.64699C8.92827 8.65457 8.93137 8.66121 8.93685 8.66643C8.93952 8.66898 8.94223 8.67062 8.94459 8.67159C8.94666 8.67244 8.9493 8.67313 8.95327 8.67313V9.56344ZM8.69511 9.06501C8.55132 9.14272 8.38083 9.18754 8.19871 9.17584L8.25579 8.28736C8.2558 8.28736 8.25675 8.28745 8.25909 8.2869C8.2616 8.28632 8.26596 8.28492 8.27179 8.28177L8.69511 9.06501ZM8.19812 9.1758C7.70385 9.14338 7.34153 8.72305 7.34153 8.24548H8.23184C8.23184 8.26053 8.2373 8.27212 8.24416 8.27968C8.25083 8.28705 8.25536 8.28733 8.25638 8.2874L8.19812 9.1758ZM7.34153 8.24548V6.11987H8.23184V8.24548H7.34153ZM8.17222 6.34241L7.93018 6.76173L7.1591 6.31665L7.40115 5.89733L8.17222 6.34241ZM7.93059 6.76103C7.75857 7.06029 7.43839 7.24431 7.09409 7.24431V6.354C7.12138 6.354 7.14634 6.33886 7.1587 6.31736L7.93059 6.76103ZM7.09409 7.24431C6.92575 7.24431 6.76004 7.20017 6.61359 7.11626L7.05623 6.34377C7.0682 6.35063 7.08136 6.354 7.09409 6.354V7.24431ZM6.61164 7.11513C6.41178 6.99926 6.26631 6.81071 6.20631 6.58613L7.06645 6.35631C7.06604 6.35479 7.06493 6.35211 7.06279 6.34931C7.06066 6.34654 7.05869 6.3452 7.05818 6.3449L6.61164 7.11513ZM6.20644 6.58663C6.1462 6.36222 6.17774 6.12553 6.29393 5.92487L7.0644 6.37099C7.06504 6.3699 7.06615 6.36736 7.06663 6.36376C7.0671 6.36015 7.0667 6.35727 7.06631 6.35582L6.20644 6.58663ZM6.67917 5.70277C6.4608 5.76001 6.29736 5.91906 6.29613 5.92111C6.29573 5.92179 6.29512 5.92282 6.29493 5.92315C6.29482 5.92334 6.29463 5.92367 6.29457 5.92378C6.29453 5.92385 6.29444 5.92399 6.29442 5.92402C6.29436 5.92413 6.29438 5.92409 6.29455 5.9238C6.29485 5.92328 6.29536 5.92241 6.2961 5.92113C6.29756 5.9186 6.29976 5.9148 6.30266 5.90978C6.30845 5.89975 6.31697 5.885 6.32785 5.86618C6.34959 5.82854 6.38071 5.77466 6.4182 5.70973C6.4932 5.57987 6.59369 5.40585 6.69569 5.22919C6.90003 4.87527 7.10952 4.51235 7.13325 4.47098L7.90556 4.91391C7.88098 4.95676 7.67039 5.32158 7.46671 5.67436C7.3647 5.85104 7.26419 6.02509 7.18918 6.15498C7.15168 6.21992 7.12054 6.27383 7.09878 6.31151C7.0879 6.33034 7.07935 6.34514 7.07351 6.35524C7.0706 6.36028 7.06834 6.36419 7.0668 6.36686C7.06603 6.36818 7.0654 6.36927 7.06494 6.37007C7.06473 6.37044 7.06446 6.3709 7.0642 6.37134C7.06411 6.3715 7.06382 6.37199 7.06348 6.37258C7.06326 6.37295 7.06264 6.37401 7.06222 6.37472C7.06099 6.37679 6.89753 6.53585 6.67917 6.59308V5.70277ZM7.11398 4.50861C7.11888 4.49781 7.1344 4.46296 7.14868 4.43085L7.96218 4.79263C7.94861 4.82313 7.93141 4.86175 7.92483 4.87627L7.11398 4.50861ZM7.14869 4.43085C7.15487 4.41693 7.16172 4.39916 7.17149 4.37159L8.01063 4.66909C7.99854 4.70319 7.98257 4.74676 7.96217 4.79263L7.14869 4.43085ZM7.17145 4.37171C7.47295 3.52052 8.23183 2.98223 9.13426 2.98223V3.87254C8.61046 3.87254 8.18677 4.17181 8.01067 4.66897L7.17145 4.37171ZM9.13426 2.98223C10.3394 2.98223 11.2588 4.0331 11.2588 5.24849H10.3685C10.3685 4.45555 9.78119 3.87254 9.13426 3.87254V2.98223ZM11.2588 5.24848L11.2589 7.84408L10.3686 7.8441L10.3685 5.24851L11.2588 5.24848ZM11.2589 7.84409C11.2589 8.0882 11.1631 8.32004 10.9906 8.49288L10.3605 7.86392C10.364 7.86039 10.3657 7.85739 10.3667 7.85505C10.3677 7.85272 10.3686 7.84928 10.3686 7.84409H11.2589ZM10.9903 8.49317C10.8175 8.66597 10.5856 8.76191 10.3412 8.76191V7.8716C10.3464 7.8716 10.3498 7.87065 10.3521 7.86971C10.3544 7.86877 10.3573 7.8671 10.3608 7.86362L10.9903 8.49317ZM10.1079 7.93764L10.1079 7.93763L10.5745 8.69587L10.5745 8.69588L10.1079 7.93764ZM9.13427 4.12366C8.71103 4.12366 8.39009 4.35007 8.24736 4.75297L7.40815 4.45567C7.67616 3.69915 8.33201 3.23335 9.13427 3.23335V4.12366ZM8.24702 4.75393C8.23296 4.79331 8.21471 4.84304 8.19164 4.89486L7.37829 4.53277C7.38716 4.51285 7.39627 4.48895 7.40849 4.45471L8.24702 4.75393ZM8.19154 4.89509C8.17115 4.94081 8.15407 4.97942 8.141 5.00558C8.13289 5.02181 8.11976 5.04683 8.10072 5.07453C8.08142 5.10261 8.06235 5.12378 8.0608 5.12556L7.39035 4.53977C7.3914 4.53857 7.39106 4.53896 7.39053 4.53957C7.38985 4.54036 7.38812 4.54238 7.38585 4.54515C7.38078 4.55133 7.37414 4.55984 7.36698 4.57027C7.35306 4.59053 7.34527 4.60625 7.34458 4.60762C7.34408 4.60863 7.34439 4.60804 7.34591 4.6048C7.34737 4.60166 7.34945 4.59714 7.35243 4.59056C7.35851 4.57713 7.36659 4.559 7.37839 4.53253L8.19154 4.89509ZM7.43461 5.16957L7.43288 5.16807L8.01481 4.49426L8.01654 4.49576L7.43461 5.16957ZM8.11718 5.03962C8.04751 5.17108 7.84861 5.51534 7.28208 6.49624L6.51112 6.05097C7.0856 5.05628 7.27087 4.73525 7.33052 4.62271L8.11718 5.03962ZM7.28189 6.49656C7.31751 6.43501 7.32744 6.36074 7.30912 6.29181L6.44868 6.52048C6.40644 6.36157 6.4288 6.19322 6.5113 6.05065L7.28189 6.49656ZM7.30875 6.29042C7.29043 6.22238 7.24541 6.16288 7.18279 6.12673L6.73768 6.89778C6.59467 6.81523 6.4916 6.6799 6.44905 6.52187L7.30875 6.29042ZM7.18196 6.12625C7.13129 6.09714 7.082 6.09733 7.04797 6.1065C7.01407 6.11562 6.97061 6.14035 6.94085 6.19219L7.71303 6.63536C7.51902 6.9734 7.07564 7.09191 6.73851 6.89826L7.18196 6.12625ZM6.94146 6.19113L7.41806 5.36599L8.18901 5.81129L7.71241 6.63642L6.94146 6.19113ZM7.41833 5.36553C7.5469 5.14354 7.80935 5.03244 8.0611 5.10058L7.8285 5.95997C7.96981 5.99822 8.11711 5.93542 8.18874 5.81176L7.41833 5.36553ZM8.06 5.10029C8.30974 5.16719 8.48301 5.39351 8.48301 5.65157H7.5927C7.5927 5.79605 7.68967 5.92278 7.8296 5.96027L8.06 5.10029ZM8.48301 5.65157V8.24555H7.5927V5.65157H8.48301ZM8.48301 8.24555C8.48301 8.19483 8.46422 8.14871 8.43337 8.11342C8.40257 8.07819 8.34822 8.04181 8.27294 8.03686L8.21447 8.92524C7.83974 8.90058 7.5927 8.57415 7.5927 8.24555H8.48301ZM8.26722 8.03652C8.21463 8.03373 8.15038 8.053 8.10155 8.10174L8.73055 8.73183C8.59 8.87213 8.40368 8.93529 8.2202 8.92558L8.26722 8.03652ZM8.10128 8.10201C8.05903 8.14426 8.03555 8.20214 8.03555 8.26018H8.92586C8.92586 8.43699 8.85644 8.60594 8.73082 8.73156L8.10128 8.10201ZM8.03555 8.26018V6.56368H8.92586V8.26018H8.03555ZM8.03555 6.56368C8.03555 6.24845 8.29109 5.9929 8.60632 5.9929V6.88322C8.7828 6.88322 8.92586 6.74015 8.92586 6.56368H8.03555ZM8.60632 5.9929C8.92137 5.9929 9.1771 6.24819 9.1771 6.56368H8.28679C8.28679 6.74025 8.43003 6.88322 8.60632 6.88322V5.9929ZM9.1771 6.56369L9.17702 8.64581L8.28671 8.64578L8.28679 6.56366L9.1771 6.56369ZM9.17702 8.64579C9.17702 8.52202 9.07706 8.42206 8.95328 8.42206V9.31237C8.58536 9.31237 8.28671 9.01373 8.28671 8.64579H9.17702ZM8.95328 8.42206C8.89534 8.42206 8.83774 8.4454 8.79558 8.48748L9.42452 9.11763C9.29882 9.24309 9.12984 9.31237 8.95328 9.31237V8.42206ZM8.79498 8.48808C8.75289 8.53025 8.72955 8.58786 8.72955 8.64579H9.61986C9.61986 8.82234 9.55058 8.99133 9.42512 9.11703L8.79498 8.48808ZM8.72955 8.64579V6.56368H9.61986V8.64579H8.72955ZM8.72955 6.56368C8.72955 6.24863 8.98483 5.9929 9.30032 5.9929V6.88321C9.47691 6.88321 9.61986 6.73997 9.61986 6.56368H8.72955ZM9.30032 5.9929C9.61537 5.9929 9.8711 6.24819 9.8711 6.56368H8.98079C8.98079 6.74025 9.12403 6.88321 9.30032 6.88321V5.9929ZM9.8711 6.5637L9.87102 8.24069L8.98071 8.24064L8.98079 6.56366L9.8711 6.5637ZM9.87102 8.24066V8.26017H8.98071V8.24066H9.87102ZM9.87102 8.26017C9.87102 8.1361 9.77084 8.03636 9.64736 8.03636V8.92667C9.27957 8.92667 8.98071 8.62824 8.98071 8.26017H9.87102ZM9.64736 8.03636C9.58821 8.03636 9.53095 8.06041 9.48995 8.10126L10.1183 8.73198C9.99331 8.85652 9.82498 8.92667 9.64736 8.92667V8.03636ZM9.48966 8.10155C9.44707 8.14405 9.42363 8.20213 9.42363 8.26009H10.3139C10.3139 8.43682 10.2446 8.60597 10.1186 8.73169L9.48966 8.10155ZM9.42363 8.26009V6.56359H10.3139V8.26009H9.42363ZM9.42363 6.56359C9.42363 6.24854 9.67892 5.99282 9.99441 5.99282V6.88313C10.171 6.88313 10.3139 6.73989 10.3139 6.56359H9.42363ZM9.99441 5.99282C10.3095 5.99282 10.5652 6.2481 10.5652 6.56359H9.67487C9.67487 6.74017 9.81811 6.88313 9.99441 6.88313V5.99282ZM10.5652 6.56364L10.565 7.8442L9.67471 7.84409L9.67487 6.56353L10.5652 6.56364ZM10.565 7.84415C10.565 7.72066 10.4653 7.6205 10.3412 7.6205V8.51081C9.97315 8.51081 9.67471 8.21195 9.67471 7.84415H10.565ZM10.3412 7.6205C10.2828 7.6205 10.2252 7.64414 10.1833 7.68593L10.8123 8.31606C10.687 8.44107 10.5184 8.51081 10.3412 8.51081V7.6205ZM10.183 7.68622C10.1407 7.72861 10.1174 7.78646 10.1174 7.84415H11.0077C11.0077 8.02045 10.9387 8.18969 10.8126 8.31577L10.183 7.68622ZM10.1174 7.84414L10.1175 5.24854L11.0078 5.24857L11.0077 7.84416L10.1174 7.84414ZM10.1175 5.24855C10.1175 4.58821 9.63733 4.12368 9.13426 4.12368V3.23337C10.2064 3.23337 11.0078 4.17764 11.0078 5.24855H10.1175ZM8.70624 3.55623L8.70624 3.55621L9.5623 3.8008L9.56229 3.80082L8.70624 3.55623Z" fill="#072F5E" mask="url(#path-1-inside-1_0_1385)"/>
<mask id="path-3-inside-2_0_1385" fill="white">
<path d="M5.40581 10.1208L7.22863 9.02727C7.4484 8.89528 7.73118 8.95137 7.87213 9.15501C7.92357 9.22919 7.94985 9.31563 7.95394 9.40366C8.0219 9.36818 8.09584 9.34891 8.17111 9.34891C8.20965 9.34891 8.24835 9.35371 8.28658 9.36323C8.40905 9.39382 8.51225 9.47036 8.57715 9.57859C8.64212 9.68698 8.66108 9.814 8.63048 9.93633C8.60224 10.0495 8.53341 10.1448 8.43769 10.2101C8.50463 10.2496 8.56236 10.3035 8.60342 10.3721C8.66839 10.4805 8.68735 10.6075 8.65683 10.7299C8.62623 10.8522 8.5497 10.9554 8.44131 11.0205L8.44068 11.0209C8.50644 11.0603 8.56315 11.1136 8.60374 11.1812C8.66879 11.2896 8.68775 11.4166 8.65715 11.5391C8.62647 11.6615 8.54994 11.7647 8.44171 11.8297L6.21602 13.1649C5.80062 13.414 5.32041 13.5 4.86403 13.4068C4.40357 13.3127 4.02223 13.048 3.79035 12.6615C3.42341 12.0499 3.4784 11.3274 3.93359 10.7759C3.95444 10.7507 3.97497 10.7251 3.99361 10.6985C4.01335 10.6704 4.0364 10.6374 4.04426 10.626C4.09138 10.5419 4.8602 9.15669 4.86011 9.15685C4.93775 9.01676 5.08327 8.93746 5.23334 8.93754C5.30335 8.93754 5.37438 8.95477 5.43991 8.99111C5.51904 9.03531 5.5855 9.09973 5.63199 9.17737C5.72756 9.33665 5.73094 9.53598 5.64096 9.69729L5.40581 10.1208ZM5.41675 9.3065C5.39236 9.26584 5.35885 9.23343 5.31787 9.21046C5.23316 9.16358 5.1265 9.1941 5.07986 9.2785C4.52973 10.2696 4.3422 10.6074 4.26983 10.7275L4.27148 10.7279C4.26542 10.7481 4.26542 10.7481 4.19919 10.8427C4.1767 10.8747 4.15223 10.9055 4.1273 10.9358C3.73589 11.41 3.69044 12.0068 4.00561 12.5323C4.20084 12.8578 4.52351 13.0809 4.91419 13.1607C5.30913 13.241 5.72539 13.1663 6.08668 12.9495L8.31257 11.6142C8.36338 11.5838 8.39925 11.5354 8.41357 11.478C8.42788 11.4208 8.419 11.3612 8.38848 11.3104C8.32571 11.2058 8.18939 11.1714 8.08478 11.2344L6.98671 11.8932C6.92725 11.9289 6.85 11.9097 6.81437 11.8502C6.77866 11.7907 6.79793 11.7135 6.8574 11.6778L7.95554 11.0191L8.31218 10.8051C8.36299 10.7746 8.39894 10.7262 8.41326 10.669C8.42757 10.6117 8.41868 10.5521 8.38816 10.5013C8.32532 10.3966 8.189 10.3626 8.08447 10.4254L6.62968 11.2981C6.57006 11.3339 6.49305 11.3145 6.45734 11.255C6.42163 11.1956 6.44098 11.1184 6.50037 11.0827L8.28583 10.0116C8.33665 9.98111 8.37251 9.93281 8.38683 9.87547C8.40114 9.8182 8.39226 9.75866 8.36182 9.70785C8.33138 9.65711 8.283 9.62124 8.22566 9.60693C8.168 9.59261 8.10869 9.6015 8.05804 9.63186L7.72752 9.83016C7.72744 9.83016 7.72744 9.83024 7.72736 9.83024H7.72728L6.27258 10.703C6.21296 10.7388 6.13587 10.7195 6.10024 10.6599C6.06453 10.6005 6.08388 10.5233 6.14327 10.4876L7.59805 9.61488C7.64886 9.58436 7.68481 9.53598 7.69912 9.4788C7.71485 9.41603 7.7029 9.35184 7.66561 9.29804C7.60096 9.20452 7.46268 9.17966 7.35783 9.24266L5.13355 10.577C5.08486 10.6061 5.02248 10.5991 4.98166 10.5596C4.94076 10.5202 4.93155 10.4581 4.95908 10.4085L5.4216 9.57516C5.46801 9.49186 5.4662 9.38897 5.41672 9.30653L5.41675 9.3065Z"/>
</mask>
<path d="M5.40581 10.1208L7.22863 9.02727C7.4484 8.89528 7.73118 8.95137 7.87213 9.15501C7.92357 9.22919 7.94985 9.31563 7.95394 9.40366C8.0219 9.36818 8.09584 9.34891 8.17111 9.34891C8.20965 9.34891 8.24835 9.35371 8.28658 9.36323C8.40905 9.39382 8.51225 9.47036 8.57715 9.57859C8.64212 9.68698 8.66108 9.814 8.63048 9.93633C8.60224 10.0495 8.53341 10.1448 8.43769 10.2101C8.50463 10.2496 8.56236 10.3035 8.60342 10.3721C8.66839 10.4805 8.68735 10.6075 8.65683 10.7299C8.62623 10.8522 8.5497 10.9554 8.44131 11.0205L8.44068 11.0209C8.50644 11.0603 8.56315 11.1136 8.60374 11.1812C8.66879 11.2896 8.68775 11.4166 8.65715 11.5391C8.62647 11.6615 8.54994 11.7647 8.44171 11.8297L6.21602 13.1649C5.80062 13.414 5.32041 13.5 4.86403 13.4068C4.40357 13.3127 4.02223 13.048 3.79035 12.6615C3.42341 12.0499 3.4784 11.3274 3.93359 10.7759C3.95444 10.7507 3.97497 10.7251 3.99361 10.6985C4.01335 10.6704 4.0364 10.6374 4.04426 10.626C4.09138 10.5419 4.8602 9.15669 4.86011 9.15685C4.93775 9.01676 5.08327 8.93746 5.23334 8.93754C5.30335 8.93754 5.37438 8.95477 5.43991 8.99111C5.51904 9.03531 5.5855 9.09973 5.63199 9.17737C5.72756 9.33665 5.73094 9.53598 5.64096 9.69729L5.40581 10.1208ZM5.41675 9.3065C5.39236 9.26584 5.35885 9.23343 5.31787 9.21046C5.23316 9.16358 5.1265 9.1941 5.07986 9.2785C4.52973 10.2696 4.3422 10.6074 4.26983 10.7275L4.27148 10.7279C4.26542 10.7481 4.26542 10.7481 4.19919 10.8427C4.1767 10.8747 4.15223 10.9055 4.1273 10.9358C3.73589 11.41 3.69044 12.0068 4.00561 12.5323C4.20084 12.8578 4.52351 13.0809 4.91419 13.1607C5.30913 13.241 5.72539 13.1663 6.08668 12.9495L8.31257 11.6142C8.36338 11.5838 8.39925 11.5354 8.41357 11.478C8.42788 11.4208 8.419 11.3612 8.38848 11.3104C8.32571 11.2058 8.18939 11.1714 8.08478 11.2344L6.98671 11.8932C6.92725 11.9289 6.85 11.9097 6.81437 11.8502C6.77866 11.7907 6.79793 11.7135 6.8574 11.6778L7.95554 11.0191L8.31218 10.8051C8.36299 10.7746 8.39894 10.7262 8.41326 10.669C8.42757 10.6117 8.41868 10.5521 8.38816 10.5013C8.32532 10.3966 8.189 10.3626 8.08447 10.4254L6.62968 11.2981C6.57006 11.3339 6.49305 11.3145 6.45734 11.255C6.42163 11.1956 6.44098 11.1184 6.50037 11.0827L8.28583 10.0116C8.33665 9.98111 8.37251 9.93281 8.38683 9.87547C8.40114 9.8182 8.39226 9.75866 8.36182 9.70785C8.33138 9.65711 8.283 9.62124 8.22566 9.60693C8.168 9.59261 8.10869 9.6015 8.05804 9.63186L7.72752 9.83016C7.72744 9.83016 7.72744 9.83024 7.72736 9.83024H7.72728L6.27258 10.703C6.21296 10.7388 6.13587 10.7195 6.10024 10.6599C6.06453 10.6005 6.08388 10.5233 6.14327 10.4876L7.59805 9.61488C7.64886 9.58436 7.68481 9.53598 7.69912 9.4788C7.71485 9.41603 7.7029 9.35184 7.66561 9.29804C7.60096 9.20452 7.46268 9.17966 7.35783 9.24266L5.13355 10.577C5.08486 10.6061 5.02248 10.5991 4.98166 10.5596C4.94076 10.5202 4.93155 10.4581 4.95908 10.4085L5.4216 9.57516C5.46801 9.49186 5.4662 9.38897 5.41672 9.30653L5.41675 9.3065Z" fill="#072F5E"/>
<path d="M5.40581 10.1208L5.63482 10.5025L4.21012 11.3572L5.01663 9.90469L5.40581 10.1208ZM7.22863 9.02727L7.45782 9.40889L7.45763 9.409L7.22863 9.02727ZM7.87213 9.15501L7.50634 9.4087L7.5061 9.40836L7.87213 9.15501ZM7.95394 9.40366L8.15993 9.79829L7.54163 10.121L7.50926 9.42432L7.95394 9.40366ZM8.28658 9.36323L8.39413 8.93126L8.39448 8.93135L8.28658 9.36323ZM8.57715 9.57859L8.95892 9.34965L8.95896 9.34972L8.57715 9.57859ZM8.63048 9.93633L8.19856 9.82858L8.19863 9.82831L8.63048 9.93633ZM8.43769 10.2101L8.21151 10.5936L7.60806 10.2376L8.18667 9.84252L8.43769 10.2101ZM8.60342 10.3721L8.22161 10.601L8.22147 10.6008L8.60342 10.3721ZM8.65683 10.7299L9.08877 10.8376L9.08868 10.838L8.65683 10.7299ZM8.44131 11.0205L8.20534 10.643L8.21221 10.6388L8.44131 11.0205ZM8.44068 11.0209L8.21185 11.4027L7.588 11.0289L8.20475 10.6434L8.44068 11.0209ZM8.60374 11.1812L8.98533 10.952L8.98543 10.9521L8.60374 11.1812ZM8.65715 11.5391L9.08903 11.647L9.08895 11.6473L8.65715 11.5391ZM8.44171 11.8297L8.67085 12.2113L8.67071 12.2114L8.44171 11.8297ZM6.21602 13.1649L6.44503 13.5466L6.44496 13.5467L6.21602 13.1649ZM4.86403 13.4068L4.77495 13.8429L4.77493 13.8429L4.86403 13.4068ZM3.79035 12.6615L4.17207 12.4324L4.17209 12.4325L3.79035 12.6615ZM3.93359 10.7759L3.59028 10.4925L3.59074 10.4919L3.93359 10.7759ZM3.99361 10.6985L3.62912 10.4429L3.62945 10.4424L3.99361 10.6985ZM4.04426 10.626L4.4327 10.8435L4.42218 10.8623L4.40991 10.8799L4.04426 10.626ZM4.86011 9.15685L5.24948 9.37263L4.46196 8.95777L4.86011 9.15685ZM5.23334 8.93754V9.3827H5.23311L5.23334 8.93754ZM5.43991 8.99111L5.65581 8.60181L5.65701 8.60248L5.43991 8.99111ZM5.63199 9.17737L5.25027 9.4064L5.25007 9.40606L5.63199 9.17737ZM5.64096 9.69729L5.25177 9.4812L5.2522 9.48043L5.64096 9.69729ZM5.41675 9.3065L5.79853 9.07758L5.95293 9.33508L5.77203 9.57471L5.41675 9.3065ZM5.31787 9.21046L5.53342 8.82096L5.53551 8.82213L5.31787 9.21046ZM5.07986 9.2785L5.46949 9.4938L5.46907 9.49454L5.07986 9.2785ZM4.26983 10.7275L4.16672 11.1606L3.57438 11.0196L3.88847 10.4979L4.26983 10.7275ZM4.27148 10.7279L4.37459 10.2949L4.83371 10.4042L4.69777 10.8562L4.27148 10.7279ZM4.19919 10.8427L4.56389 11.098L4.56341 11.0986L4.19919 10.8427ZM4.1273 10.9358L4.47095 11.2187L4.47062 11.2191L4.1273 10.9358ZM4.00561 12.5323L3.62386 12.7613L3.62386 12.7612L4.00561 12.5323ZM4.91419 13.1607L4.82549 13.5969L4.82515 13.5968L4.91419 13.1607ZM6.08668 12.9495L5.85765 12.5678L5.85768 12.5677L6.08668 12.9495ZM8.31257 11.6142L8.08357 11.2325L8.0838 11.2323L8.31257 11.6142ZM8.41357 11.478L7.98167 11.3702L7.9817 11.3701L8.41357 11.478ZM8.38848 11.3104L8.00687 11.5396L8.00676 11.5394L8.38848 11.3104ZM8.08478 11.2344L8.31444 11.6158L8.31379 11.6162L8.08478 11.2344ZM6.98671 11.8932L6.75754 11.5116L6.7577 11.5115L6.98671 11.8932ZM6.81437 11.8502L7.196 11.621L7.19636 11.6216L6.81437 11.8502ZM6.8574 11.6778L6.62822 11.2962L6.6284 11.2961L6.8574 11.6778ZM7.95554 11.0191L8.18455 11.4008L8.18454 11.4008L7.95554 11.0191ZM8.31218 10.8051L8.54139 11.1867L8.54119 11.1868L8.31218 10.8051ZM8.41326 10.669L8.84516 10.7769L8.84509 10.7771L8.41326 10.669ZM8.38816 10.5013L8.00671 10.7308L8.0065 10.7305L8.38816 10.5013ZM8.08447 10.4254L8.31362 10.807L8.31347 10.8071L8.08447 10.4254ZM6.62968 11.2981L6.40058 10.9164L6.40068 10.9163L6.62968 11.2981ZM6.45734 11.255L6.83897 11.0259L6.83897 11.0259L6.45734 11.255ZM6.50037 11.0827L6.27097 10.7012L6.27137 10.701L6.50037 11.0827ZM8.28583 10.0116L8.51504 10.3932L8.51483 10.3934L8.28583 10.0116ZM8.38683 9.87547L7.95493 9.76764L7.95496 9.7675L8.38683 9.87547ZM8.36182 9.70785L8.74353 9.47882L8.74369 9.47907L8.36182 9.70785ZM8.22566 9.60693L8.33293 9.17489L8.33348 9.17503L8.22566 9.60693ZM8.05804 9.63186L7.82902 9.25014L7.82918 9.25004L8.05804 9.63186ZM7.72752 9.83016L7.95654 10.2119L7.85081 10.2753H7.72752V9.83016ZM7.72728 9.83024L7.49827 9.44851L7.60399 9.38509H7.72728V9.83024ZM6.27258 10.703L6.04311 10.3215L6.04357 10.3212L6.27258 10.703ZM6.10024 10.6599L6.48187 10.4308L6.48223 10.4313L6.10024 10.6599ZM6.14327 10.4876L5.91387 10.1061L5.91426 10.1059L6.14327 10.4876ZM7.59805 9.61488L7.82725 9.99649L7.82705 9.99661L7.59805 9.61488ZM7.69912 9.4788L7.26729 9.37069L7.26732 9.37058L7.69912 9.4788ZM7.66561 9.29804L7.29973 9.55159L7.29944 9.55119L7.66561 9.29804ZM7.35783 9.24266L7.58711 9.62423L7.58683 9.6244L7.35783 9.24266ZM5.13355 10.577L5.36255 10.9588L5.36194 10.9591L5.13355 10.577ZM4.98166 10.5596L4.67249 10.8799L4.67248 10.8799L4.98166 10.5596ZM4.95908 10.4085L4.56981 10.1925L4.56986 10.1924L4.95908 10.4085ZM5.4216 9.57516L5.03238 9.35912L5.03272 9.3585L5.4216 9.57516ZM5.41672 9.30653L5.03503 9.53561L4.88046 9.27806L5.06144 9.03833L5.41672 9.30653ZM5.17681 9.73905L6.99963 8.64554L7.45763 9.409L5.63482 10.5025L5.17681 9.73905ZM6.99944 8.64565C7.40891 8.39973 7.95613 8.4942 8.23816 8.90166L7.5061 9.40836C7.50557 9.40759 7.50304 9.40385 7.49328 9.40192C7.48326 9.39993 7.47058 9.40123 7.45782 9.40889L6.99944 8.64565ZM8.23793 8.90132C8.34197 9.05135 8.39106 9.22054 8.39861 9.383L7.50926 9.42432C7.50863 9.41073 7.50518 9.40703 7.50634 9.4087L8.23793 8.90132ZM7.74795 9.00903C7.87484 8.94279 8.01903 8.90376 8.17111 8.90376V9.79407C8.17264 9.79407 8.16896 9.79357 8.15993 9.79829L7.74795 9.00903ZM8.17111 8.90376C8.24671 8.90376 8.32151 8.91318 8.39413 8.93126L8.17903 9.7952C8.1752 9.79424 8.1726 9.79407 8.17111 9.79407V8.90376ZM8.39448 8.93135C8.63166 8.9906 8.83333 9.14021 8.95892 9.34965L8.19537 9.80752C8.19281 9.80324 8.19033 9.80087 8.18836 9.79941C8.1864 9.79796 8.18345 9.7963 8.17868 9.79511L8.39448 8.93135ZM8.95896 9.34972C9.08442 9.55901 9.12166 9.80717 9.06233 10.0444L8.19863 9.82831C8.19979 9.82365 8.19973 9.82033 8.19937 9.81789C8.199 9.81544 8.19805 9.81199 8.19534 9.80746L8.95896 9.34972ZM9.0624 10.0441C9.00645 10.2683 8.87002 10.454 8.68871 10.5778L8.18667 9.84252C8.19229 9.83868 8.19502 9.83544 8.19622 9.83375C8.19731 9.8322 8.19802 9.83074 8.19856 9.82858L9.0624 10.0441ZM8.66386 9.82673C8.78717 9.89947 8.9018 10.0039 8.98537 10.1435L8.22147 10.6008C8.22193 10.6015 8.22206 10.6014 8.221 10.6004C8.21983 10.5993 8.21694 10.5968 8.21151 10.5936L8.66386 9.82673ZM8.98524 10.1432C9.11072 10.3526 9.14785 10.6005 9.08877 10.8376L8.22489 10.6223C8.22611 10.6174 8.22603 10.6139 8.22566 10.6115C8.22529 10.609 8.22433 10.6055 8.22161 10.601L8.98524 10.1432ZM9.08868 10.838C9.02936 11.0751 8.8797 11.2765 8.67041 11.4022L8.21221 10.6388C8.21673 10.6361 8.21921 10.6335 8.2207 10.6315C8.22219 10.6295 8.22382 10.6266 8.22498 10.6219L9.08868 10.838ZM8.67724 11.398L8.67661 11.3984L8.20475 10.6434L8.20538 10.643L8.67724 11.398ZM8.66951 10.6391C8.7906 10.7116 8.90294 10.8148 8.98533 10.952L8.22215 11.4104C8.22249 11.411 8.2225 11.4108 8.22136 11.4097C8.22012 11.4085 8.21721 11.4059 8.21185 11.4027L8.66951 10.6391ZM8.98543 10.9521C9.11114 11.1616 9.14829 11.4098 9.08903 11.647L8.22527 11.4312C8.22647 11.4264 8.22639 11.423 8.22603 11.4206C8.22567 11.4182 8.22474 11.4148 8.22205 11.4103L8.98543 10.9521ZM9.08895 11.6473C9.02957 11.8842 8.88007 12.0857 8.67085 12.2113L8.21256 11.448C8.21695 11.4454 8.21941 11.4428 8.22093 11.4408C8.22245 11.4387 8.22414 11.4357 8.22535 11.4309L9.08895 11.6473ZM8.67071 12.2114L6.44503 13.5466L5.98701 12.7832L8.2127 11.4479L8.67071 12.2114ZM6.44496 13.5467C5.93834 13.8505 5.34517 13.9594 4.77495 13.8429L4.95311 12.9706C5.29565 13.0406 5.6629 12.9775 5.98707 12.7831L6.44496 13.5467ZM4.77493 13.8429C4.19812 13.7251 3.70773 13.3891 3.40861 12.8905L4.17209 12.4325C4.33672 12.7069 4.60902 12.9003 4.95314 12.9706L4.77493 13.8429ZM3.40864 12.8905C2.94428 12.1166 3.01554 11.1888 3.59028 10.4925L4.2769 11.0592C3.94126 11.4659 3.90253 11.9832 4.17207 12.4324L3.40864 12.8905ZM3.59074 10.4919C3.60917 10.4697 3.62076 10.4548 3.62912 10.4429L4.3581 10.954C4.32917 10.9953 4.29971 11.0317 4.27644 11.0598L3.59074 10.4919ZM3.62945 10.4424C3.64869 10.4151 3.67124 10.3827 3.67862 10.3721L4.40991 10.8799C4.40155 10.892 4.37801 10.9257 4.35776 10.9545L3.62945 10.4424ZM3.65583 10.4086C3.67888 10.3674 3.88221 10.0013 4.08069 9.64374C4.17972 9.46536 4.27729 9.2896 4.35008 9.15845C4.38648 9.09288 4.41669 9.03846 4.4378 9.00043C4.44835 8.98142 4.45663 8.96651 4.46227 8.95635C4.46509 8.95127 4.46725 8.94737 4.46871 8.94475C4.46944 8.94344 4.46999 8.94243 4.47037 8.94175C4.47056 8.94142 4.47071 8.94114 4.47082 8.94094C4.47087 8.94085 4.47094 8.94074 4.47099 8.94063C4.47103 8.94057 4.47111 8.94043 4.47116 8.94033C4.47132 8.94005 5.06824 8.76334 5.25827 9.35593L4.46196 8.95777C4.65199 9.55035 5.24891 9.37365 5.24905 9.37339C5.24909 9.37332 5.24915 9.37321 5.24917 9.37318C5.24918 9.37316 5.24917 9.37317 5.24913 9.37325C5.24906 9.37338 5.24893 9.37361 5.24875 9.37393C5.24839 9.37458 5.24785 9.37556 5.24712 9.37687C5.24567 9.37948 5.24351 9.38336 5.2407 9.38844C5.23506 9.3986 5.22678 9.41351 5.21623 9.43252C5.19512 9.47055 5.16491 9.52497 5.12851 9.59055C5.05571 9.72171 4.95813 9.89748 4.85909 10.0759C4.6614 10.432 4.45676 10.8005 4.4327 10.8435L3.65583 10.4086ZM4.47075 8.94107C4.63012 8.6535 4.92839 8.49222 5.23358 8.49238L5.23311 9.3827C5.23628 9.3827 5.23902 9.38194 5.24164 9.38043C5.24489 9.37856 5.24788 9.3755 5.24948 9.37263L4.47075 8.94107ZM5.23334 8.49238C5.37675 8.49238 5.52237 8.52781 5.65581 8.60181L5.224 9.3804C5.22639 9.38172 5.22996 9.3827 5.23334 9.3827V8.49238ZM5.65701 8.60248C5.8039 8.68454 5.92729 8.80402 6.01391 8.94868L5.25007 9.40606C5.24371 9.39545 5.23417 9.38608 5.2228 9.37973L5.65701 8.60248ZM6.01371 8.94834C6.19078 9.24347 6.1978 9.61284 6.02972 9.91416L5.2522 9.48043C5.26409 9.45912 5.26434 9.42984 5.25027 9.4064L6.01371 8.94834ZM6.03014 9.91339L5.795 10.3369L5.01663 9.90469L5.25177 9.4812L6.03014 9.91339ZM5.03496 9.53542C5.05061 9.56152 5.07378 9.58396 5.10024 9.59879L5.53551 8.82213C5.64393 8.8829 5.73412 8.97016 5.79853 9.07758L5.03496 9.53542ZM5.10233 9.59996C5.23153 9.67146 5.39645 9.62597 5.46949 9.4938L4.69023 9.0632C4.85654 8.76224 5.23478 8.65571 5.53341 8.82097L5.10233 9.59996ZM5.46907 9.49454C4.92265 10.479 4.7289 10.8281 4.65119 10.9572L3.88847 10.4979C3.95549 10.3866 4.13681 10.0602 4.69064 9.06246L5.46907 9.49454ZM4.37293 10.2945L4.37459 10.2949L4.16837 11.161L4.16672 11.1606L4.37293 10.2945ZM4.69777 10.8562C4.69714 10.8583 4.68898 10.887 4.67475 10.9196C4.66041 10.9523 4.645 10.9781 4.63456 10.9946C4.6181 11.0208 4.5927 11.0568 4.56389 11.098L3.83449 10.5874C3.85139 10.5633 3.86286 10.5469 3.8713 10.5347C3.87542 10.5287 3.87816 10.5247 3.88001 10.522C3.88192 10.5191 3.88208 10.5188 3.88124 10.5201C3.87983 10.5224 3.8697 10.5384 3.85914 10.5626C3.85379 10.5748 3.84993 10.5854 3.84734 10.5931C3.84618 10.5966 3.84538 10.5991 3.84508 10.6001C3.84485 10.6009 3.84471 10.6013 3.84519 10.5997L4.69777 10.8562ZM4.56341 11.0986C4.53128 11.1444 4.4985 11.1853 4.47095 11.2187L3.78365 10.6528C3.80596 10.6257 3.82212 10.6051 3.83498 10.5868L4.56341 11.0986ZM4.47062 11.2191C4.19868 11.5486 4.1696 11.9402 4.38737 12.3033L3.62386 12.7612C3.21127 12.0733 3.2731 11.2714 3.78398 10.6524L4.47062 11.2191ZM4.38736 12.3033C4.51481 12.5158 4.72786 12.6683 5.00324 12.7245L4.82515 13.5968C4.31915 13.4935 3.88688 13.1998 3.62386 12.7613L4.38736 12.3033ZM5.0029 12.7244C5.2838 12.7816 5.58725 12.73 5.85765 12.5678L6.31572 13.3312C5.86354 13.6025 5.33446 13.7004 4.82549 13.5969L5.0029 12.7244ZM5.85768 12.5677L8.08357 11.2325L8.54157 11.9959L6.31568 13.3312L5.85768 12.5677ZM8.0838 11.2323C8.03337 11.2625 7.99604 11.3127 7.98167 11.3702L8.84547 11.5859C8.80247 11.7581 8.6934 11.905 8.54134 11.9961L8.0838 11.2323ZM7.9817 11.3701C7.96729 11.4277 7.97673 11.4895 8.00687 11.5396L8.77009 11.0812C8.86126 11.233 8.88848 11.4138 8.84543 11.586L7.9817 11.3701ZM8.00676 11.5394C8.06994 11.6448 8.20706 11.6804 8.31444 11.6158L7.85512 10.8531C8.17172 10.6624 8.58147 10.7668 8.77019 11.0814L8.00676 11.5394ZM8.31379 11.6162L7.21573 12.2749L6.7577 11.5115L7.85577 10.8527L8.31379 11.6162ZM7.21589 12.2748C6.94619 12.4368 6.59486 12.3503 6.43239 12.0788L7.19636 11.6216C7.10515 11.4692 6.9083 11.421 6.75754 11.5116L7.21589 12.2748ZM6.43274 12.0793C6.27043 11.8091 6.35805 11.4584 6.62822 11.2962L7.08658 12.0595C7.23782 11.9686 7.2869 11.7724 7.196 11.621L6.43274 12.0793ZM6.6284 11.2961L7.72654 10.6373L8.18454 11.4008L7.0864 12.0596L6.6284 11.2961ZM7.72654 10.6373L8.08318 10.4234L8.54119 11.1868L8.18455 11.4008L7.72654 10.6373ZM8.08298 10.4235C8.0334 10.4533 7.99596 10.5029 7.98143 10.5609L8.84509 10.7771C8.80193 10.9495 8.69259 11.0959 8.54139 11.1867L8.08298 10.4235ZM7.98136 10.5612C7.96706 10.6185 7.97628 10.6802 8.00671 10.7308L8.76962 10.2719C8.86109 10.4239 8.88809 10.6049 8.84516 10.7769L7.98136 10.5612ZM8.0065 10.7305C8.07004 10.8363 8.20711 10.871 8.31362 10.807L7.85531 10.0437C8.1709 9.85422 8.58059 9.95698 8.76983 10.2722L8.0065 10.7305ZM8.31347 10.8071L6.85868 11.6798L6.40068 10.9163L7.85546 10.0436L8.31347 10.8071ZM6.85879 11.6797C6.58809 11.8422 6.23779 11.7541 6.07571 11.4842L6.83897 11.0259C6.74831 10.8749 6.55203 10.8255 6.40058 10.9164L6.85879 11.6797ZM6.07571 11.4842C5.9132 11.2136 6.00146 10.8633 6.27097 10.7012L6.72977 11.4642C6.88051 11.3736 6.93007 11.1776 6.83897 11.0259L6.07571 11.4842ZM6.27137 10.701L8.05683 9.62989L8.51483 10.3934L6.72937 11.4644L6.27137 10.701ZM8.05663 9.63001C8.00684 9.65991 7.96937 9.70979 7.95493 9.76764L8.81873 9.98329C8.77565 10.1558 8.66645 10.3023 8.51504 10.3932L8.05663 9.63001ZM7.95496 9.7675C7.94055 9.82515 7.95002 9.88666 7.97994 9.93662L8.74369 9.47907C8.8345 9.63066 8.86174 9.81126 8.81869 9.98343L7.95496 9.7675ZM7.9801 9.93688C8.0103 9.98722 8.06035 10.0245 8.11784 10.0388L8.33348 9.17503C8.50565 9.21801 8.65245 9.32701 8.74353 9.47882L7.9801 9.93688ZM8.11839 10.039C8.17479 10.053 8.23637 10.044 8.2869 10.0137L7.82918 9.25004C7.98102 9.15903 8.16121 9.13226 8.33293 9.17489L8.11839 10.039ZM8.28706 10.0136L7.95654 10.2119L7.4985 9.44844L7.82902 9.25014L8.28706 10.0136ZM7.72752 10.2753C7.74612 10.2753 7.76572 10.2742 7.78608 10.2714C7.8065 10.2687 7.82704 10.2646 7.84752 10.2588C7.86802 10.2531 7.88759 10.246 7.90615 10.2379C7.92467 10.2298 7.94145 10.2209 7.9565 10.2119C7.98634 10.194 8.00838 10.176 8.02197 10.164C8.02876 10.158 8.03406 10.1529 8.03725 10.1499C8.04016 10.147 8.04261 10.1446 8.0422 10.145C8.0422 10.145 8.0422 10.145 8.0422 10.145C8.04219 10.145 8.04219 10.145 8.04218 10.145C8.04217 10.145 8.04215 10.145 8.04212 10.1451C8.04207 10.1451 8.04199 10.1452 8.04189 10.1453C8.0417 10.1455 8.04137 10.1458 8.04097 10.1462C8.04018 10.147 8.03887 10.1483 8.03724 10.1499C8.03404 10.153 8.02873 10.158 8.02194 10.164C8.00834 10.176 7.98629 10.194 7.95644 10.2119C7.94138 10.221 7.92459 10.2298 7.90607 10.238C7.8875 10.2461 7.86792 10.2532 7.84742 10.2589C7.82692 10.2646 7.80637 10.2688 7.78595 10.2715C7.76558 10.2742 7.74598 10.2754 7.72736 10.2754V9.38509C7.70875 9.38509 7.68916 9.38625 7.66879 9.38896C7.64838 9.39167 7.62784 9.39583 7.60736 9.40157C7.58686 9.40731 7.56729 9.41437 7.54873 9.42251C7.53021 9.43062 7.51343 9.43948 7.49838 9.44851C7.46854 9.46641 7.4465 9.48442 7.43291 9.49641C7.42612 9.5024 7.42082 9.50745 7.41762 9.51055C7.41471 9.51337 7.41226 9.51583 7.41268 9.51542C7.41268 9.51542 7.41268 9.51542 7.41268 9.51541C7.41268 9.51541 7.41269 9.5154 7.4127 9.5154C7.41271 9.51539 7.41273 9.51537 7.41275 9.51534C7.4128 9.51529 7.41289 9.51521 7.41299 9.51511C7.41318 9.51491 7.41351 9.51459 7.41391 9.51419C7.4147 9.5134 7.41601 9.51211 7.41764 9.51053C7.42084 9.50743 7.42615 9.50238 7.43294 9.49639C7.44654 9.48439 7.46859 9.46637 7.49844 9.44846C7.5135 9.43942 7.53028 9.43056 7.54881 9.42244C7.56738 9.41431 7.58696 9.40724 7.60746 9.4015C7.62795 9.39576 7.6485 9.39159 7.66892 9.38888C7.68929 9.38617 7.7089 9.38501 7.72752 9.38501V10.2753ZM7.72736 10.2754H7.72728V9.38509H7.72736V10.2754ZM7.95629 10.212L6.50159 11.0847L6.04357 10.3212L7.49827 9.44851L7.95629 10.212ZM6.50205 11.0844C6.23137 11.2472 5.88031 11.1593 5.71825 10.8885L6.48223 10.4313C6.39143 10.2796 6.19455 10.2304 6.04311 10.3215L6.50205 11.0844ZM5.71861 10.8891C5.55609 10.6185 5.64435 10.2682 5.91387 10.1061L6.37267 10.8691C6.52341 10.7784 6.57297 10.5825 6.48187 10.4308L5.71861 10.8891ZM5.91426 10.1059L7.36905 9.23314L7.82705 9.99661L6.37227 10.8693L5.91426 10.1059ZM7.36884 9.23326C7.31927 9.26304 7.28182 9.31265 7.26729 9.37069L8.13095 9.5869C8.08779 9.75931 7.97845 9.90567 7.82725 9.99649L7.36884 9.23326ZM7.26732 9.37058C7.25134 9.43435 7.26516 9.50172 7.29973 9.55159L8.0315 9.04448C8.14063 9.20197 8.17837 9.39771 8.13092 9.58702L7.26732 9.37058ZM7.29944 9.55119C7.3426 9.6136 7.40201 9.64151 7.44799 9.64978C7.49406 9.65806 7.54338 9.65051 7.58711 9.62423L7.12854 8.8611C7.41021 8.69184 7.81794 8.73557 8.03178 9.04489L7.29944 9.55119ZM7.58683 9.6244L5.36255 10.9588L4.90454 10.1953L7.12882 8.86093L7.58683 9.6244ZM5.36194 10.9591C5.1412 11.0911 4.85842 11.0594 4.67249 10.8799L5.29083 10.2394C5.18654 10.1387 5.02852 10.1212 4.90516 10.1949L5.36194 10.9591ZM4.67248 10.8799C4.48638 10.7003 4.44463 10.4182 4.56981 10.1925L5.34836 10.6244C5.41847 10.498 5.39513 10.3401 5.29084 10.2394L4.67248 10.8799ZM4.56986 10.1924L5.03238 9.35912L5.81082 9.79119L5.34831 10.6245L4.56986 10.1924ZM5.03272 9.3585C5.00098 9.41549 5.0032 9.48257 5.03503 9.53561L5.79841 9.07746C5.9292 9.29538 5.93504 9.56823 5.81047 9.79181L5.03272 9.3585ZM5.06144 9.03833L5.06146 9.0383L5.77203 9.57471L5.77201 9.57474L5.06144 9.03833Z" fill="#072F5E" mask="url(#path-3-inside-2_0_1385)"/>
<path d="M9.73097 9.37758C9.69623 9.37787 9.6613 9.38226 9.62685 9.39089L9.73097 9.37758ZM9.73097 9.37758C9.73163 9.36801 9.73246 9.35843 9.73349 9.34885L9.73097 9.37758ZM9.32734 10.3867C9.32733 10.3867 9.32732 10.3867 9.3273 10.3868C9.3273 10.3868 9.3273 10.3868 9.3273 10.3868L9.32734 10.3867ZM9.32734 10.3867L9.30284 10.372L9.32736 10.3867M9.32734 10.3867L9.32736 10.3867M9.32736 10.3867C9.3279 10.3858 9.32844 10.3849 9.32898 10.384L9.32736 10.3867ZM11.0339 11.7024L11.034 11.7024L11.0339 11.7024Z" fill="#072F5E" stroke="#072F5E" stroke-width="0.445155"/>
</svg>
