<svg width="17" height="17" viewBox="0 0 17 17" fill="none" xmlns="http://www.w3.org/2000/svg">
<path d="M2.72514 6.28605V6.45298H2.89207H14.9113H15.0782V6.28605V5.53485C15.0782 5.15852 14.9287 4.79761 14.6626 4.53151C14.3965 4.26541 14.0356 4.11592 13.6593 4.11592H4.14407C3.76775 4.11592 3.40684 4.26541 3.14073 4.53151C2.87463 4.79761 2.72514 5.15852 2.72514 5.53485V6.28605ZM15.0782 7.28765V7.12072H14.9113H2.89207H2.72514V7.28765V12.0452C2.72514 12.4216 2.87463 12.7825 3.14073 13.0486C3.40684 13.3147 3.76775 13.4642 4.14407 13.4642H13.6593C14.0356 13.4642 14.3965 13.3147 14.6626 13.0486C14.9287 12.7825 15.0782 12.4216 15.0782 12.0452V7.28765ZM2.05741 5.53485C2.05741 4.98143 2.27725 4.45068 2.66858 4.05935C3.0599 3.66803 3.59065 3.44818 4.14407 3.44818H13.6593C14.2127 3.44818 14.7434 3.66803 15.1348 4.05935C15.5261 4.45068 15.7459 4.98143 15.7459 5.53485V12.0452C15.7459 12.5987 15.5261 13.1294 15.1348 13.5207C14.7434 13.9121 14.2127 14.1319 13.6593 14.1319H4.14407C3.59065 14.1319 3.0599 13.9121 2.66858 13.5207C2.27725 13.1294 2.05741 12.5987 2.05741 12.0452V5.53485ZM11.4057 10.4594H12.9081C12.9966 10.4594 13.0815 10.4946 13.1441 10.5572C13.2068 10.6198 13.2419 10.7047 13.2419 10.7932C13.2419 10.8818 13.2068 10.9667 13.1441 11.0293C13.0815 11.0919 12.9966 11.1271 12.9081 11.1271H11.4057C11.3171 11.1271 11.2322 11.0919 11.1696 11.0293C11.107 10.9667 11.0718 10.8818 11.0718 10.7932C11.0718 10.7047 11.107 10.6198 11.1696 10.5572C11.2322 10.4946 11.3171 10.4594 11.4057 10.4594Z" fill="#072F5E" stroke="#072F5E" stroke-width="0.333867"/>
</svg>
