<svg width="23" height="20" viewBox="0 0 23 20" fill="none" xmlns="http://www.w3.org/2000/svg">
<path d="M22.2345 13.1397C22.2345 16.4587 19.5439 19.1493 16.2249 19.1493L7.21053 19.1493C6.28858 19.1493 5.54119 18.4019 5.54119 17.4799L5.54119 6.12848C5.54119 4.28458 7.03597 2.78981 8.87986 2.78981L20.5652 2.78982C21.4871 2.78982 22.2345 3.5372 22.2345 4.45915L22.2345 13.1397Z" fill="#E8F5E9"/>
<path d="M9.51969 6.7999C9.41552 6.7999 9.33083 6.71535 9.33083 6.61104V6.29009C9.33083 6.18591 9.41538 6.10123 9.51969 6.10123C9.62387 6.10123 9.70855 6.18578 9.70855 6.29009V6.61104C9.70855 6.71535 9.62387 6.7999 9.51969 6.7999Z" fill="#263238"/>
<path d="M8.72563 6.7999C8.62145 6.7999 8.53677 6.71535 8.53677 6.61104V6.29009C8.53677 6.18591 8.62132 6.10123 8.72563 6.10123C8.8298 6.10123 8.91448 6.18578 8.91448 6.29009V6.61104C8.91435 6.71535 8.82993 6.7999 8.72563 6.7999Z" fill="#263238"/>
<path d="M7.93169 6.7999C7.82752 6.7999 7.74283 6.71535 7.74283 6.61104V6.29009C7.74283 6.18591 7.82738 6.10123 7.93169 6.10123C8.03586 6.10123 8.12055 6.18578 8.12055 6.29009V6.61104C8.12055 6.71535 8.036 6.7999 7.93169 6.7999Z" fill="#263238"/>
<path d="M9.51969 8.11239C9.41552 8.11239 9.33083 8.02784 9.33083 7.92353V7.60271C9.33083 7.49853 9.41538 7.41385 9.51969 7.41385C9.62387 7.41385 9.70855 7.4984 9.70855 7.60271V7.92353C9.70855 8.02784 9.62387 8.11239 9.51969 8.11239Z" fill="#263238"/>
<path d="M8.72563 8.11239C8.62145 8.11239 8.53677 8.02784 8.53677 7.92353V7.60271C8.53677 7.49853 8.62132 7.41385 8.72563 7.41385C8.8298 7.41385 8.91448 7.4984 8.91448 7.60271V7.92353C8.91435 8.02784 8.82993 8.11239 8.72563 8.11239Z" fill="#263238"/>
<path d="M7.93169 8.11239C7.82752 8.11239 7.74283 8.02784 7.74283 7.92353V7.60271C7.74283 7.49853 7.82738 7.41385 7.93169 7.41385C8.03586 7.41385 8.12055 7.4984 8.12055 7.60271V7.92353C8.12055 8.02784 8.036 8.11239 7.93169 8.11239Z" fill="#263238"/>
<path d="M9.51969 9.42493C9.41552 9.42493 9.33083 9.34038 9.33083 9.23607V8.91512C9.33083 8.81094 9.41538 8.72626 9.51969 8.72626C9.62387 8.72626 9.70855 8.81081 9.70855 8.91512V9.23607C9.70855 9.34038 9.62387 9.42493 9.51969 9.42493Z" fill="#263238"/>
<path d="M8.72563 9.42493C8.62145 9.42493 8.53677 9.34038 8.53677 9.23607V8.91512C8.53677 8.81094 8.62132 8.72626 8.72563 8.72626C8.8298 8.72626 8.91448 8.81081 8.91448 8.91512V9.23607C8.91435 9.34038 8.82993 9.42493 8.72563 9.42493Z" fill="#263238"/>
<path d="M7.93169 9.42493C7.82752 9.42493 7.74283 9.34038 7.74283 9.23607V8.91512C7.74283 8.81094 7.82738 8.72626 7.93169 8.72626C8.03586 8.72626 8.12055 8.81081 8.12055 8.91512V9.23607C8.12055 9.34038 8.036 9.42493 7.93169 9.42493Z" fill="#263238"/>
<path d="M9.51969 10.7372C9.41552 10.7372 9.33083 10.6526 9.33083 10.5483V10.2273C9.33083 10.1232 9.41538 10.0385 9.51969 10.0385C9.62387 10.0385 9.70855 10.123 9.70855 10.2273V10.5483C9.70855 10.6526 9.62387 10.7372 9.51969 10.7372Z" fill="#263238"/>
<path d="M8.72563 10.7372C8.62145 10.7372 8.53677 10.6526 8.53677 10.5483V10.2273C8.53677 10.1232 8.62132 10.0385 8.72563 10.0385C8.8298 10.0385 8.91448 10.123 8.91448 10.2273V10.5483C8.91435 10.6526 8.82993 10.7372 8.72563 10.7372Z" fill="#263238"/>
<path d="M7.93169 10.7372C7.82752 10.7372 7.74283 10.6526 7.74283 10.5483V10.2273C7.74283 10.1232 7.82738 10.0385 7.93169 10.0385C8.03586 10.0385 8.12055 10.123 8.12055 10.2273V10.5483C8.12055 10.6526 8.036 10.7372 7.93169 10.7372Z" fill="#263238"/>
<path d="M9.51969 12.0496C9.41552 12.0496 9.33083 11.9651 9.33083 11.8608V11.54C9.33083 11.4358 9.41538 11.3511 9.51969 11.3511C9.62387 11.3511 9.70855 11.4357 9.70855 11.54V11.8608C9.70855 11.965 9.62387 12.0496 9.51969 12.0496Z" fill="#263238"/>
<path d="M8.72563 12.0496C8.62145 12.0496 8.53677 11.9651 8.53677 11.8608V11.54C8.53677 11.4358 8.62132 11.3511 8.72563 11.3511C8.8298 11.3511 8.91448 11.4357 8.91448 11.54V11.8608C8.91435 11.965 8.82993 12.0496 8.72563 12.0496Z" fill="#263238"/>
<path d="M7.93169 12.0496C7.82752 12.0496 7.74283 11.9651 7.74283 11.8608L7.74296 11.54C7.74296 11.4358 7.82751 11.3511 7.93182 11.3511C8.03599 11.3511 8.12068 11.4357 8.12068 11.54V11.8608C8.12055 11.965 8.036 12.0496 7.93169 12.0496Z" fill="#263238"/>
<path d="M2.53654 13.3558C2.53654 13.4599 2.62109 13.5446 2.7254 13.5446H14.2264C14.3305 13.5446 14.4152 13.4601 14.4152 13.3558C14.4152 13.2516 14.3307 13.1669 14.2264 13.1669H13.8772V7.74447C13.8772 7.64029 13.7927 7.55561 13.6884 7.55561L10.6049 7.55574V3.64645C10.6049 3.58034 10.5704 3.51923 10.514 3.48499C10.4578 3.45062 10.3874 3.44851 10.329 3.47893L6.82325 5.30417C6.76069 5.3367 6.72171 5.40124 6.72171 5.4717V8.88638H3.32894C3.22477 8.88638 3.14008 8.97093 3.14008 9.07524V13.1669H2.72498C2.62081 13.1668 2.53638 13.2513 2.53638 13.3557L2.53654 13.3558ZM10.6049 10.4161H13.4997V13.167L10.6049 13.1669V10.4161ZM10.6049 9.10368H13.4997V10.0385L10.6049 10.0384V9.10368ZM10.6049 7.93326H13.4997V8.72624H10.6049V7.93326ZM7.09923 5.58637L10.2271 3.95776V13.1667H7.09923V5.58637ZM4.4514 11.6585C4.4514 11.2666 4.76195 10.9476 5.14374 10.9476C5.52554 10.9476 5.83622 11.2664 5.83622 11.6585V13.167H4.4514V11.6585ZM3.51779 9.26403H6.72165V13.1669H6.21393V11.6584C6.21393 11.0583 5.73403 10.5699 5.14374 10.5699C4.55373 10.5699 4.07382 11.0581 4.07382 11.6584V13.1669H3.51779V9.26403Z" fill="#263238"/>
</svg>
