<svg width="15" height="10" viewBox="0 0 15 10" fill="none" xmlns="http://www.w3.org/2000/svg">
<path d="M7.84232 5.51994L5.61711 9.33097L3.39193 5.51994H7.84232ZM8.43843 5.17932H2.7934L5.61711 10.0051L8.43843 5.17932Z" fill="white"/>
<path d="M11.7111 0.779855L13.9363 4.59088H9.48587L11.7111 0.779855ZM11.7111 0.0986328L8.88734 4.92435H14.5348L11.7111 0.0986328Z" fill="white"/>
<path d="M0.0879517 0.0986328L2.45554 4.36699L5.04274 0.205812L0.0879517 0.0986328Z" fill="#072F5E"/>
<path d="M5.61717 0.472534L8.10061 4.71708H3.12891L5.61717 0.472534Z" fill="#072F5E"/>
<path d="M8.74016 5.6438L11.226 10.0051H6.13605L8.66292 5.6438H8.74016Z" fill="#072F5E"/>
<path d="M9.27834 5.37939L11.7111 9.67395L14.1776 5.37939H9.27834Z" fill="#072F5E"/>
</svg>
