<svg width="19" height="17" viewBox="0 0 19 17" fill="none" xmlns="http://www.w3.org/2000/svg">
<rect x="0.863297" y="0.286377" width="16.0256" height="16.0256" rx="2.67093" fill="#F5F7FA"/>
<g clip-path="url(#clip0_0_1582)">
<path d="M4.9843 4.90936C4.30631 4.90936 3.65609 5.17869 3.17668 5.65811L1.61208 7.2227C1.13267 7.70211 0.863342 8.35233 0.863342 9.03032C0.863342 10.4422 2.00787 11.5867 3.41971 11.5867C4.09771 11.5867 4.74792 11.3174 5.22733 10.8379L6.30957 9.7557C6.30957 9.75568 6.3096 9.75573 6.30957 9.7557L9.46286 6.60242C9.69182 6.37346 10.0024 6.24483 10.3262 6.24483C10.8683 6.24483 11.3279 6.59815 11.4872 7.08708L12.4824 6.09191C12.0284 5.38086 11.2323 4.90936 10.3262 4.90936C9.64817 4.90936 8.99796 5.17869 8.51855 5.65811L4.28303 9.89363C4.05406 10.1226 3.74352 10.2512 3.41971 10.2512C2.74542 10.2512 2.19881 9.70462 2.19881 9.03032C2.19881 8.70652 2.32744 8.39598 2.5564 8.16701L4.12099 6.60242C4.34996 6.37346 4.6605 6.24483 4.9843 6.24483C5.52643 6.24483 5.98601 6.59817 6.14536 7.08711L7.14055 6.09193C6.68655 5.38087 5.8905 4.90936 4.9843 4.90936Z" fill="#394149"/>
<path d="M9.62493 9.89363C9.39596 10.1226 9.08542 10.2512 8.76162 10.2512C8.21957 10.2512 7.76002 9.898 7.60063 9.40915L6.60548 10.4043C7.0595 11.1153 7.8555 11.5867 8.76162 11.5867C9.43961 11.5867 10.0898 11.3174 10.5692 10.8379L14.8048 6.60242C15.0337 6.37346 15.3443 6.24483 15.6681 6.24483C16.3424 6.24483 16.889 6.79144 16.889 7.46573C16.889 7.78954 16.7603 8.10008 16.5314 8.32905L14.9668 9.89363C14.7378 10.1226 14.4273 10.2512 14.1035 10.2512C13.5614 10.2512 13.1018 9.89793 12.9424 9.40904L11.9473 10.4042C12.4013 11.1152 13.1973 11.5867 14.1035 11.5867C14.7815 11.5867 15.4317 11.3174 15.9111 10.8379L17.4757 9.27336C17.9551 8.79394 18.2244 8.14373 18.2244 7.46573C18.2244 6.05389 17.0799 4.90936 15.6681 4.90936C14.9901 4.90936 14.3399 5.17869 13.8604 5.65811L9.62493 9.89363Z" fill="#394149"/>
</g>
<defs>
<clipPath id="clip0_0_1582">
<rect width="17.3611" height="6.67733" fill="white" transform="translate(0.863342 4.90936)"/>
</clipPath>
</defs>
</svg>
