<svg width="18" height="17" viewBox="0 0 18 17" fill="none" xmlns="http://www.w3.org/2000/svg">
<g clip-path="url(#clip0_0_1091)">
<path d="M4.68717 5.32318C4.00917 5.32318 3.35896 5.59251 2.87955 6.07192L1.31495 7.63652C0.835538 8.11593 0.566208 8.76615 0.566208 9.44414C0.566208 10.856 1.71073 12.0005 3.12258 12.0005C3.80057 12.0005 4.45079 11.7312 4.9302 11.2518L6.01244 10.1695C6.01244 10.1695 6.01246 10.1695 6.01244 10.1695L9.16572 7.01624C9.39469 6.78728 9.70523 6.65865 10.029 6.65865C10.5711 6.65865 11.0307 7.01197 11.1901 7.5009L12.1853 6.50573C11.7313 5.79468 10.9352 5.32318 10.029 5.32318C9.35104 5.32318 8.70082 5.59251 8.22141 6.07192L3.98589 10.3075C3.75693 10.5364 3.44639 10.665 3.12258 10.665C2.44829 10.665 1.90167 10.1184 1.90167 9.44414C1.90167 9.12033 2.0303 8.80979 2.25927 8.58083L3.82386 7.01624C4.05282 6.78728 4.36336 6.65865 4.68717 6.65865C5.2293 6.65865 5.68888 7.01199 5.84822 7.50093L6.84341 6.50575C6.38942 5.79469 5.59337 5.32318 4.68717 5.32318Z" fill="#394149"/>
<path d="M9.32773 10.3074C9.09877 10.5364 8.78823 10.665 8.46442 10.665C7.92238 10.665 7.46282 10.3118 7.30343 9.82295L6.30829 10.8181C6.7623 11.529 7.55831 12.0005 8.46442 12.0005C9.14241 12.0005 9.79263 11.7311 10.272 11.2517L14.5076 7.01622C14.7365 6.78725 15.0471 6.65862 15.3709 6.65862C16.0452 6.65862 16.5918 7.20524 16.5918 7.87953C16.5918 8.20334 16.4632 8.51388 16.2342 8.74284L14.6696 10.3074C14.4406 10.5364 14.1301 10.665 13.8063 10.665C13.2642 10.665 12.8046 10.3117 12.6453 9.82283L11.6501 10.818C12.1041 11.529 12.9001 12.0005 13.8063 12.0005C14.4843 12.0005 15.1345 11.7311 15.6139 11.2517L17.1785 9.68715C17.6579 9.20774 17.9272 8.55752 17.9272 7.87953C17.9272 6.46768 16.7827 5.32316 15.3709 5.32316C14.6929 5.32316 14.0427 5.59249 13.5633 6.0719L9.32773 10.3074Z" fill="#394149"/>
</g>
<defs>
<clipPath id="clip0_0_1091">
<rect width="17.3611" height="6.67733" fill="white" transform="translate(0.566208 5.32318)"/>
</clipPath>
</defs>
</svg>
