<svg width="17" height="17" viewBox="0 0 17 17" fill="none" xmlns="http://www.w3.org/2000/svg">
<rect x="0.292694" y="0.286377" width="16.0256" height="16.0256" rx="2.67093" fill="#E8F5E9"/>
<g clip-path="url(#clip0_0_1552)">
<path fill-rule="evenodd" clip-rule="evenodd" d="M3.74929 0.351318C5.59317 0.351318 7.08796 1.84609 7.08796 3.68998V0.351318H10.4266C12.2705 0.351318 13.7653 1.84609 13.7653 3.68998C13.7653 5.53386 12.2705 7.02865 10.4266 7.02865C12.2705 7.02865 13.7653 8.52344 13.7653 10.3673C13.7653 11.2829 13.3967 12.1124 12.7999 12.7155L12.7874 12.7281L12.7763 12.7391C12.173 13.3368 11.343 13.706 10.4266 13.706C9.51654 13.706 8.69149 13.3418 8.08923 12.7513C8.08141 12.7436 8.0736 12.7359 8.06582 12.7281C8.05851 12.7208 8.05123 12.7135 8.04399 12.7061C7.45268 12.1037 7.08796 11.2781 7.08796 10.3673C7.08796 12.2112 5.59317 13.706 3.74929 13.706C1.9054 13.706 0.410629 12.2112 0.410629 10.3673V7.02865H3.74929C1.9054 7.02865 0.410629 5.53386 0.410629 3.68998C0.410629 1.84609 1.9054 0.351318 3.74929 0.351318ZM6.42023 3.68998C6.42023 5.16511 5.22442 6.36092 3.74929 6.36092V1.01905C5.22442 1.01905 6.42023 2.21487 6.42023 3.68998ZM13.0976 10.3673C13.0976 8.89219 11.9017 7.69638 10.4266 7.69638C8.9515 7.69638 7.75569 8.89219 7.75569 10.3673H13.0976ZM1.07836 7.69638V10.3673C1.07836 11.8424 2.27418 13.0382 3.74929 13.0382C5.22442 13.0382 6.42023 11.8424 6.42023 10.3673V7.69638H1.07836ZM7.75569 6.36092V1.01905H10.4266C11.9017 1.01905 13.0976 2.21487 13.0976 3.68998C13.0976 5.16511 11.9017 6.36092 10.4266 6.36092H7.75569Z" fill="#5417D7"/>
</g>
<defs>
<clipPath id="clip0_0_1552">
<rect width="13.3547" height="13.3547" fill="white" transform="translate(0.410629 0.351318)"/>
</clipPath>
</defs>
</svg>
