<svg width="17" height="17" viewBox="0 0 17 17" fill="none" xmlns="http://www.w3.org/2000/svg">
<g clip-path="url(#clip0_0_1061)">
<path fill-rule="evenodd" clip-rule="evenodd" d="M4.75087 2.03566C6.59475 2.03566 8.08954 3.53043 8.08954 5.37433V2.03566H11.4282C13.2721 2.03566 14.7669 3.53043 14.7669 5.37433C14.7669 7.2182 13.2721 8.71299 11.4282 8.71299C13.2721 8.71299 14.7669 10.2078 14.7669 12.0517C14.7669 12.9672 14.3983 13.7967 13.8015 14.3999L13.789 14.4125L13.7779 14.4235C13.1746 15.0212 12.3445 15.3903 11.4282 15.3903C10.5181 15.3903 9.69307 15.0262 9.09081 14.4356C9.08299 14.428 9.07518 14.4202 9.0674 14.4125C9.06009 14.4051 9.05281 14.3978 9.04557 14.3904C8.45426 13.7881 8.08954 12.9624 8.08954 12.0517C8.08954 13.8955 6.59475 15.3903 4.75087 15.3903C2.90698 15.3903 1.41221 13.8955 1.41221 12.0517V8.71299H4.75087C2.90698 8.71299 1.41221 7.2182 1.41221 5.37433C1.41221 3.53043 2.90698 2.03566 4.75087 2.03566ZM7.42181 5.37433C7.42181 6.84945 6.226 8.04526 4.75087 8.04526V2.70339C6.226 2.70339 7.42181 3.89921 7.42181 5.37433ZM14.0991 12.0517C14.0991 10.5765 12.9033 9.38072 11.4282 9.38072C9.95308 9.38072 8.75727 10.5765 8.75727 12.0517H14.0991ZM2.07994 9.38072V12.0517C2.07994 13.5268 3.27576 14.7226 4.75087 14.7226C6.226 14.7226 7.42181 13.5268 7.42181 12.0517V9.38072H2.07994ZM8.75727 8.04526V2.70339H11.4282C12.9033 2.70339 14.0991 3.89921 14.0991 5.37433C14.0991 6.84945 12.9033 8.04526 11.4282 8.04526H8.75727Z" fill="#263238"/>
</g>
<defs>
<clipPath id="clip0_0_1061">
<rect width="13.3547" height="13.3547" fill="white" transform="translate(1.41221 2.03566)"/>
</clipPath>
</defs>
</svg>
