<svg width="20" height="17" viewBox="0 0 20 17" fill="none" xmlns="http://www.w3.org/2000/svg">
<g clip-path="url(#clip0_0_1067)">
<path d="M19.2992 7.21609C19.3011 7.20216 19.3011 7.18809 19.2992 7.17417C19.301 7.16283 19.301 7.15126 19.2992 7.13989L19.1632 6.16078C19.1436 6.04364 19.0911 5.93415 19.0116 5.84457L18.9883 5.8179L18.9456 5.77599L16.5906 3.78728L16.6567 3.85206C16.6026 3.78866 16.5348 3.73795 16.4581 3.70367C16.3815 3.66938 16.2979 3.65239 16.2137 3.65395H15.4986C15.3824 3.65169 15.2688 3.68793 15.1761 3.75681C15.0788 3.68834 14.9617 3.65229 14.8419 3.65395H14.1268C14.0331 3.65245 13.9406 3.67527 13.8587 3.7201C13.7768 3.76492 13.7084 3.83016 13.6605 3.9092C13.5867 4.0221 13.5589 4.15812 13.5828 4.29018L13.6722 4.90736C13.613 4.87445 13.546 4.85738 13.4779 4.85784H10.0154C9.89117 4.8586 9.7698 4.8943 9.66564 4.9607C9.56493 5.0225 9.48408 5.111 9.43249 5.21595L9.16434 4.99117C9.05881 4.89544 8.9195 4.84356 8.77574 4.84641H3.34301C3.21835 4.84863 3.09645 4.88278 2.98939 4.94546C2.84294 5.0295 2.7356 5.16614 2.69016 5.32644L0.964744 10.984C0.932505 11.0772 0.929334 11.1777 0.955636 11.2727C0.981938 11.3677 1.03652 11.4529 1.11242 11.5173C1.13219 11.5338 1.15296 11.549 1.17459 11.563C1.17459 11.563 1.13961 11.5402 1.12018 11.5211L3.47515 13.5136C3.57477 13.6036 3.70502 13.6538 3.84042 13.6546H9.31591C9.44095 13.6514 9.56294 13.6159 9.66954 13.5517C9.72983 13.5194 9.78377 13.4769 9.82886 13.426L9.8483 13.3993L9.87939 13.3612L9.9027 13.3193L10.1592 13.5365C10.2574 13.6228 10.3848 13.6703 10.5167 13.6698H16.0038C16.1287 13.6658 16.2505 13.6304 16.3575 13.567C16.4164 13.5327 16.47 13.4904 16.5168 13.4413L16.5362 13.4146L16.5673 13.3765C16.5838 13.3524 16.5982 13.3269 16.61 13.3003C16.6227 13.2772 16.6331 13.253 16.6411 13.2279L18.215 8.06186V8.01614C18.2169 7.99841 18.2169 7.98053 18.215 7.9628V7.92852C18.2169 7.91716 18.2169 7.90559 18.215 7.89422C18.2167 7.87013 18.2167 7.84594 18.215 7.82183H18.7202C18.7641 7.82578 18.8084 7.82578 18.8523 7.82183H18.8873C18.9157 7.81351 18.9431 7.802 18.9689 7.78755H19.0078L19.0777 7.73421L19.1088 7.71135L19.1632 7.64277V7.61993L19.2021 7.55515C19.1999 7.54256 19.1999 7.52966 19.2021 7.51707C19.2 7.51088 19.2 7.5042 19.2021 7.49801C19.2103 7.47568 19.2168 7.45274 19.2215 7.42943C19.2197 7.42191 19.2197 7.41408 19.2215 7.40656C19.2196 7.39522 19.2196 7.38363 19.2215 7.37229C19.2215 7.37229 19.2992 7.2237 19.2992 7.21609Z" fill="black"/>
<path d="M8.93504 5.28069C8.95568 5.29898 8.97009 5.32303 8.97634 5.3496C8.98261 5.37617 8.98039 5.40397 8.97004 5.42927L7.24851 11.083C7.22683 11.1447 7.18248 11.1963 7.12415 11.2278C7.07669 11.2589 7.02176 11.2773 6.96481 11.2811H1.49324C1.44651 11.2789 1.40224 11.2599 1.36888 11.2278C1.34904 11.2098 1.33511 11.1864 1.32888 11.1606C1.32265 11.1348 1.3244 11.1078 1.33391 11.083L3.05932 5.42927C3.0792 5.36677 3.12216 5.31378 3.17979 5.28069C3.22803 5.2518 3.28271 5.23481 3.33912 5.23116H8.81069C8.85705 5.2316 8.90151 5.24931 8.93504 5.28069ZM6.07878 9.94386L7.1086 6.56839H4.22515L3.19921 9.94386H6.07878ZM14.1579 5.33784C14.1766 5.35911 14.1999 5.37597 14.2262 5.38719C14.2524 5.3984 14.2809 5.40367 14.3095 5.4026H15.0206C15.0477 5.40286 15.0744 5.39635 15.0982 5.38369C15.122 5.37102 15.1421 5.35262 15.1566 5.33022C15.1693 5.31272 15.1782 5.29291 15.1829 5.27197C15.1875 5.25103 15.1879 5.22938 15.1838 5.20831L15.0439 4.20253C15.0306 4.15598 15.0067 4.11299 14.974 4.0768C14.9553 4.05553 14.932 4.03867 14.9058 4.02745C14.8795 4.01624 14.851 4.01097 14.8224 4.01204H14.1113C14.0842 4.01178 14.0575 4.01829 14.0337 4.03096C14.0099 4.04362 13.9898 4.06202 13.9753 4.08443C13.9481 4.13776 13.9364 4.17205 13.9481 4.20253L14.0919 5.20831C14.0992 5.25728 14.1224 5.30266 14.1579 5.33784ZM16.4157 4.19491C16.4024 4.14836 16.3785 4.10537 16.3458 4.06918C16.3279 4.04799 16.3053 4.03113 16.2796 4.0199C16.254 4.00867 16.2261 4.00337 16.1981 4.00442H15.4831C15.4564 4.00367 15.4301 4.01001 15.4068 4.02275C15.3836 4.0355 15.3643 4.05417 15.351 4.0768C15.3251 4.1106 15.3139 4.15306 15.3199 4.19491L15.4636 5.20069C15.4727 5.24914 15.4956 5.29408 15.5297 5.33022C15.5487 5.35107 15.5721 5.36766 15.5983 5.37883C15.6244 5.39001 15.6527 5.39552 15.6813 5.39498H16.3963C16.4229 5.39533 16.449 5.38882 16.4722 5.37612C16.4954 5.36341 16.5148 5.34496 16.5284 5.3226C16.542 5.30556 16.5514 5.28575 16.5561 5.26466C16.5608 5.24357 16.5606 5.22171 16.5556 5.20069L16.4157 4.19491ZM13.5323 5.71882L13.4623 5.22355H10.0154C9.96126 5.22647 9.9089 5.24357 9.86381 5.27307C9.8352 5.28837 9.81028 5.30958 9.79082 5.33523C9.77139 5.36089 9.75784 5.39037 9.75114 5.42165L9.46356 6.36647C9.45208 6.39008 9.44815 6.41658 9.45231 6.44242C9.45649 6.46826 9.46853 6.49225 9.48687 6.51125C9.51964 6.54145 9.56241 6.55905 9.60735 6.56078H13.7965L12.7667 9.93625H8.58919C8.53533 9.93745 8.48286 9.95327 8.43765 9.98195C8.38269 10.0162 8.34254 10.0691 8.32494 10.1305L8.03349 11.0754C8.02398 11.0996 8.02148 11.1259 8.02627 11.1515C8.03109 11.1771 8.04298 11.2008 8.06068 11.2201C8.09243 11.2523 8.13553 11.2714 8.18116 11.2735H13.6683C13.725 11.2687 13.7797 11.2504 13.8276 11.2201C13.885 11.1885 13.928 11.1368 13.9481 11.0754L15.5258 5.90931H13.7499C13.7217 5.90985 13.6937 5.90472 13.6677 5.89424C13.6416 5.88375 13.618 5.86813 13.5983 5.84835C13.5662 5.8138 13.5435 5.77187 13.5323 5.72644V5.71882Z" fill="white"/>
</g>
<defs>
<clipPath id="clip0_0_1067">
<rect width="18.3627" height="10.016" fill="white" transform="translate(0.937996 3.65385)"/>
</clipPath>
</defs>
</svg>
