<svg width="17" height="17" viewBox="0 0 17 17" fill="none" xmlns="http://www.w3.org/2000/svg">
<rect x="0.435028" y="0.286377" width="16.0256" height="16.0256" rx="2.67093" fill="#F5F7FA"/>
<g clip-path="url(#clip0_0_1562)">
<path d="M15.124 4.76402C15.124 4.7753 15.124 4.78942 15.1211 4.79788C15.1064 4.90795 15.1064 5.01802 15.1152 5.13092C15.1211 5.15914 15.1269 5.18736 15.1505 5.20994C15.1887 5.25228 15.2475 5.24381 15.271 5.19301C15.2828 5.16761 15.2828 5.14221 15.2769 5.11681C15.2475 5.00956 15.2416 4.89667 15.2387 4.78659C15.2387 4.78095 15.2387 4.77248 15.2387 4.76402C15.271 4.76119 15.3004 4.75837 15.3269 4.75837C15.3475 4.75555 15.3651 4.75273 15.3798 4.74426C15.4239 4.72168 15.4239 4.6737 15.3769 4.65112C15.3592 4.64265 15.3357 4.63983 15.3152 4.63983C15.2416 4.64265 15.1681 4.64265 15.0946 4.64265C15.0681 4.64265 15.0417 4.64548 15.0152 4.6483C15.0005 4.65112 14.9828 4.65112 14.9711 4.65959C14.9505 4.66805 14.9388 4.68217 14.9388 4.70192C14.9417 4.72168 14.9505 4.73297 14.9711 4.74144C14.9828 4.7499 14.9975 4.75273 15.0123 4.75273C15.0475 4.75555 15.0858 4.76119 15.124 4.76402ZM15.9327 4.89384C15.9327 4.89667 15.9356 4.89949 15.9356 4.89949C15.9474 4.97569 15.9591 5.04907 15.9679 5.12245C15.9709 5.14785 15.9738 5.17043 15.9915 5.19019C16.0297 5.23817 16.0885 5.23252 16.115 5.18172C16.1267 5.15632 16.1297 5.13092 16.1238 5.10269C16.1062 5.01802 16.0973 4.93335 16.0797 4.85151C16.0679 4.8007 16.0532 4.75273 16.0385 4.70757C16.0297 4.67935 16.0091 4.65959 15.9738 4.65677C15.9386 4.65112 15.9121 4.66805 15.8974 4.69346C15.8797 4.71603 15.865 4.73861 15.8533 4.76402C15.8327 4.80917 15.815 4.85433 15.7915 4.89667C15.7886 4.90795 15.7856 4.91642 15.7798 4.92489C15.7768 4.91924 15.7739 4.91642 15.7739 4.91642C15.7356 4.84586 15.7004 4.7753 15.6621 4.70757C15.6562 4.70192 15.6533 4.69628 15.6504 4.69063C15.6327 4.66523 15.6121 4.65112 15.5798 4.65112C15.5504 4.65394 15.5269 4.67088 15.5122 4.69628C15.5063 4.70757 15.5063 4.71603 15.5033 4.72732C15.4916 4.81764 15.4769 4.90795 15.4651 4.99827C15.4592 5.04907 15.4563 5.09987 15.4563 5.15067C15.4534 5.16196 15.4563 5.17607 15.4622 5.18736C15.4681 5.20994 15.4857 5.22406 15.5092 5.22688C15.5386 5.2297 15.5592 5.22123 15.568 5.19865C15.5768 5.18172 15.5798 5.16761 15.5827 5.1535C15.5945 5.10269 15.6033 5.05472 15.6122 5.00674C15.618 4.97851 15.621 4.95593 15.6298 4.92489C15.6357 4.93618 15.6415 4.94464 15.6474 4.95311C15.6739 4.98698 15.7004 5.02085 15.7327 5.04907C15.7651 5.07165 15.7915 5.06883 15.818 5.04342C15.8239 5.03778 15.8268 5.03496 15.8327 5.02931C15.8592 4.9898 15.8915 4.95029 15.918 4.91077C15.9239 4.90513 15.9268 4.89949 15.9327 4.89384Z" fill="#3A3B7B"/>
<path d="M9.15711 4.81943C9.13667 4.87306 9.13277 4.91171 9.1422 4.94382C9.15263 4.9875 9.17968 5.0018 9.2164 4.99069C9.5618 4.90871 10.3192 5.14139 10.5996 5.20624C10.6657 5.21986 10.7195 5.13793 10.6744 5.06447C10.6086 4.99332 9.85149 4.68874 9.56263 4.67213C9.4494 4.66599 9.24698 4.63812 9.15711 4.81943Z" fill="#3A3B7B"/>
<path d="M12.1172 3.83345C12.154 3.85384 12.1745 3.8733 12.1847 3.89503C12.1998 3.92354 12.1918 3.94326 12.1664 3.95333C11.9381 4.06028 11.6343 4.52071 11.5117 4.67951C11.4819 4.71604 11.4134 4.69481 11.403 4.63474C11.4051 4.56681 11.6744 4.06714 11.8247 3.93105C11.8838 3.87791 11.9814 3.77366 12.1172 3.83345Z" fill="#3A3B7B"/>
<path d="M10.2989 3.60681C10.3431 3.57482 10.3891 3.56361 10.4126 3.5844C10.7571 3.86716 10.9397 4.31492 11.0528 4.72483C11.0571 4.73438 11.0574 4.74809 11.054 4.76238C11.0525 4.7746 11.0432 4.78751 11.0285 4.7975C11.0127 4.80852 10.9991 4.81188 10.9927 4.80238C10.8417 4.60529 9.97944 3.83844 10.2989 3.60681Z" fill="#3A3B7B"/>
<path d="M3.00421 8.509C3.08677 8.45001 3.17653 8.40089 3.27151 8.36278C3.37088 8.33552 3.4768 8.34003 3.57326 8.37568C3.6697 8.41132 3.75145 8.47613 3.8061 8.56032C3.855 8.64429 3.87412 8.74124 3.86062 8.83657C3.84713 8.93187 3.80173 9.0204 3.73126 9.08881C3.67663 9.14426 3.6146 9.19256 3.54683 9.23248C3.24479 9.41976 2.94006 9.59677 2.63534 9.78405C2.57299 9.83092 2.50684 9.87297 2.43753 9.90977C2.33212 9.96022 2.21164 9.97373 2.09693 9.94797C1.98223 9.92222 1.88052 9.85878 1.80938 9.76867C1.7562 9.70486 1.71132 9.63508 1.67573 9.56086C1.38705 8.9785 1.08767 8.39869 0.809682 7.80606C0.681377 7.54953 0.577131 7.25449 0.475557 6.96972C0.431612 6.88698 0.42303 6.79106 0.45164 6.70234C0.480249 6.61362 0.543793 6.53911 0.628754 6.49466C0.713715 6.45021 0.813389 6.43934 0.90658 6.46434C0.999771 6.48933 1.07913 6.54824 1.12777 6.62851C1.27727 6.81921 1.40962 7.02176 1.52337 7.23398C1.81205 7.74706 2.08737 8.26015 2.36536 8.75786C2.38155 8.78536 2.3994 8.8119 2.41882 8.83738C2.62806 8.75295 2.82486 8.64255 3.00421 8.509Z" fill="#3A3B7B"/>
<path d="M5.989 8.33001C5.32878 9.07142 4.22216 8.88414 3.66618 7.92979C3.27057 7.2525 3.20107 6.13395 4.06179 5.42845C4.24558 5.28075 4.46536 5.18013 4.70062 5.13598C4.98908 5.09629 5.28323 5.14514 5.54102 5.27553C5.79882 5.40593 6.00707 5.6112 6.13603 5.86202C6.60647 6.68297 6.53965 7.72968 5.989 8.33001ZM5.7217 6.60087C5.65156 6.39913 5.51085 6.2269 5.32342 6.11342C5.21737 6.04087 5.0885 6.0056 4.95852 6.01354C4.82853 6.02149 4.70537 6.07216 4.60974 6.15704C4.22751 6.48286 4.14731 7.25508 4.4253 7.7143C4.46074 7.78918 4.51277 7.85572 4.5778 7.90928C4.64283 7.96284 4.71927 8.00212 4.80176 8.02435C4.88426 8.04659 4.97081 8.05126 5.05539 8.03803C5.13997 8.02479 5.22049 7.99398 5.29137 7.94775C5.49857 7.79356 5.65057 7.58126 5.72625 7.34035C5.80196 7.09942 5.79756 6.84185 5.7137 6.60345L5.7217 6.60087Z" fill="#3A3B7B"/>
<path d="M8.68338 6.92413C8.6158 6.93808 8.54597 6.93892 8.47802 6.92657C8.4101 6.91423 8.34541 6.88899 8.2878 6.85231C8.23738 6.82462 8.19398 6.78658 8.16072 6.74087C8.12747 6.69517 8.10519 6.64297 8.09548 6.58801C8.08575 6.53306 8.08887 6.47673 8.10454 6.42306C8.12023 6.36939 8.14814 6.31972 8.18623 6.27763C8.25258 6.19304 8.34677 6.13248 8.45352 6.10575C8.73223 6.02812 9.01914 5.98078 9.30888 5.96465C9.37254 5.95755 9.43703 5.96272 9.49857 5.97986C9.56013 5.99702 9.61747 6.02578 9.66728 6.06451C9.71707 6.10322 9.75831 6.1511 9.78857 6.20532C9.81881 6.25954 9.83749 6.31902 9.84347 6.38026C9.927 6.68107 9.93614 6.99646 9.87019 7.30127C9.62964 8.28641 8.801 8.62504 7.8708 8.30949C7.60969 8.22512 7.38075 8.06792 7.21325 7.85797C6.98984 7.60514 6.83145 7.3055 6.75081 6.98315C6.68549 6.69609 6.69264 6.39824 6.77171 6.1144C6.85075 5.83056 6.99939 5.56897 7.20522 5.3515C7.40056 5.11513 7.6541 4.92911 7.94298 4.81018C8.12552 4.71361 8.33913 4.68616 8.54173 4.73322C8.58769 4.74543 8.6294 4.76921 8.66256 4.80211C8.69571 4.83502 8.71909 4.87583 8.73028 4.92032C8.74147 4.96482 8.74003 5.01137 8.72616 5.05516C8.71226 5.09895 8.68643 5.13838 8.65133 5.16935C8.58457 5.22734 8.51205 5.2789 8.4348 5.32328C8.19716 5.46853 7.99037 5.65569 7.82536 5.87485C7.7172 6.01667 7.64271 6.17953 7.60716 6.35194C7.57158 6.52435 7.57582 6.70215 7.61955 6.87284C7.68017 7.10556 7.81469 7.31445 8.00445 7.47058C8.59251 7.98369 9.35699 7.48853 9.22334 6.78816C9.02822 6.83435 8.85714 6.88309 8.68338 6.92413Z" fill="#3A3B7B"/>
<path d="M12.2759 8.37106C11.4072 8.88417 10.4182 8.37106 10.2017 7.29357C10.044 6.52393 10.3434 5.44642 11.3912 5.03595C11.6141 4.95049 11.8559 4.92049 12.0942 4.94872C12.3804 4.99901 12.643 5.13426 12.8449 5.3354C13.0468 5.53654 13.1778 5.79341 13.2195 6.06984C13.3959 6.9857 12.995 7.96316 12.2759 8.37106ZM12.578 6.64449C12.5777 6.43138 12.4992 6.22515 12.3561 6.06214C12.2797 5.96131 12.1691 5.88907 12.0434 5.85771C11.9176 5.82638 11.7844 5.83786 11.6665 5.89026C11.196 6.08522 10.8646 6.79329 10.9849 7.3141C10.9941 7.39583 11.0217 7.47465 11.066 7.54504C11.1102 7.61544 11.1699 7.67571 11.2409 7.72165C11.312 7.76758 11.3926 7.79808 11.4772 7.81099C11.5618 7.82389 11.6483 7.81892 11.7306 7.7964C11.9793 7.71303 12.1946 7.55721 12.3465 7.3507C12.4984 7.14418 12.5794 6.89729 12.578 6.64449Z" fill="#3A3B7B"/>
<path d="M14.098 8.58658C14.0849 8.68047 14.0335 8.76552 13.9551 8.82302C13.8766 8.8805 13.7776 8.90574 13.6797 8.89315C13.5819 8.88056 13.4933 8.83119 13.4334 8.75588C13.3735 8.68061 13.3472 8.58555 13.3603 8.49165C13.3734 8.39776 13.4249 8.31271 13.5033 8.25521C13.5818 8.19771 13.6808 8.17249 13.7786 8.18508C13.8765 8.19767 13.9651 8.24702 14.025 8.32232C14.0849 8.39762 14.1112 8.49269 14.098 8.58658ZM13.8655 5.12574C13.9163 5.05122 13.9909 4.99447 14.0781 4.96396C14.1653 4.93344 14.2604 4.9308 14.3493 4.95642C14.4397 4.97812 14.5195 5.02895 14.5755 5.10041C14.6314 5.17187 14.6601 5.25961 14.6567 5.34894C14.6449 5.49223 14.6226 5.63454 14.5899 5.7748C14.5017 6.24942 14.4161 6.72402 14.3226 7.19352C14.2798 7.3808 14.2237 7.56038 14.1622 7.75022C14.1408 7.80957 14.1051 7.86319 14.058 7.90672C14.0287 7.93946 13.9913 7.96457 13.9492 7.97973C13.9071 7.99491 13.8617 7.99964 13.8172 7.99351C13.7727 7.98737 13.7305 7.97055 13.6945 7.94463C13.6586 7.91869 13.6301 7.88447 13.6116 7.84515C13.5798 7.7746 13.5625 7.69879 13.5608 7.62195C13.5608 7.30383 13.5608 6.98315 13.5822 6.66245C13.6185 6.2048 13.69 5.75033 13.796 5.30276C13.8085 5.24279 13.832 5.18545 13.8655 5.13344V5.12574Z" fill="#3A3B7B"/>
<path fill-rule="evenodd" clip-rule="evenodd" d="M1.87489 10.6482C1.84333 10.7158 1.83468 10.7912 1.8501 10.8637C1.86036 10.9594 1.8829 11.0534 1.91719 11.1438C1.96001 11.2544 2.00793 11.3638 2.06701 11.4987C2.0806 11.5297 2.0948 11.5621 2.10965 11.5962C2.18933 11.7789 2.2893 12.0123 2.42264 12.3502C2.46039 12.4462 2.4939 12.543 2.52765 12.6404C2.54129 12.6798 2.55497 12.7193 2.56898 12.7589C2.61918 12.8996 2.70557 13.0261 2.82007 13.1263C2.86869 13.1813 2.93318 13.2215 3.0055 13.2416C3.07923 13.262 3.15764 13.2607 3.23059 13.2378C3.30353 13.2149 3.3676 13.1715 3.41447 13.1132C3.46043 13.056 3.48775 12.987 3.49307 12.915C3.52288 12.7748 3.5127 12.6294 3.46357 12.4941C3.38558 12.2696 3.29674 12.0448 3.1943 11.8249L3.19382 11.8239C3.0253 11.4798 2.85399 11.1381 2.67457 10.7963L2.67323 10.7939C2.62071 10.7049 2.55245 10.6252 2.47153 10.5587C2.41899 10.4992 2.34652 10.4591 2.2665 10.4453C2.18476 10.4312 2.10047 10.4454 2.02866 10.4854C1.96072 10.5227 1.90687 10.5797 1.87489 10.6482Z" fill="#3A3B7B"/>
<path fill-rule="evenodd" clip-rule="evenodd" d="M4.44892 9.80094C4.18467 9.73525 3.90869 9.72568 3.64023 9.77291C3.43229 9.79256 3.22779 9.83859 3.08578 9.92978C3.01355 9.97619 2.95515 10.0358 2.92267 10.1115C2.89001 10.1877 2.88584 10.2748 2.91261 10.3718C2.96147 10.5496 3.02494 10.7224 3.08817 10.8947L3.09842 10.9226L3.09867 10.9232C3.28907 11.4237 3.4813 11.9224 3.67527 12.4195C3.69789 12.4979 3.72988 12.5734 3.77059 12.6447L3.77135 12.646C3.82513 12.7346 3.8941 12.8138 3.97536 12.8803C4.016 12.9168 4.06626 12.9422 4.12076 12.9535C4.17579 12.9649 4.23302 12.9616 4.28622 12.9439C4.33943 12.9262 4.38655 12.8948 4.42246 12.8532C4.45779 12.8123 4.48093 12.7629 4.48942 12.7104C4.52448 12.5678 4.51325 12.4183 4.45721 12.2819C4.43973 12.236 4.42601 12.1891 4.41155 12.1398C4.40673 12.1233 4.40184 12.1066 4.39669 12.0895C4.84069 11.923 5.31313 11.699 5.47926 11.1779C5.54431 10.9978 5.54974 10.8028 5.49477 10.6197C5.43976 10.4363 5.32689 10.2738 5.17172 10.1545C4.96053 9.98745 4.71384 9.86678 4.44892 9.80094ZM3.71645 10.4401C3.72519 10.4376 3.734 10.4354 3.74283 10.4333C4.0319 10.3897 4.32764 10.4478 4.57562 10.5969C4.6849 10.6699 4.72966 10.7509 4.73735 10.8289C4.74529 10.9092 4.71487 10.9962 4.65376 11.0798C4.53829 11.2378 4.32757 11.3643 4.13723 11.3879C3.99847 11.0812 3.85756 10.762 3.71645 10.4401Z" fill="#3A3B7B"/>
<path d="M6.21063 9.23957C6.52531 9.10008 6.91512 9.07598 7.22014 9.17406C7.29697 9.19553 7.36361 9.24199 7.40869 9.30547C7.45348 9.36856 7.47415 9.44459 7.46724 9.52059C7.46679 9.56993 7.45417 9.61847 7.43043 9.66226C7.40627 9.70684 7.37128 9.74517 7.32842 9.77404C7.28556 9.80289 7.23608 9.82144 7.18419 9.82806C7.13227 9.83471 7.07948 9.82925 7.03023 9.81215L7.02648 9.81086L7.02297 9.80907C6.99777 9.79642 6.971 9.78689 6.94332 9.78069L6.94157 9.78031C6.727 9.72561 6.5246 9.81625 6.45067 9.92761C6.4154 9.98071 6.41103 10.0343 6.4404 10.0831C6.47185 10.1353 6.54899 10.1939 6.70507 10.2357C6.748 10.247 6.79201 10.2579 6.83664 10.269C6.96006 10.2996 7.08833 10.3315 7.21236 10.3757L7.21283 10.3759C7.78504 10.5848 7.99812 11.0176 7.92517 11.4246C7.85301 11.8272 7.50275 12.1935 6.97602 12.2799C6.78436 12.3207 6.5849 12.3127 6.39738 12.2569C6.20939 12.2008 6.03995 12.0986 5.90587 11.9602L5.90237 11.9566C5.86005 11.9045 5.83158 11.8432 5.81896 11.7782C5.80735 11.7196 5.81347 11.659 5.83656 11.6036C5.85951 11.5485 5.89834 11.5008 5.94844 11.466C6.00137 11.4266 6.06516 11.403 6.13194 11.3981C6.1985 11.3932 6.2651 11.4071 6.32354 11.438C6.38191 11.4651 6.43621 11.4996 6.48494 11.5407L6.48586 11.5414C6.57207 11.6171 6.67638 11.6368 6.7764 11.6185C6.87788 11.6 6.97331 11.5424 7.03469 11.4659C7.09566 11.3899 7.12014 11.2997 7.09109 11.212C7.06186 11.1238 6.97396 11.0249 6.78084 10.9422C6.73036 10.9216 6.67802 10.905 6.62357 10.8889C6.60888 10.8845 6.59395 10.8802 6.57884 10.8758C6.53858 10.8641 6.49716 10.852 6.45654 10.8387C6.42856 10.8295 6.40081 10.8209 6.37333 10.8123C6.29821 10.7888 6.22497 10.7659 6.1545 10.7352C6.0011 10.6851 5.86857 10.5888 5.77664 10.4607C5.68433 10.332 5.63788 10.1782 5.6442 10.0221C5.64469 9.64184 5.89426 9.37983 6.21063 9.23957Z" fill="#3A3B7B"/>
<path d="M10.2002 9.19903C10.1392 9.17042 10.0717 9.15685 10.0039 9.15951C9.93603 9.16219 9.86994 9.18103 9.81159 9.21437C9.7536 9.24746 9.70504 9.2938 9.67025 9.34928C9.63835 9.39599 9.61627 9.44823 9.60527 9.50309C9.59426 9.55791 9.59453 9.61424 9.60603 9.66892C9.61739 9.7392 9.62999 9.80755 9.64243 9.87495C9.66303 9.98649 9.68307 10.0955 9.6963 10.2067L9.69679 10.2095C9.7269 10.3839 9.74266 10.5602 9.74407 10.7369L9.74421 10.7394C9.75449 10.9302 9.68675 11.1173 9.5555 11.261L9.55342 11.2636C9.51071 11.3161 9.45362 11.3562 9.3885 11.3794C9.3234 11.4025 9.25288 11.4079 9.1848 11.3947C9.11672 11.3816 9.05379 11.3506 9.00304 11.3051C8.95229 11.2596 8.91568 11.2013 8.89741 11.137C8.85841 11.0016 8.83583 10.8622 8.8301 10.7218L8.89672 9.70375C8.8977 9.69046 8.89883 9.67682 8.89997 9.66304C8.9025 9.63213 8.9051 9.60064 8.90618 9.57126C8.90775 9.52804 8.9064 9.48359 8.89591 9.44152C8.88517 9.39852 8.86475 9.35762 8.82853 9.32278C8.79266 9.2883 8.74424 9.26286 8.68331 9.24555C8.57313 9.21494 8.47997 9.21591 8.40234 9.24753C8.32466 9.27915 8.27145 9.33786 8.23379 9.40568C8.19642 9.47292 8.17241 9.55254 8.15425 9.63228C8.14078 9.69145 8.12995 9.75357 8.11966 9.8127C8.1161 9.83308 8.11262 9.85308 8.10911 9.87251L8.10902 9.87308C8.05396 10.1973 8.03757 10.5266 8.06017 10.8544C8.06438 11.0316 8.10287 11.2064 8.17371 11.3701C8.25363 11.5813 8.39837 11.7642 8.58885 11.8948C8.77972 12.0257 9.0075 12.0978 9.24203 12.1016C9.47655 12.1054 9.70675 12.0407 9.90213 11.9161C10.0972 11.7917 10.2484 11.6135 10.3357 11.4049C10.4578 11.1392 10.5151 10.8502 10.5033 10.56C10.4961 10.3481 10.4841 10.1347 10.4721 9.92224C10.4663 9.81805 10.4604 9.71407 10.4552 9.61074C10.4525 9.50712 10.4169 9.40675 10.3531 9.32311C10.3137 9.27024 10.2611 9.22759 10.2002 9.19903Z" fill="#3A3B7B"/>
<path d="M12.3599 10.7953C12.3537 10.8028 12.3472 10.8106 12.3403 10.8188C12.2907 10.544 12.2447 10.2692 12.1986 9.99412C12.1821 9.89541 12.1655 9.79628 12.1488 9.69743L12.1469 9.68641L12.1408 9.67688C12.1293 9.65894 12.1282 9.64136 12.1282 9.60387V9.59953L12.1275 9.59524C12.115 9.51781 12.0785 9.44574 12.0228 9.38848C11.9672 9.33138 11.895 9.29164 11.8156 9.27439C11.7363 9.25562 11.653 9.25975 11.5761 9.28629C11.4994 9.31276 11.4326 9.36034 11.384 9.42305C11.3435 9.47118 11.3104 9.52456 11.2855 9.5816C11.2291 9.70447 11.1723 9.82766 11.1152 9.95117L11.1143 9.9533C10.9719 10.2617 10.8286 10.5721 10.6894 10.8849L10.689 10.886C10.6035 11.0888 10.533 11.3026 10.4627 11.5157C10.4487 11.5582 10.4347 11.6007 10.4205 11.6431C10.3952 11.7104 10.3841 11.7818 10.3879 11.8532C10.3832 11.9171 10.3992 11.9809 10.4336 12.0359C10.4686 12.092 10.5212 12.1361 10.5837 12.1621C10.65 12.19 10.7242 12.1959 10.7944 12.179C10.8645 12.162 10.9267 12.1232 10.9713 12.0686C11.0282 12.0014 11.0772 11.9281 11.1172 11.8504C11.235 11.6189 11.3477 11.3847 11.4599 11.1514C11.5033 11.0612 11.5454 10.9804 11.5934 10.8924C11.5967 10.9033 11.6001 10.9138 11.6035 10.9244C11.6538 11.1369 11.7387 11.3404 11.855 11.5275C11.877 11.5671 11.9077 11.6018 11.9449 11.629C11.9825 11.6566 12.026 11.676 12.0723 11.6858C12.1185 11.6956 12.1664 11.6957 12.2127 11.6859C12.2589 11.6762 12.3025 11.6568 12.3402 11.6294L12.4148 11.5758L12.9936 11.1078L12.9594 11.3172C12.9124 11.605 12.8658 11.8904 12.8162 12.1759C12.7838 12.3024 12.7839 12.4345 12.8164 12.561C12.8305 12.6322 12.8663 12.6977 12.9194 12.7493C12.9729 12.8012 13.0415 12.8365 13.1162 12.8506C13.1909 12.8647 13.2683 12.8569 13.3383 12.8282C13.4073 12.8 13.466 12.7528 13.507 12.6926C13.6024 12.5789 13.6618 12.4413 13.6782 12.2962C13.7027 12.0912 13.7305 11.8834 13.7582 11.6756C13.7902 11.4362 13.8222 11.1968 13.8492 10.9621L13.8493 10.9613C13.8753 10.7043 13.8879 10.4463 13.887 10.1881C13.8927 10.1065 13.8716 10.0252 13.8265 9.95575C13.7812 9.88603 13.7142 9.83184 13.635 9.80083C13.5526 9.76488 13.4603 9.75526 13.3718 9.77344C13.2838 9.79148 13.2042 9.83597 13.1445 9.90043C13.0377 9.9952 12.9376 10.0966 12.8447 10.204L12.844 10.2048C12.7426 10.3261 12.6419 10.4498 12.5418 10.5727C12.4809 10.6474 12.4202 10.7219 12.3599 10.7953Z" fill="#3A3B7B"/>
</g>
<defs>
<clipPath id="clip0_0_1562">
<rect width="15.6917" height="9.68213" fill="white" transform="translate(0.435028 3.57385)"/>
</clipPath>
</defs>
</svg>
