<svg width="17" height="17" viewBox="0 0 17 17" fill="none" xmlns="http://www.w3.org/2000/svg">
<g clip-path="url(#clip0_0_1071)">
<path d="M15.3939 5.17783C15.3939 5.18912 15.3939 5.20323 15.3909 5.2117C15.3762 5.32177 15.3762 5.43184 15.385 5.54474C15.3909 5.57296 15.3968 5.60118 15.4203 5.62376C15.4586 5.6661 15.5174 5.65763 15.5409 5.60683C15.5527 5.58143 15.5527 5.55602 15.5468 5.53062C15.5174 5.42338 15.5115 5.31048 15.5085 5.20041C15.5085 5.19477 15.5085 5.1863 15.5085 5.17783C15.5409 5.17501 15.5703 5.17219 15.5968 5.17219C15.6174 5.16937 15.635 5.16654 15.6497 5.15808C15.6938 5.1355 15.6938 5.08752 15.6467 5.06494C15.6291 5.05647 15.6056 5.05365 15.585 5.05365C15.5115 5.05647 15.438 5.05647 15.3645 5.05647C15.338 5.05647 15.3115 5.0593 15.2851 5.06212C15.2703 5.06494 15.2527 5.06494 15.241 5.07341C15.2204 5.08187 15.2086 5.09598 15.2086 5.11574C15.2115 5.1355 15.2204 5.14679 15.241 5.15526C15.2527 5.16372 15.2674 5.16654 15.2821 5.16654C15.3174 5.16937 15.3556 5.17501 15.3939 5.17783ZM16.2025 5.30766C16.2025 5.31048 16.2055 5.3133 16.2055 5.3133C16.2172 5.38951 16.229 5.46289 16.2378 5.53627C16.2408 5.56167 16.2437 5.58425 16.2613 5.604C16.2996 5.65198 16.3584 5.64634 16.3848 5.59554C16.3966 5.57014 16.3995 5.54474 16.3937 5.51651C16.376 5.43184 16.3672 5.34717 16.3496 5.26533C16.3378 5.21452 16.3231 5.16654 16.3084 5.12139C16.2996 5.09316 16.279 5.07341 16.2437 5.07058C16.2084 5.06494 16.1819 5.08187 16.1672 5.10728C16.1496 5.12985 16.1349 5.15243 16.1231 5.17783C16.1025 5.22299 16.0849 5.26815 16.0614 5.31048C16.0584 5.32177 16.0555 5.33024 16.0496 5.3387C16.0467 5.33306 16.0437 5.33024 16.0437 5.33024C16.0055 5.25968 15.9702 5.18912 15.932 5.12139C15.9261 5.11574 15.9232 5.1101 15.9202 5.10445C15.9026 5.07905 15.882 5.06494 15.8497 5.06494C15.8203 5.06776 15.7967 5.0847 15.782 5.1101C15.7761 5.12139 15.7761 5.12985 15.7732 5.14114C15.7614 5.23146 15.7467 5.32177 15.735 5.41209C15.7291 5.46289 15.7261 5.51369 15.7261 5.56449C15.7232 5.57578 15.7261 5.58989 15.732 5.60118C15.7379 5.62376 15.7556 5.63787 15.7791 5.64069C15.8085 5.64352 15.8291 5.63505 15.8379 5.61247C15.8467 5.59554 15.8497 5.58143 15.8526 5.56732C15.8644 5.51651 15.8732 5.46853 15.882 5.42055C15.8879 5.39233 15.8908 5.36975 15.8997 5.3387C15.9055 5.35 15.9114 5.35846 15.9173 5.36693C15.9437 5.4008 15.9702 5.43467 16.0026 5.46289C16.0349 5.48547 16.0614 5.48265 16.0878 5.45724C16.0937 5.4516 16.0967 5.44878 16.1025 5.44313C16.129 5.40362 16.1614 5.36411 16.1878 5.32459C16.1937 5.31895 16.1967 5.3133 16.2025 5.30766Z" fill="#3A3B7B"/>
<path d="M9.42698 5.23328C9.40653 5.28692 9.40263 5.32556 9.41207 5.35768C9.42249 5.40136 9.44955 5.41565 9.48627 5.40455C9.83167 5.32257 10.5891 5.55525 10.8695 5.6201C10.9356 5.63372 10.9894 5.55178 10.9443 5.47832C10.8784 5.40718 10.1214 5.1026 9.8325 5.08599C9.71927 5.07985 9.51685 5.05198 9.42698 5.23328Z" fill="#3A3B7B"/>
<path d="M12.387 4.24731C12.4238 4.2677 12.4444 4.28715 12.4546 4.30889C12.4697 4.3374 12.4617 4.35712 12.4363 4.36719C12.208 4.47413 11.9042 4.93457 11.7815 5.09336C11.7518 5.12989 11.6832 5.10867 11.6729 5.04859C11.675 4.98067 11.9443 4.481 12.0946 4.3449C12.1537 4.29177 12.2513 4.18751 12.387 4.24731Z" fill="#3A3B7B"/>
<path d="M10.5688 4.02067C10.613 3.98868 10.659 3.97747 10.6824 3.99826C11.0269 4.28101 11.2096 4.72877 11.3227 5.13869C11.327 5.14824 11.3272 5.16194 11.3238 5.17624C11.3224 5.18846 11.3131 5.20137 11.2983 5.21135C11.2826 5.22238 11.269 5.22574 11.2626 5.21624C11.1116 5.01915 10.2493 4.2523 10.5688 4.02067Z" fill="#3A3B7B"/>
<path d="M3.27408 8.92286C3.35664 8.86387 3.4464 8.81475 3.54138 8.77664C3.64075 8.74937 3.74667 8.75389 3.84313 8.78953C3.93957 8.82518 4.02132 8.88999 4.07597 8.97418C4.12486 9.05815 4.14398 9.1551 4.13049 9.25042C4.11699 9.34573 4.0716 9.43425 4.00112 9.50267C3.94649 9.55812 3.88447 9.60642 3.8167 9.64634C3.51466 9.83362 3.20992 10.0106 2.9052 10.1979C2.84285 10.2448 2.77671 10.2868 2.7074 10.3236C2.60198 10.3741 2.48151 10.3876 2.3668 10.3618C2.2521 10.3361 2.15039 10.2726 2.07925 10.1825C2.02607 10.1187 1.98119 10.0489 1.9456 9.97471C1.65691 9.39236 1.35754 8.81255 1.07955 8.21992C0.951244 7.96338 0.846998 7.66834 0.745424 7.38358C0.701479 7.30084 0.692897 7.20492 0.721507 7.1162C0.750116 7.02747 0.81366 6.95297 0.898621 6.90852C0.983582 6.86407 1.08326 6.8532 1.17645 6.87819C1.26964 6.90319 1.34899 6.9621 1.39763 7.04237C1.54714 7.23306 1.67949 7.43562 1.79324 7.64783C2.08192 8.16092 2.35724 8.67401 2.63523 9.17171C2.65142 9.19922 2.66927 9.22576 2.68869 9.25124C2.89793 9.16681 3.09472 9.05641 3.27408 8.92286Z" fill="#3A3B7B"/>
<path d="M6.25886 8.74389C5.59864 9.4853 4.49202 9.29801 3.93604 8.34366C3.54042 7.66638 3.47093 6.54783 4.33165 5.84232C4.51544 5.69462 4.73522 5.594 4.97048 5.54986C5.25894 5.51017 5.55309 5.55901 5.81088 5.6894C6.06868 5.8198 6.27693 6.02507 6.40589 6.27589C6.87633 7.09685 6.8095 8.14355 6.25886 8.74389ZM5.99156 7.01475C5.92142 6.81301 5.78071 6.64077 5.59328 6.52729C5.48723 6.45475 5.35836 6.41947 5.22838 6.42741C5.09839 6.43536 4.97523 6.48604 4.8796 6.57091C4.49737 6.89673 4.41717 7.66895 4.69516 8.12817C4.7306 8.20305 4.78263 8.26959 4.84766 8.32315C4.91269 8.37671 4.98913 8.41599 5.07162 8.43822C5.15412 8.46046 5.24067 8.46513 5.32525 8.4519C5.40983 8.43866 5.49035 8.40785 5.56123 8.36162C5.76843 8.20743 5.92043 7.99513 5.99611 7.75422C6.07181 7.51329 6.06742 7.25572 5.98356 7.01732L5.99156 7.01475Z" fill="#3A3B7B"/>
<path d="M8.95325 7.33799C8.88566 7.35194 8.81584 7.35277 8.74789 7.34043C8.67997 7.32808 8.61527 7.30285 8.55766 7.26616C8.50725 7.23848 8.46385 7.20043 8.43058 7.15473C8.39734 7.10903 8.37506 7.05683 8.36535 7.00186C8.35562 6.94692 8.35874 6.89058 8.37441 6.83691C8.3901 6.78325 8.41801 6.73358 8.45609 6.69148C8.52245 6.6069 8.61664 6.54634 8.72339 6.5196C9.0021 6.44197 9.28901 6.39464 9.57875 6.37851C9.64241 6.3714 9.7069 6.37657 9.76844 6.39372C9.82999 6.41088 9.88733 6.43964 9.93714 6.47837C9.98693 6.51707 10.0282 6.56496 10.0584 6.61918C10.0887 6.6734 10.1074 6.73288 10.1133 6.79412C10.1969 7.09492 10.206 7.41032 10.1401 7.71513C9.89951 8.70026 9.07087 9.0389 8.14067 8.72335C7.87956 8.63898 7.65061 8.48178 7.48312 8.27183C7.25971 8.01899 7.10131 7.71935 7.02068 7.397C6.95536 7.10995 6.96251 6.81209 7.04157 6.52825C7.12061 6.24441 7.26926 5.98283 7.47509 5.76536C7.67043 5.52899 7.92396 5.34296 8.21285 5.22404C8.39539 5.12747 8.609 5.10001 8.8116 5.14708C8.85755 5.15928 8.89927 5.18307 8.93243 5.21597C8.96558 5.24887 8.98896 5.28968 9.00015 5.33418C9.01133 5.37867 9.0099 5.42523 8.99602 5.46902C8.98212 5.51281 8.9563 5.55223 8.92119 5.58321C8.85444 5.6412 8.78192 5.69276 8.70467 5.73713C8.46703 5.88238 8.26024 6.06954 8.09523 6.28871C7.98707 6.43053 7.91258 6.59339 7.87702 6.7658C7.84145 6.9382 7.84568 7.116 7.88942 7.28669C7.95003 7.51942 8.08456 7.72831 8.27431 7.88443C8.86237 8.39754 9.62685 7.90239 9.4932 7.20202C9.29809 7.24821 9.127 7.29695 8.95325 7.33799Z" fill="#3A3B7B"/>
<path d="M12.5458 8.7849C11.6771 9.29801 10.6881 8.7849 10.4715 7.70741C10.3138 6.93777 10.6132 5.86027 11.661 5.44979C11.884 5.36433 12.1258 5.33433 12.364 5.36256C12.6503 5.41285 12.9129 5.5481 13.1147 5.74924C13.3166 5.95038 13.4477 6.20726 13.4894 6.48368C13.6658 7.39954 13.2648 8.377 12.5458 8.7849ZM12.8479 7.05834C12.8476 6.84522 12.769 6.63899 12.626 6.47598C12.5495 6.37515 12.439 6.30291 12.3132 6.27155C12.1875 6.24022 12.0543 6.2517 11.9363 6.3041C11.4659 6.49906 11.1345 7.20713 11.2547 7.72794C11.2639 7.80967 11.2916 7.88849 11.3358 7.95888C11.3801 8.02928 11.4398 8.08955 11.5108 8.1355C11.5818 8.18142 11.6625 8.21192 11.747 8.22483C11.8316 8.23773 11.9181 8.23276 12.0005 8.21025C12.2492 8.12687 12.4645 7.97105 12.6164 7.76454C12.7683 7.55802 12.8492 7.31113 12.8479 7.05834Z" fill="#3A3B7B"/>
<path d="M14.3678 9.00043C14.3547 9.09432 14.3033 9.17937 14.2248 9.23687C14.1464 9.29435 14.0474 9.31959 13.9495 9.307C13.8517 9.29441 13.7631 9.24503 13.7032 9.16973C13.6433 9.09446 13.617 8.99939 13.6301 8.9055C13.6432 8.8116 13.6947 8.72656 13.7731 8.66906C13.8516 8.61156 13.9506 8.58634 14.0484 8.59893C14.1463 8.61152 14.2349 8.66087 14.2948 8.73617C14.3547 8.81147 14.381 8.90653 14.3678 9.00043ZM14.1353 5.53959C14.1861 5.46507 14.2607 5.40832 14.3479 5.37781C14.4351 5.34729 14.5302 5.34465 14.6191 5.37027C14.7095 5.39197 14.7893 5.4428 14.8453 5.51426C14.9012 5.58572 14.9299 5.67345 14.9265 5.76279C14.9147 5.90607 14.8924 6.04839 14.8597 6.18865C14.7715 6.66327 14.6859 7.13787 14.5924 7.60737C14.5496 7.79465 14.4935 7.97423 14.432 8.16407C14.4106 8.22342 14.3749 8.27704 14.3278 8.32057C14.2985 8.35331 14.2611 8.37842 14.219 8.39358C14.1769 8.40876 14.1315 8.41349 14.087 8.40735C14.0425 8.40121 14.0003 8.3844 13.9643 8.35848C13.9284 8.33254 13.8999 8.29832 13.8814 8.259C13.8496 8.18845 13.8323 8.11264 13.8306 8.0358C13.8306 7.71768 13.8306 7.397 13.852 7.0763C13.8883 6.61865 13.9598 6.16418 14.0658 5.71661C14.0783 5.65664 14.1018 5.5993 14.1353 5.54729V5.53959Z" fill="#3A3B7B"/>
<path fill-rule="evenodd" clip-rule="evenodd" d="M2.14475 11.062C2.11319 11.1296 2.10454 11.205 2.11996 11.2776C2.13022 11.3732 2.15275 11.4673 2.18705 11.5576C2.22987 11.6683 2.27779 11.7777 2.33687 11.9125C2.35046 11.9435 2.36466 11.9759 2.37951 12.01C2.45919 12.1927 2.55916 12.4262 2.6925 12.7641C2.73025 12.86 2.76376 12.9568 2.79751 13.0543C2.81115 13.0936 2.82483 13.1331 2.83883 13.1727C2.88904 13.3135 2.97542 13.4399 3.08993 13.5401C3.13855 13.5952 3.20304 13.6353 3.27536 13.6554C3.34909 13.6759 3.4275 13.6746 3.50045 13.6517C3.57339 13.6288 3.63746 13.5853 3.68433 13.527C3.73029 13.4698 3.75761 13.4009 3.76293 13.3289C3.79274 13.1886 3.78256 13.0432 3.73342 12.908C3.65544 12.6835 3.5666 12.4586 3.46415 12.2387L3.46368 12.2377C3.29515 11.8937 3.12385 11.552 2.94443 11.2101L2.94309 11.2077C2.89057 11.1187 2.82231 11.0391 2.74138 10.9725C2.68885 10.9131 2.61638 10.873 2.53635 10.8591C2.45462 10.845 2.37032 10.8593 2.29851 10.8993C2.23058 10.9365 2.17673 10.9935 2.14475 11.062Z" fill="#3A3B7B"/>
<path fill-rule="evenodd" clip-rule="evenodd" d="M4.71878 10.2148C4.45453 10.1491 4.17855 10.1395 3.91009 10.1867C3.70215 10.2064 3.49765 10.2524 3.35563 10.3436C3.28341 10.39 3.22501 10.4496 3.19253 10.5253C3.15987 10.6015 3.1557 10.6886 3.18247 10.7856C3.23133 10.9634 3.2948 11.1362 3.35803 11.3085L3.36828 11.3364L3.36852 11.337C3.55893 11.8375 3.75116 12.3363 3.94513 12.8333C3.96775 12.9117 3.99974 12.9872 4.04044 13.0585L4.04121 13.0598C4.09498 13.1484 4.16396 13.2276 4.24522 13.2941C4.28586 13.3307 4.33612 13.356 4.39062 13.3673C4.44565 13.3787 4.50288 13.3754 4.55607 13.3577C4.60929 13.34 4.65641 13.3087 4.69232 13.267C4.72765 13.2261 4.75079 13.1767 4.75928 13.1242C4.79434 12.9816 4.78311 12.8321 4.72707 12.6957C4.70958 12.6499 4.69587 12.603 4.68141 12.5536C4.67659 12.5371 4.6717 12.5204 4.66654 12.5033C5.11055 12.3368 5.58299 12.1128 5.74912 11.5917C5.81417 11.4116 5.8196 11.2167 5.76463 11.0335C5.70962 10.8501 5.59675 10.6876 5.44158 10.5683C5.23039 10.4013 4.9837 10.2806 4.71878 10.2148ZM3.98631 10.8539C3.99505 10.8515 4.00386 10.8492 4.01269 10.8471C4.30176 10.8035 4.5975 10.8616 4.84547 11.0107C4.95476 11.0837 4.99952 11.1647 5.00721 11.2427C5.01515 11.323 4.98473 11.41 4.92362 11.4937C4.80815 11.6517 4.59743 11.7781 4.40709 11.8017C4.26833 11.495 4.12742 11.1759 3.98631 10.8539Z" fill="#3A3B7B"/>
<path d="M6.48049 9.65334C6.79517 9.51385 7.18498 9.48976 7.49 9.58783C7.56682 9.60931 7.63347 9.65576 7.67855 9.71924C7.72334 9.78233 7.74401 9.85836 7.7371 9.93436C7.73665 9.9837 7.72403 10.0322 7.70029 10.076C7.67613 10.1206 7.64114 10.1589 7.59828 10.1878C7.55541 10.2167 7.50594 10.2352 7.45405 10.2418C7.40213 10.2485 7.34934 10.243 7.30009 10.2259L7.29634 10.2246L7.29282 10.2228C7.26763 10.2102 7.24086 10.2007 7.21318 10.1945L7.21143 10.1941C6.99686 10.1394 6.79446 10.23 6.72052 10.3414C6.68526 10.3945 6.68089 10.4481 6.71026 10.4969C6.74171 10.5491 6.81884 10.6077 6.97493 10.6494C7.01786 10.6607 7.06186 10.6717 7.1065 10.6827C7.22992 10.7134 7.35819 10.7453 7.48222 10.7894L7.48269 10.7896C8.0549 10.9986 8.26798 11.4314 8.19503 11.8384C8.12287 12.2409 7.77261 12.6073 7.24588 12.6937C7.05422 12.7345 6.85476 12.7265 6.66724 12.6706C6.47925 12.6146 6.3098 12.5123 6.17573 12.374L6.17223 12.3704C6.12991 12.3182 6.10144 12.257 6.08882 12.192C6.07721 12.1334 6.08333 12.0728 6.10642 12.0173C6.12937 11.9622 6.1682 11.9146 6.2183 11.8798C6.27123 11.8404 6.33502 11.8168 6.4018 11.8119C6.46836 11.807 6.53496 11.8208 6.5934 11.8518C6.65177 11.8788 6.70607 11.9134 6.7548 11.9544L6.75572 11.9552C6.84193 12.0309 6.94624 12.0506 7.04626 12.0323C7.14774 12.0138 7.24317 11.9561 7.30455 11.8797C7.36552 11.8037 7.39 11.7134 7.36095 11.6258C7.33172 11.5375 7.24382 11.4387 7.0507 11.356C7.00022 11.3354 6.94788 11.3188 6.89343 11.3027C6.87874 11.2983 6.86381 11.294 6.8487 11.2896C6.80844 11.2778 6.76702 11.2658 6.7264 11.2525C6.69842 11.2433 6.67067 11.2346 6.64319 11.226C6.56807 11.2025 6.49483 11.1797 6.42435 11.149C6.27096 11.0988 6.13843 11.0026 6.0465 10.8745C5.95419 10.7458 5.90774 10.592 5.91406 10.4359C5.91455 10.0556 6.16412 9.7936 6.48049 9.65334Z" fill="#3A3B7B"/>
<path d="M10.4701 9.61283C10.4091 9.58423 10.3416 9.57065 10.2737 9.57331C10.2059 9.576 10.1398 9.59483 10.0815 9.62817C10.0235 9.66126 9.97491 9.70761 9.94012 9.76308C9.90822 9.8098 9.88614 9.86204 9.87513 9.91689C9.86413 9.97171 9.8644 10.028 9.8759 10.0827C9.88726 10.153 9.89986 10.2214 9.9123 10.2888C9.9329 10.4003 9.95294 10.5093 9.96617 10.6205L9.96666 10.6233C9.99677 10.7977 10.0125 10.974 10.0139 11.1507L10.0141 11.1532C10.0244 11.344 9.95662 11.5311 9.82537 11.6748L9.82328 11.6774C9.78058 11.7299 9.72348 11.77 9.65836 11.7932C9.59327 11.8163 9.52274 11.8217 9.45466 11.8085C9.38658 11.7954 9.32366 11.7644 9.27291 11.7189C9.22216 11.6734 9.18555 11.6151 9.16728 11.5508C9.12827 11.4154 9.1057 11.276 9.09996 11.1356L9.16659 10.1176C9.16757 10.1043 9.16869 10.0906 9.16984 10.0768C9.17237 10.0459 9.17497 10.0144 9.17604 9.98507C9.17761 9.94185 9.17627 9.8974 9.16578 9.85532C9.15504 9.81233 9.13462 9.77142 9.09839 9.73659C9.06253 9.70211 9.01411 9.67667 8.95318 9.65935C8.843 9.62874 8.74983 9.62971 8.67221 9.66133C8.59453 9.69295 8.54131 9.75166 8.50365 9.81948C8.46629 9.88673 8.44228 9.96634 8.42412 10.0461C8.41065 10.1053 8.39982 10.1674 8.38953 10.2265C8.38597 10.2469 8.38249 10.2669 8.37897 10.2863L8.37888 10.2869C8.32383 10.6111 8.30744 10.9404 8.33004 11.2682C8.33425 11.4454 8.37274 11.6202 8.44358 11.7839C8.52349 11.9951 8.66824 12.178 8.85871 12.3086C9.04959 12.4395 9.27737 12.5116 9.51189 12.5154C9.74642 12.5192 9.97661 12.4545 10.172 12.3299C10.3671 12.2056 10.5182 12.0273 10.6055 11.8187C10.7276 11.553 10.785 11.264 10.7731 10.9738C10.766 10.7619 10.754 10.5485 10.742 10.336C10.7361 10.2318 10.7303 10.1279 10.725 10.0245C10.7224 9.92092 10.6868 9.82056 10.623 9.73692C10.5835 9.68404 10.531 9.64139 10.4701 9.61283Z" fill="#3A3B7B"/>
<path d="M12.6297 11.2091C12.6235 11.2167 12.617 11.2245 12.6102 11.2326C12.5606 10.9578 12.5146 10.6831 12.4685 10.408C12.452 10.3092 12.4354 10.2101 12.4187 10.1113L12.4168 10.1002L12.4107 10.0907C12.3992 10.0728 12.3981 10.0552 12.3981 10.0177V10.0134L12.3974 10.0091C12.3849 9.93164 12.3484 9.85957 12.2927 9.80232C12.2371 9.74521 12.1649 9.70547 12.0854 9.68822C12.0061 9.66945 11.9228 9.67359 11.846 9.70013C11.7693 9.7266 11.7025 9.77417 11.6538 9.83689C11.6134 9.88501 11.5802 9.93839 11.5554 9.99543C11.499 10.1183 11.4421 10.2415 11.3851 10.365L11.3841 10.3671C11.2418 10.6755 11.0984 10.9859 10.9593 11.2988L10.9588 11.2998C10.8734 11.5027 10.8029 11.7164 10.7326 11.9295C10.7186 11.972 10.7045 12.0146 10.6904 12.057C10.665 12.1242 10.6539 12.1956 10.6577 12.267C10.6531 12.331 10.6691 12.3947 10.7034 12.4497C10.7385 12.5058 10.791 12.55 10.8536 12.576C10.9199 12.6039 10.994 12.6098 11.0643 12.5928C11.1343 12.5758 11.1966 12.537 11.2412 12.4824C11.2981 12.4152 11.3471 12.3419 11.387 12.2642C11.5049 12.0328 11.6176 11.7985 11.7297 11.5653C11.7731 11.475 11.8153 11.3942 11.8633 11.3062C11.8666 11.3171 11.8699 11.3277 11.8734 11.3383C11.9237 11.5507 12.0085 11.7542 12.1249 11.9413C12.1469 11.9809 12.1775 12.0156 12.2148 12.0428C12.2524 12.0704 12.2959 12.0898 12.3421 12.0996C12.3884 12.1095 12.4363 12.1095 12.4826 12.0998C12.5288 12.09 12.5724 12.0707 12.6101 12.0432L12.6846 11.9896L13.2635 11.5216L13.2293 11.731C13.1823 12.0188 13.1357 12.3042 13.0861 12.5897C13.0537 12.7162 13.0537 12.8484 13.0863 12.9749C13.1003 13.0461 13.1362 13.1116 13.1893 13.1631C13.2428 13.2151 13.3114 13.2504 13.3861 13.2644C13.4607 13.2785 13.5381 13.2707 13.6081 13.242C13.6771 13.2138 13.7358 13.1666 13.7768 13.1064C13.8723 12.9928 13.9317 12.8552 13.948 12.71C13.9726 12.505 14.0003 12.2972 14.0281 12.0895C14.0601 11.85 14.0921 11.6107 14.1191 11.3759L14.1192 11.3752C14.1452 11.1182 14.1578 10.8601 14.1569 10.6019C14.1626 10.5203 14.1414 10.439 14.0963 10.3696C14.0511 10.2999 13.984 10.2457 13.9048 10.2147C13.8224 10.1787 13.7302 10.1691 13.6416 10.1873C13.5537 10.2053 13.4741 10.2498 13.4144 10.3143C13.3076 10.409 13.2075 10.5105 13.1145 10.6179L13.1139 10.6186C13.0125 10.7399 12.9117 10.8636 12.8116 10.9865C12.7508 11.0612 12.6901 11.1357 12.6297 11.2091Z" fill="#3A3B7B"/>
</g>
<defs>
<clipPath id="clip0_0_1071">
<rect width="15.6917" height="9.68213" fill="white" transform="translate(0.70491 3.98773)"/>
</clipPath>
</defs>
</svg>
