<svg width="20" height="17" viewBox="0 0 20 17" fill="none" xmlns="http://www.w3.org/2000/svg">
<rect x="0.720901" y="0.286377" width="16.0256" height="16.0256" rx="2.67093" fill="#F5F7FA"/>
<g clip-path="url(#clip0_0_1558)">
<path d="M19.0821 6.80223C19.084 6.78831 19.084 6.77423 19.0821 6.76031C19.0839 6.74897 19.0839 6.7374 19.0821 6.72603L18.9461 5.74692C18.9265 5.62978 18.874 5.52029 18.7945 5.43071L18.7712 5.40404L18.7285 5.36213L16.3735 3.37343L16.4396 3.4382C16.3855 3.3748 16.3177 3.3241 16.241 3.28981C16.1644 3.25553 16.0808 3.23853 15.9966 3.24009H15.2815C15.1653 3.23783 15.0516 3.27407 14.959 3.34296C14.8617 3.27449 14.7446 3.23843 14.6248 3.24009H13.9097C13.816 3.2386 13.7235 3.26142 13.6416 3.30624C13.5597 3.35106 13.4913 3.4163 13.4434 3.49534C13.3696 3.60824 13.3418 3.74427 13.3657 3.87632L13.4551 4.4935C13.3959 4.46059 13.3288 4.44352 13.2608 4.44398H9.7983C9.67407 4.44474 9.5527 4.48044 9.44854 4.54684C9.34783 4.60864 9.26698 4.69714 9.21538 4.80209L8.94724 4.57732C8.8417 4.48159 8.7024 4.4297 8.55864 4.43255H3.12591C3.00124 4.43478 2.87934 4.46892 2.77229 4.5316C2.62583 4.61564 2.5185 4.75229 2.47306 4.91258L0.747642 10.5701C0.715403 10.6633 0.712232 10.7639 0.738534 10.8589C0.764836 10.9538 0.819421 11.039 0.895314 11.1035C0.91509 11.1199 0.935854 11.1352 0.957493 11.1492C0.957493 11.1492 0.922513 11.1263 0.903082 11.1073L3.25805 13.0998C3.35767 13.1897 3.48792 13.24 3.62332 13.2407H9.09881C9.22385 13.2376 9.34584 13.2021 9.45244 13.1379C9.51273 13.1056 9.56667 13.063 9.61176 13.0121L9.6312 12.9855L9.66229 12.9474L9.6856 12.9055L9.94209 13.1226C10.0403 13.209 10.1677 13.2565 10.2996 13.256H15.7867C15.9116 13.2519 16.0334 13.2165 16.1404 13.1531C16.1993 13.1188 16.2529 13.0765 16.2997 13.0274L16.3191 13.0007L16.3502 12.9626C16.3667 12.9385 16.3811 12.913 16.3929 12.8864C16.4056 12.8633 16.416 12.8391 16.424 12.8141L17.9979 7.64801V7.60228C17.9998 7.58455 17.9998 7.56667 17.9979 7.54895V7.51467C17.9998 7.5033 17.9998 7.49173 17.9979 7.48036C17.9996 7.45627 17.9996 7.43209 17.9979 7.40797H18.5031C18.547 7.41193 18.5913 7.41193 18.6352 7.40797H18.6702C18.6986 7.39966 18.726 7.38814 18.7518 7.37369H18.7907L18.8606 7.32036L18.8917 7.29749L18.9461 7.22891V7.20607L18.985 7.1413C18.9828 7.1287 18.9828 7.1158 18.985 7.10321C18.9829 7.09702 18.9829 7.09034 18.985 7.08415C18.9932 7.06182 18.9997 7.03888 19.0044 7.01557C19.0026 7.00806 19.0026 7.00022 19.0044 6.99271C19.0025 6.98137 19.0025 6.96977 19.0044 6.95843C19.0044 6.95843 19.0821 6.80984 19.0821 6.80223Z" fill="black"/>
<path d="M8.71797 4.86692C8.7386 4.88521 8.75301 4.90926 8.75926 4.93583C8.76553 4.96239 8.76331 4.9902 8.75296 5.0155L7.03143 10.6692C7.00975 10.7309 6.9654 10.7825 6.90708 10.814C6.85961 10.8451 6.80468 10.8635 6.74773 10.8673H1.27616C1.22943 10.8651 1.18516 10.8461 1.1518 10.814C1.13196 10.796 1.11803 10.7726 1.1118 10.7468C1.10557 10.721 1.10732 10.694 1.11683 10.6692L2.84224 5.0155C2.86212 4.953 2.90508 4.90001 2.96271 4.86692C3.01095 4.83803 3.06563 4.82104 3.12204 4.81739H8.59361C8.63998 4.81783 8.68443 4.83554 8.71797 4.86692ZM5.8617 9.53009L6.89152 6.15462H4.00807L2.98214 9.53009H5.8617ZM13.9408 4.92406C13.9595 4.94533 13.9828 4.9622 14.0091 4.97341C14.0353 4.98463 14.0638 4.9899 14.0924 4.98883H14.8036C14.8306 4.98909 14.8573 4.98258 14.8811 4.96992C14.9049 4.95725 14.925 4.93885 14.9396 4.91645C14.9522 4.89895 14.9611 4.87914 14.9658 4.85819C14.9705 4.83725 14.9708 4.81561 14.9668 4.79454L14.8269 3.78875C14.8136 3.7422 14.7896 3.69922 14.7569 3.66303C14.7382 3.64176 14.7149 3.6249 14.6887 3.61368C14.6624 3.60247 14.634 3.5972 14.6054 3.59827H13.8942C13.8671 3.59801 13.8404 3.60452 13.8166 3.61718C13.7928 3.62985 13.7727 3.64825 13.7582 3.67065C13.731 3.72399 13.7193 3.75828 13.731 3.78875L13.8748 4.79454C13.8822 4.84351 13.9053 4.88889 13.9408 4.92406ZM16.1987 3.78113C16.1853 3.73458 16.1614 3.6916 16.1287 3.65541C16.1108 3.63422 16.0882 3.61736 16.0626 3.60613C16.037 3.59489 16.0091 3.5896 15.981 3.59065H15.266C15.2394 3.5899 15.213 3.59624 15.1898 3.60898C15.1665 3.62172 15.1472 3.6404 15.1339 3.66303C15.108 3.69683 15.0968 3.73929 15.1028 3.78113L15.2466 4.78691C15.2556 4.83537 15.2785 4.8803 15.3126 4.91645C15.3316 4.9373 15.355 4.95388 15.3812 4.96506C15.4074 4.97624 15.4356 4.98175 15.4642 4.98121H16.1792C16.2058 4.98155 16.232 4.97505 16.2551 4.96235C16.2784 4.94964 16.2977 4.93119 16.3114 4.90883C16.3249 4.89178 16.3343 4.87198 16.339 4.85089C16.3437 4.82979 16.3436 4.80794 16.3385 4.78691L16.1987 3.78113ZM13.3152 5.30504L13.2452 4.80977H9.7983C9.74418 4.8127 9.69182 4.8298 9.64673 4.8593C9.61812 4.8746 9.5932 4.89581 9.57374 4.92146C9.55431 4.94711 9.54077 4.9766 9.53406 5.00788L9.24648 5.9527C9.235 5.97631 9.23107 6.0028 9.23523 6.02864C9.23941 6.05449 9.25145 6.07847 9.26979 6.09748C9.30256 6.12768 9.34533 6.14528 9.39027 6.14701H13.5795L12.5496 9.52247H8.37211C8.31825 9.52368 8.26578 9.5395 8.22057 9.56817C8.16561 9.6024 8.12546 9.65531 8.10787 9.71676L7.81641 10.6616C7.8069 10.6858 7.8044 10.7122 7.80919 10.7377C7.81401 10.7633 7.8259 10.787 7.8436 10.8063C7.87535 10.8386 7.91845 10.8577 7.96408 10.8597H13.4512C13.5079 10.8549 13.5626 10.8366 13.6105 10.8063C13.6679 10.7747 13.711 10.723 13.731 10.6616L15.3087 5.49553H13.5328C13.5046 5.49608 13.4766 5.49095 13.4506 5.48046C13.4245 5.46998 13.4009 5.45436 13.3813 5.43457C13.3491 5.40003 13.3264 5.3581 13.3152 5.31266V5.30504Z" fill="white"/>
</g>
<defs>
<clipPath id="clip0_0_1558">
<rect width="18.3627" height="10.016" fill="white" transform="translate(0.720894 3.23999)"/>
</clipPath>
</defs>
</svg>
