<svg width="17" height="17" viewBox="0 0 17 17" fill="none" xmlns="http://www.w3.org/2000/svg">
<g clip-path="url(#clip0_0_1064)">
<path fill-rule="evenodd" clip-rule="evenodd" d="M5.17759 5.36147L1.84367 8.66186C2.51051 9.32202 3.27228 9.87837 4.10282 10.3136C4.33239 10.9165 4.69223 11.4818 5.18234 11.967C7.02625 13.7923 10.0158 13.7923 11.8597 11.967C12.3498 11.4818 12.7096 10.9165 12.9392 10.3136C13.7697 9.87837 14.5315 9.32202 15.1983 8.66186L11.8671 5.36415C11.8646 5.36168 11.8622 5.35921 11.8597 5.35675C10.0158 3.53139 7.02625 3.53139 5.18234 5.35675C5.18076 5.35832 5.17917 5.35989 5.17759 5.36147ZM11.5407 10.9091C10.5691 11.2337 9.54921 11.3999 8.521 11.3999C7.49279 11.3999 6.47293 11.2337 5.50138 10.9091C5.60665 11.0473 5.72287 11.18 5.85007 11.306C7.32519 12.7663 9.71681 12.7663 11.1919 11.306C11.3191 11.18 11.4354 11.0473 11.5407 10.9091ZM5.91854 5.95167C6.16904 6.1155 6.4354 6.25569 6.71412 6.36999C7.28696 6.60488 7.90094 6.72578 8.521 6.72578C9.14106 6.72578 9.75504 6.60488 10.3279 6.36999C10.6066 6.25569 10.873 6.1155 11.1235 5.95166C9.66676 4.57952 7.37524 4.57952 5.91854 5.95167Z" fill="#3B4158"/>
</g>
<defs>
<clipPath id="clip0_0_1064">
<rect width="13.3547" height="9.34826" fill="white" transform="translate(1.84367 3.98773)"/>
</clipPath>
</defs>
</svg>
