<svg width="20" height="17" viewBox="0 0 20 17" fill="none" xmlns="http://www.w3.org/2000/svg">
<g clip-path="url(#clip0_0_1095)">
<path d="M19.0251 7.21609C19.027 7.20216 19.027 7.18809 19.0251 7.17417C19.0269 7.16283 19.0269 7.15126 19.0251 7.13989L18.889 6.16078C18.8694 6.04364 18.8169 5.93415 18.7375 5.84457L18.7141 5.8179L18.6714 5.77599L16.3165 3.78728L16.3825 3.85206C16.3285 3.78866 16.2606 3.73795 16.184 3.70367C16.1073 3.66938 16.0238 3.65239 15.9395 3.65395H15.2245C15.1082 3.65169 14.9946 3.68793 14.9019 3.75681C14.8046 3.68834 14.6875 3.65229 14.5677 3.65395H13.8527C13.7589 3.65245 13.6664 3.67527 13.5845 3.7201C13.5026 3.76492 13.4343 3.83016 13.3864 3.9092C13.3125 4.0221 13.2848 4.15812 13.3086 4.29018L13.398 4.90736C13.3388 4.87445 13.2718 4.85738 13.2037 4.85784H9.74122C9.61699 4.8586 9.49562 4.8943 9.39146 4.9607C9.29075 5.0225 9.2099 5.111 9.15831 5.21595L8.89016 4.99117C8.78463 4.89544 8.64533 4.84356 8.50156 4.84641H3.06884C2.94417 4.84863 2.82227 4.88278 2.71522 4.94546C2.56876 5.0295 2.46143 5.16614 2.41598 5.32644L0.690567 10.984C0.658328 11.0772 0.655156 11.1777 0.681459 11.2727C0.707761 11.3677 0.762345 11.4529 0.838239 11.5173C0.858014 11.5338 0.878779 11.549 0.900417 11.563C0.900417 11.563 0.865437 11.5402 0.846007 11.5211L3.20097 13.5136C3.30059 13.6036 3.43084 13.6538 3.56624 13.6546H9.04173C9.16678 13.6514 9.28876 13.6159 9.39537 13.5517C9.45566 13.5194 9.5096 13.4769 9.55469 13.426L9.57412 13.3993L9.60521 13.3612L9.62852 13.3193L9.88501 13.5365C9.9832 13.6228 10.1106 13.6703 10.2425 13.6698H15.7296C15.8546 13.6658 15.9763 13.6304 16.0833 13.567C16.1422 13.5327 16.1958 13.4904 16.2426 13.4413L16.262 13.4146L16.2931 13.3765C16.3096 13.3524 16.324 13.3269 16.3359 13.3003C16.3486 13.2772 16.359 13.253 16.367 13.2279L17.9408 8.06186V8.01614C17.9428 7.99841 17.9428 7.98053 17.9408 7.9628V7.92852C17.9427 7.91716 17.9427 7.90559 17.9408 7.89422C17.9426 7.87013 17.9426 7.84594 17.9408 7.82183H18.446C18.49 7.82578 18.5342 7.82578 18.5781 7.82183H18.6131C18.6416 7.81351 18.6689 7.802 18.6947 7.78755H18.7336L18.8035 7.73421L18.8346 7.71135L18.889 7.64277V7.61993L18.9279 7.55515C18.9257 7.54256 18.9257 7.52966 18.9279 7.51707C18.9258 7.51088 18.9258 7.5042 18.9279 7.49801C18.9361 7.47568 18.9426 7.45274 18.9473 7.42943C18.9455 7.42191 18.9455 7.41408 18.9473 7.40656C18.9454 7.39522 18.9454 7.38363 18.9473 7.37229C18.9473 7.37229 19.0251 7.2237 19.0251 7.21609Z" fill="black"/>
<path d="M8.66094 5.28069C8.68158 5.29898 8.69599 5.32303 8.70223 5.3496C8.70851 5.37617 8.70629 5.40397 8.69593 5.42927L6.97441 11.083C6.95273 11.1447 6.90838 11.1963 6.85005 11.2278C6.80259 11.2589 6.74766 11.2773 6.69071 11.2811H1.21914C1.17241 11.2789 1.12814 11.2599 1.09478 11.2278C1.07494 11.2098 1.06101 11.1864 1.05478 11.1606C1.04855 11.1348 1.0503 11.1078 1.05981 11.083L2.78522 5.42927C2.8051 5.36677 2.84806 5.31378 2.90569 5.28069C2.95393 5.2518 3.00861 5.23481 3.06502 5.23116H8.53659C8.58295 5.2316 8.62741 5.24931 8.66094 5.28069ZM5.80468 9.94386L6.8345 6.56839H3.95105L2.92511 9.94386H5.80468ZM13.8838 5.33784C13.9025 5.35911 13.9258 5.37597 13.9521 5.38719C13.9783 5.3984 14.0068 5.40367 14.0354 5.4026H14.7465C14.7736 5.40286 14.8003 5.39635 14.8241 5.38369C14.8479 5.37102 14.868 5.35262 14.8825 5.33022C14.8952 5.31272 14.9041 5.29291 14.9088 5.27197C14.9134 5.25103 14.9138 5.22938 14.9097 5.20831L14.7698 4.20253C14.7565 4.15598 14.7326 4.11299 14.6999 4.0768C14.6812 4.05553 14.6579 4.03867 14.6317 4.02745C14.6054 4.01624 14.5769 4.01097 14.5483 4.01204H13.8372C13.8101 4.01178 13.7834 4.01829 13.7596 4.03096C13.7358 4.04362 13.7157 4.06202 13.7012 4.08443C13.674 4.13776 13.6623 4.17205 13.674 4.20253L13.8178 5.20831C13.8251 5.25728 13.8483 5.30266 13.8838 5.33784ZM16.1416 4.19491C16.1283 4.14836 16.1044 4.10537 16.0717 4.06918C16.0538 4.04799 16.0312 4.03113 16.0055 4.0199C15.9799 4.00867 15.952 4.00337 15.924 4.00442H15.209C15.1823 4.00367 15.156 4.01001 15.1327 4.02275C15.1095 4.0355 15.0902 4.05417 15.0769 4.0768C15.051 4.1106 15.0398 4.15306 15.0458 4.19491L15.1895 5.20069C15.1986 5.24914 15.2215 5.29408 15.2556 5.33022C15.2746 5.35107 15.298 5.36766 15.3242 5.37883C15.3503 5.39001 15.3786 5.39552 15.4072 5.39498H16.1222C16.1488 5.39533 16.1749 5.38882 16.1981 5.37612C16.2213 5.36341 16.2407 5.34496 16.2543 5.3226C16.2679 5.30556 16.2773 5.28575 16.282 5.26466C16.2867 5.24357 16.2865 5.22171 16.2815 5.20069L16.1416 4.19491ZM13.2582 5.71882L13.1882 5.22355H9.74128C9.68716 5.22647 9.6348 5.24357 9.58971 5.27307C9.5611 5.28837 9.53618 5.30958 9.51672 5.33523C9.49729 5.36089 9.48374 5.39037 9.47704 5.42165L9.18946 6.36647C9.17798 6.39008 9.17405 6.41658 9.17821 6.44242C9.18239 6.46826 9.19443 6.49225 9.21277 6.51125C9.24554 6.54145 9.28831 6.55905 9.33325 6.56078H13.5224L12.4926 9.93625H8.31509C8.26122 9.93745 8.20876 9.95327 8.16354 9.98195C8.10858 10.0162 8.06844 10.0691 8.05084 10.1305L7.75939 11.0754C7.74988 11.0996 7.74738 11.1259 7.75217 11.1515C7.75699 11.1771 7.76888 11.2008 7.78657 11.2201C7.81833 11.2523 7.86143 11.2714 7.90705 11.2735H13.3942C13.4509 11.2687 13.5056 11.2504 13.5535 11.2201C13.6109 11.1885 13.6539 11.1368 13.674 11.0754L15.2517 5.90931H13.4758C13.4476 5.90985 13.4196 5.90472 13.3936 5.89424C13.3675 5.88375 13.3439 5.86813 13.3242 5.84835C13.2921 5.8138 13.2694 5.77187 13.2582 5.72644V5.71882Z" fill="white"/>
</g>
<defs>
<clipPath id="clip0_0_1095">
<rect width="18.3627" height="10.016" fill="white" transform="translate(0.663818 3.65385)"/>
</clipPath>
</defs>
</svg>
