<svg width="17" height="17" viewBox="0 0 17 17" fill="none" xmlns="http://www.w3.org/2000/svg">
<g clip-path="url(#clip0_0_1087)">
<path d="M14.9709 4.60326C14.9709 4.75883 15.0986 4.88496 15.2561 4.88496H15.5413C15.6988 4.88496 15.8265 4.75883 15.8265 4.60326C15.8265 4.44768 15.6988 4.32156 15.5413 4.32156H15.2561C15.0986 4.32156 14.9709 4.44768 14.9709 4.60326Z" fill="#212326"/>
<path d="M6.70087 13.336H8.08622L7.68291 12.9376C7.57596 12.8319 7.43088 12.7726 7.27963 12.7726H6.70087C4.49588 12.7726 2.70839 11.0069 2.70839 8.82878C2.70839 6.65068 4.49588 4.88499 6.70087 4.88499H11.2637C13.4687 4.88499 15.2562 6.65068 15.2562 8.82878C15.2562 11.0069 13.4687 12.7726 11.2637 12.7726H9.55685C9.32994 12.7726 9.11234 12.6835 8.95188 12.5251L8.4794 12.0583C8.212 11.7942 7.8493 11.6458 7.47113 11.6458H6.70087C5.12587 11.6458 3.8491 10.3846 3.8491 8.82878C3.8491 7.27299 5.12587 6.01179 6.70087 6.01179H11.2637C12.8387 6.01179 14.1155 7.27299 14.1155 8.82878C14.1155 10.3846 12.8387 11.6458 11.2637 11.6458H10.1677C9.94083 11.6458 9.72323 11.5567 9.56278 11.3983L9.09028 10.9315C8.82287 10.6674 8.46019 10.519 8.08202 10.519H6.70087C5.75589 10.519 4.98981 9.76225 4.98981 8.82878C4.98981 7.89532 5.75589 7.13859 6.70087 7.13859H11.2637C12.2087 7.13859 12.9748 7.89532 12.9748 8.82878C12.9748 9.75087 12.2273 10.5005 11.2982 10.5186L11.298 10.519H10.8807C10.6538 10.519 10.4362 10.4299 10.2757 10.2715L9.80322 9.80473C9.58382 9.58798 9.30026 9.44918 8.99662 9.40634L8.9823 9.39218H6.70087C6.38588 9.39218 6.13052 9.13994 6.13052 8.82878C6.13052 8.51763 6.38588 8.26539 6.70087 8.26539H11.2637C11.5787 8.26539 11.8341 8.51763 11.8341 8.82878C11.8341 9.13994 11.5787 9.39218 11.2637 9.39218H10.123L10.5263 9.79058C10.6333 9.89622 10.7783 9.95558 10.9296 9.95558H11.2637C11.8937 9.95558 12.4044 9.45109 12.4044 8.82878C12.4044 8.20648 11.8937 7.70199 11.2637 7.70199H6.70087C6.07088 7.70199 5.56016 8.20648 5.56016 8.82878C5.56016 9.45109 6.07088 9.95558 6.70087 9.95558H8.79497C9.02188 9.95558 9.23948 10.0446 9.39993 10.2031L9.87244 10.6698C10.1398 10.934 10.5025 11.0824 10.8807 11.0824H11.4063V11.0781C12.5999 11.0054 13.5451 10.0261 13.5451 8.82878C13.5451 7.58417 12.5237 6.57519 11.2637 6.57519H6.70087C5.44089 6.57519 4.41945 7.58417 4.41945 8.82878C4.41945 10.0734 5.44089 11.0824 6.70087 11.0824H8.08202C8.30893 11.0824 8.52654 11.1714 8.68699 11.3299L9.15949 11.7966C9.4269 12.0608 9.78958 12.2092 10.1677 12.2092H11.2637C13.1537 12.2092 14.6858 10.6957 14.6858 8.82878C14.6858 6.96184 13.1537 5.44839 11.2637 5.44839H6.70087C4.81088 5.44839 3.27874 6.96184 3.27874 8.82878C3.27874 10.6957 4.81088 12.2092 6.70087 12.2092H7.47113C7.69804 12.2092 7.91564 12.2982 8.07609 12.4567L8.5486 12.9234C8.816 13.1876 9.17868 13.336 9.55685 13.336H11.2637C13.7837 13.336 15.8266 11.318 15.8266 8.82878C15.8266 6.33953 13.7837 4.32159 11.2637 4.32159L6.70087 4.32159C4.18088 4.32159 2.13803 6.33953 2.13803 8.82878C2.13803 11.318 4.18089 13.336 6.70087 13.336Z" fill="#212326"/>
</g>
<defs>
<clipPath id="clip0_0_1087">
<rect width="13.6885" height="9.0144" fill="white" transform="translate(2.13803 4.32159)"/>
</clipPath>
</defs>
</svg>
