<svg width="17" height="17" viewBox="0 0 17 17" fill="none" xmlns="http://www.w3.org/2000/svg">
<rect x="0.0067749" y="0.286377" width="16.0256" height="16.0256" rx="2.67093" fill="#F5F7FA"/>
<g clip-path="url(#clip0_0_1555)">
<path fill-rule="evenodd" clip-rule="evenodd" d="M3.37814 4.94759L0.04422 8.24798C0.711065 8.90814 1.47283 9.46449 2.30337 9.89976C2.53294 10.5026 2.89278 11.0679 3.38289 11.5531C5.2268 13.3784 8.21634 13.3784 10.0602 11.5531C10.5503 11.0679 10.9102 10.5026 11.1397 9.89972C11.9703 9.46449 12.732 8.90814 13.3989 8.24798L10.0677 4.95027C10.0652 4.9478 10.0627 4.94534 10.0602 4.94287C8.21634 3.11751 5.2268 3.11751 3.38289 4.94287C3.38131 4.94444 3.37972 4.94601 3.37814 4.94759ZM9.74121 10.4952C8.76966 10.8198 7.74976 10.986 6.72155 10.986C5.69334 10.986 4.67348 10.8198 3.70193 10.4952C3.8072 10.6335 3.92342 10.7661 4.05062 10.8921C5.52574 12.3524 7.91736 12.3524 9.39248 10.8921C9.51969 10.7661 9.63594 10.6335 9.74121 10.4952ZM4.11909 5.53779C4.36959 5.70162 4.63595 5.84181 4.91467 5.95611C5.48751 6.191 6.10149 6.3119 6.72155 6.3119C7.34161 6.3119 7.95559 6.191 8.52844 5.95611C8.80715 5.84181 9.07351 5.70162 9.32404 5.53778C7.86731 4.16564 5.57579 4.16564 4.11909 5.53779Z" fill="#3B4158"/>
</g>
<defs>
<clipPath id="clip0_0_1555">
<rect width="13.3547" height="9.34826" fill="white" transform="translate(0.04422 3.57385)"/>
</clipPath>
</defs>
</svg>
