<svg width="17" height="17" viewBox="0 0 17 17" fill="none" xmlns="http://www.w3.org/2000/svg">
<rect x="0.14917" y="0.286377" width="16.0256" height="16.0256" rx="2.67093" fill="#F5F7FA"/>
<g clip-path="url(#clip0_0_1578)">
<path d="M12.9823 4.18947C12.9823 4.34505 13.1099 4.47117 13.2674 4.47117H13.5526C13.7101 4.47117 13.8378 4.34505 13.8378 4.18947C13.8378 4.0339 13.7101 3.90778 13.5526 3.90778H13.2674C13.1099 3.90778 12.9823 4.0339 12.9823 4.18947Z" fill="#212326"/>
<path d="M4.71204 12.9222H6.09739L5.69408 12.5238C5.58713 12.4181 5.44205 12.3588 5.29079 12.3588H4.71204C2.50705 12.3588 0.719556 10.5931 0.719556 8.41497C0.719556 6.23687 2.50705 4.47118 4.71204 4.47118H9.27489C11.4799 4.47118 13.2674 6.23687 13.2674 8.41497C13.2674 10.5931 11.4799 12.3588 9.27489 12.3588H7.56802C7.34111 12.3588 7.12351 12.2697 6.96305 12.1113L6.49057 11.6445C6.22317 11.3804 5.86047 11.232 5.4823 11.232H4.71204C3.13704 11.232 1.86027 9.97077 1.86027 8.41497C1.86027 6.85918 3.13704 5.59798 4.71204 5.59798H9.27489C10.8499 5.59798 12.1267 6.85918 12.1267 8.41497C12.1267 9.97077 10.8499 11.232 9.27489 11.232H8.17891C7.952 11.232 7.7344 11.1429 7.57395 10.9845L7.10145 10.5177C6.83404 10.2536 6.47136 10.1052 6.09319 10.1052H4.71204C3.76706 10.1052 3.00098 9.34844 3.00098 8.41497C3.00098 7.48151 3.76706 6.72477 4.71204 6.72477H9.27489C10.2199 6.72477 10.986 7.48151 10.986 8.41497C10.986 9.33706 10.2384 10.0867 9.30938 10.1048L9.3092 10.1052H8.89186C8.66495 10.1052 8.44735 10.0161 8.28689 9.85766L7.81439 9.39092C7.59499 9.17417 7.31143 9.03537 7.00779 8.99253L6.99346 8.97837H4.71204C4.39705 8.97837 4.14169 8.72613 4.14169 8.41497C4.14169 8.10382 4.39705 7.85157 4.71204 7.85157H9.27489C9.58988 7.85157 9.84524 8.10382 9.84524 8.41497C9.84524 8.72613 9.58988 8.97837 9.27489 8.97837H8.13418L8.53749 9.37677C8.64444 9.48241 8.78951 9.54177 8.94077 9.54177H9.27489C9.90488 9.54177 10.4156 9.03728 10.4156 8.41497C10.4156 7.79267 9.90488 7.28817 9.27489 7.28817H4.71204C4.08205 7.28817 3.57133 7.79267 3.57133 8.41497C3.57133 9.03728 4.08205 9.54177 4.71204 9.54177H6.80614C7.03305 9.54177 7.25065 9.63081 7.4111 9.78929L7.88361 10.256C8.15101 10.5202 8.51369 10.6686 8.89186 10.6686H9.41748V10.6642C10.611 10.5915 11.5563 9.61229 11.5563 8.41497C11.5563 7.17036 10.5349 6.16138 9.27489 6.16138H4.71204C3.45206 6.16138 2.43062 7.17036 2.43062 8.41497C2.43062 9.65961 3.45206 10.6686 4.71204 10.6686H6.09319C6.3201 10.6686 6.53771 10.7576 6.69816 10.9161L7.17066 11.3828C7.43807 11.647 7.80075 11.7954 8.17891 11.7954H9.27489C11.1649 11.7954 12.697 10.2819 12.697 8.41497C12.697 6.54803 11.1649 5.03458 9.27489 5.03458H4.71204C2.82205 5.03458 1.28991 6.54803 1.28991 8.41497C1.28991 10.2819 2.82205 11.7954 4.71204 11.7954H5.4823C5.70921 11.7954 5.92681 11.8844 6.08726 12.0429L6.55977 12.5096C6.82717 12.7738 7.18985 12.9222 7.56802 12.9222H9.27489C11.7949 12.9222 13.8377 10.9042 13.8377 8.41497C13.8377 5.92572 11.7949 3.90778 9.27489 3.90778L4.71204 3.90778C2.19205 3.90778 0.1492 5.92572 0.1492 8.41497C0.149201 10.9042 2.19206 12.9222 4.71204 12.9222Z" fill="#212326"/>
</g>
<defs>
<clipPath id="clip0_0_1578">
<rect width="13.6885" height="9.0144" fill="white" transform="translate(0.1492 3.90778)"/>
</clipPath>
</defs>
</svg>
