<svg width="30" height="51" viewBox="0 0 30 51" fill="none" xmlns="http://www.w3.org/2000/svg">
<path d="M6.72094 37.5485C1.38977 33.8254 0.182058 26.9138 0.392545 20.6993C0.427051 19.6641 0.313185 18.5668 0.806621 17.6593C1.30006 16.7518 2.45255 16.1272 3.38076 16.562C4.15025 16.9243 4.48496 17.8215 4.91629 18.5634C5.4918 19.5515 6.33518 20.3566 7.34895 20.8856C8.00802 21.2307 8.82582 21.4377 9.47798 21.0788C10.3751 20.5854 10.4786 19.3535 10.4717 18.3184C10.4717 16.3929 10.4602 14.4698 10.4372 12.549C10.3752 11.5175 10.4801 10.4828 10.7478 9.48483C11.0687 8.50486 11.783 7.59735 12.7595 7.3213C13.736 7.04525 14.9541 7.6146 15.1749 8.62218C15.2129 9.04893 15.2233 9.4777 15.206 9.9058C15.2336 10.3371 15.4337 10.8099 15.8374 10.941C16.2411 11.0721 16.6621 10.7719 16.9727 10.4682C18.0355 9.43307 18.7601 8.08388 19.4329 6.75195C20.1058 5.42002 20.7649 4.05013 21.731 2.91488C22.6972 1.77964 24.0326 0.879032 25.5267 0.792767C27.0208 0.706502 28.577 1.62436 28.9497 3.07361C29.3224 4.52286 28.477 6.00317 27.5695 7.17982C26.2 8.92641 24.5858 10.4663 22.7766 11.7519C22.4234 11.9447 22.1416 12.2459 21.9726 12.6111C21.7483 13.3012 22.4005 13.9913 23.0802 14.2087C23.8497 14.464 24.6848 14.3847 25.4957 14.4813C26.3065 14.5779 27.1692 14.9299 27.4763 15.689C27.8973 16.7449 27.0139 17.8491 26.1478 18.5737C24.4087 20.023 22.434 21.1632 20.3094 21.9449C19.5503 22.221 18.7532 22.466 18.139 22.9974C17.5248 23.5288 17.159 24.457 17.5282 25.1851C17.8974 25.9131 18.8464 26.1443 19.6434 25.9959C20.4405 25.8476 21.1479 25.4197 21.907 25.1333C23.3252 24.5985 25.154 24.6951 26.0478 25.92C26.3246 26.342 26.4999 26.8224 26.5597 27.3235C26.6196 27.8247 26.5625 28.3329 26.3928 28.8082C26.0475 29.7541 25.5159 30.6212 24.8297 31.3582C22.5697 34.0584 19.6333 36.1101 16.3205 37.3036C13.0321 38.4423 9.98522 38.7528 6.7175 37.5555" fill="#072F5E"/>
<path d="M27.4314 1.64508C27.4314 1.64508 27.4003 1.67959 27.3313 1.7417L27.0242 2.01429C26.7551 2.25583 26.3582 2.6078 25.8579 3.07363C24.4393 4.39077 23.1221 5.813 21.9173 7.32822C21.1478 8.28403 20.3507 9.36752 19.5019 10.5442C18.6531 11.7208 17.7766 12.9907 16.9071 14.3398C15.98 15.7626 15.131 17.2347 14.364 18.7497C13.9637 19.5399 13.6117 20.3646 13.2494 21.2065L12.1797 23.7772C10.7697 27.0153 9.5417 30.3296 8.50139 33.7046C7.66341 36.466 7.08579 39.2998 6.77609 42.1689C6.57541 44.1052 6.54308 46.0551 6.67947 47.997C6.73468 48.6871 6.78644 49.215 6.83475 49.5739C6.85546 49.7464 6.86925 49.8845 6.88306 49.9845V50.126C6.86821 50.0811 6.85781 50.0349 6.852 49.988C6.83475 49.8879 6.81404 49.7533 6.78644 49.5808C6.72433 49.2357 6.65877 48.6905 6.59666 48.0004C6.43018 46.055 6.44173 44.0984 6.63117 42.1551C6.92166 39.2738 7.48666 36.4268 8.31851 33.6528C9.35009 30.2683 10.5748 26.9457 11.9865 23.7013L13.0838 21.141C13.4461 20.3025 13.8015 19.4709 14.2052 18.6772C14.9776 17.1577 15.8335 15.682 16.769 14.257C17.6524 12.8768 18.5426 11.6277 19.3811 10.4614C20.2196 9.29506 21.0305 8.20467 21.7965 7.2523C23.0135 5.74109 24.3485 4.32881 25.7889 3.02877C26.2996 2.56984 26.7067 2.22478 26.9828 1.99359L27.3037 1.73479C27.343 1.70054 27.3858 1.67048 27.4314 1.64508Z" fill="#263238"/>
<path d="M14.2501 18.6704C14.2014 18.5282 14.1679 18.3813 14.15 18.2321C14.0948 17.9457 14.0327 17.542 13.9602 17.0175C13.8119 15.9823 13.66 14.5642 13.4979 12.9941C13.3357 11.4241 13.1528 10.0025 13.001 8.97764C12.9216 8.46695 12.8526 8.05633 12.8043 7.76993C12.7666 7.62334 12.7469 7.4727 12.7456 7.32135C12.805 7.45959 12.8479 7.60437 12.8733 7.75267C12.9492 8.03562 13.0355 8.4428 13.1321 8.95694C13.3288 9.99212 13.522 11.4 13.6842 12.9734C13.8464 14.5469 13.9844 15.9271 14.0914 17.0003C14.1431 17.4834 14.188 17.894 14.2225 18.2218C14.2493 18.3697 14.2586 18.5203 14.2501 18.6704Z" fill="#263238"/>
<path d="M27.528 16.1928C27.3601 16.2294 27.1891 16.2502 27.0173 16.2549C26.6722 16.286 26.1823 16.3274 25.5749 16.3964C24.3603 16.5275 22.6902 16.769 20.858 17.1141C19.0257 17.4592 17.3798 17.8491 16.1962 18.1493C15.6062 18.3011 15.13 18.4391 14.816 18.5323C14.6483 18.5919 14.4748 18.6335 14.2984 18.6565C14.4579 18.5763 14.6241 18.5105 14.7953 18.4599C15.1196 18.346 15.5889 18.1872 16.1755 18.0182C17.3522 17.6731 18.9981 17.2625 20.8373 16.9105C22.3952 16.6126 23.9673 16.3938 25.5473 16.2549C26.1581 16.2032 26.6515 16.1824 26.9966 16.1755C27.1739 16.1635 27.3519 16.1693 27.528 16.1928Z" fill="#263238"/>
<path d="M8.48759 33.4113C8.4508 33.3614 8.42065 33.3068 8.39788 33.2491L8.17014 32.7695C7.97346 32.352 7.70776 31.7343 7.3903 30.9786C6.74849 29.4604 5.9307 27.3348 5.06115 24.9746C4.1916 22.6144 3.39106 20.4888 2.78375 18.9533C2.487 18.208 2.24202 17.5972 2.05913 17.1417L1.86589 16.6483C1.83911 16.5914 1.82053 16.531 1.81069 16.4689C1.84748 16.5188 1.87763 16.5733 1.9004 16.6311L2.12814 17.1107C2.32137 17.5282 2.59052 18.1459 2.90798 18.9016C3.54979 20.4198 4.36758 22.5454 5.23713 24.9056C6.10668 27.2658 6.90722 29.3914 7.51453 30.9269C7.81128 31.6722 8.05627 32.283 8.2357 32.7384C8.31507 32.9351 8.38063 33.0835 8.43239 33.2319C8.45917 33.2888 8.47775 33.3492 8.48759 33.4113Z" fill="#263238"/>
<path d="M26.1133 27.7281C26.058 27.7599 25.9988 27.7842 25.9373 27.8006L25.4266 27.9731L23.5391 28.5839C21.9449 29.1015 19.7435 29.8399 17.328 30.6543C14.9126 31.4686 12.7008 32.1932 11.0963 32.6763C10.2957 32.9213 9.64355 33.1076 9.19152 33.2319L8.67048 33.3664C8.6099 33.3857 8.54744 33.3984 8.48416 33.4044C8.53941 33.3727 8.59856 33.3483 8.66013 33.3319L9.17082 33.1594L11.0583 32.5486C12.6525 32.031 14.854 31.2926 17.2694 30.4783C19.6848 29.6639 21.8932 28.9393 23.4977 28.4562C24.3017 28.2112 24.9504 28.0249 25.4059 27.9007L25.9269 27.7661C25.9875 27.7469 26.05 27.7341 26.1133 27.7281Z" fill="#263238"/>
</svg>
