<svg width="11" height="12" viewBox="0 0 11 12" fill="none" xmlns="http://www.w3.org/2000/svg">
<path opacity="0.1" fill-rule="evenodd" clip-rule="evenodd" d="M0.113541 5.72712C0.113541 2.77689 2.50517 0.385254 5.45541 0.385254C8.40564 0.385254 10.7973 2.77689 10.7973 5.72712C10.7973 8.67735 8.40564 11.069 5.45541 11.069C2.50517 11.069 0.113541 8.67735 0.113541 5.72712Z" fill="white"/>
<path fill-rule="evenodd" clip-rule="evenodd" d="M8.3044 5.72322C8.3044 5.91589 8.28479 6.10829 8.24626 6.29584C8.20869 6.47894 8.15305 6.65869 8.08015 6.83053C8.00893 6.99933 7.92059 7.16199 7.81736 7.31369C7.71567 7.46442 7.59853 7.60584 7.46984 7.73475C7.34088 7.86311 7.19898 7.97993 7.04832 8.08205C6.89612 8.18456 6.73323 8.27277 6.56433 8.34432C6.39224 8.41684 6.21207 8.4724 6.02914 8.5099C5.84134 8.54853 5.64823 8.56825 5.45528 8.56825C5.26219 8.56825 5.06909 8.54853 4.88156 8.5099C4.69835 8.4724 4.51819 8.41684 4.34623 8.34432C4.17735 8.27277 4.01429 8.18456 3.8621 8.08205C3.71144 7.97994 3.56954 7.86311 3.44085 7.73475C3.31203 7.60584 3.19489 7.46442 3.09306 7.31369C2.99039 7.16199 2.9019 6.99932 2.8304 6.83053C2.75749 6.65869 2.70171 6.47893 2.66401 6.29584C2.6259 6.10829 2.60641 5.91589 2.60641 5.72322C2.60641 5.5304 2.62588 5.33759 2.66402 5.15045C2.70172 4.96735 2.7575 4.78732 2.83041 4.61576C2.90191 4.44684 2.9904 4.28403 3.09307 4.13233C3.1949 3.98147 3.31204 3.84032 3.44086 3.71126C3.56955 3.5829 3.71145 3.46636 3.86211 3.36439C4.01431 3.26145 4.17736 3.17324 4.34624 3.10156C4.5182 3.02889 4.69835 2.97319 4.88157 2.93597C5.0691 2.89763 5.2622 2.87817 5.45529 2.87817C5.64824 2.87817 5.84134 2.89763 6.02915 2.93597C6.21208 2.9732 6.39224 3.0289 6.56434 3.10156C6.73323 3.17323 6.89613 3.26145 7.04833 3.36439C7.19899 3.46636 7.3409 3.5829 7.46986 3.71126C7.59854 3.84032 7.71568 3.98147 7.81737 4.13233C7.92059 4.28403 8.00893 4.44685 8.08015 4.61576C8.15305 4.78732 8.20869 4.96735 8.24626 5.15045C8.28479 5.33759 8.3044 5.5304 8.3044 5.72322ZM4.41717 3.52567C3.73868 3.8456 3.23229 4.4699 3.07439 5.22228C3.13853 5.22283 4.15243 5.23562 5.3206 4.92568C4.89949 4.17858 4.44959 3.56888 4.41717 3.52567ZM5.52218 5.2998C4.26942 5.67431 3.0673 5.64736 3.02418 5.6457C3.02347 5.67182 3.02222 5.69709 3.02222 5.72322C3.02222 6.34736 3.25803 6.91637 3.64561 7.34661C3.64478 7.34535 4.31061 6.16581 5.6236 5.74183C5.65531 5.73128 5.6876 5.72182 5.71959 5.71266C5.65852 5.57458 5.59187 5.43622 5.52218 5.2998ZM7.06209 3.89978C6.63374 3.52261 6.07129 3.29383 5.45527 3.29383C5.25758 3.29383 5.06574 3.31772 4.88196 3.36189C4.91841 3.4108 5.37542 4.0162 5.79152 4.77912C6.70957 4.43545 7.0561 3.90866 7.06209 3.89978ZM5.88544 6.11524C5.88002 6.11703 5.8746 6.11858 5.8693 6.12052C4.43376 6.62025 3.96497 7.62734 3.9599 7.63834C4.37295 7.95909 4.89102 8.15261 5.45529 8.15261C5.79222 8.15261 6.11317 8.08411 6.40518 7.96007C6.36915 7.7478 6.2278 7.00376 5.88544 6.11524ZM6.81488 7.73808C7.36119 7.36995 7.74918 6.78539 7.85742 6.10828C7.80734 6.09217 7.12663 5.87698 6.34131 6.00271C6.66044 6.87846 6.79011 7.59166 6.81488 7.73808ZM5.97879 5.14115C6.03526 5.25701 6.08995 5.37493 6.14044 5.49344C6.15839 5.53596 6.17592 5.57763 6.19303 5.6193C7.02885 5.51428 7.85229 5.69098 7.88749 5.69819C7.88193 5.12225 7.67561 4.59366 7.33422 4.17984C7.32963 4.18635 6.9394 4.74939 5.97879 5.14115Z" fill="white"/>
</svg>
