<svg width="11" height="12" viewBox="0 0 11 12" fill="none" xmlns="http://www.w3.org/2000/svg">
<path opacity="0.1" fill-rule="evenodd" clip-rule="evenodd" d="M0.139137 5.72712C0.139137 2.77689 2.53077 0.385254 5.481 0.385254C8.43123 0.385254 10.8229 2.77689 10.8229 5.72712C10.8229 8.67735 8.43123 11.069 5.481 11.069C2.53077 11.069 0.139137 8.67735 0.139137 5.72712Z" fill="white"/>
<path fill-rule="evenodd" clip-rule="evenodd" d="M5.32101 4.72715L5.33222 4.91199L5.14539 4.88935C4.46535 4.80259 3.87124 4.50836 3.36681 4.01419L3.1202 3.76899L3.05668 3.95006C2.92216 4.35369 3.0081 4.77996 3.28834 5.06665C3.4378 5.22509 3.40417 5.24772 3.14635 5.15341C3.05668 5.12323 2.97821 5.1006 2.97074 5.11192C2.94458 5.13832 3.03426 5.4816 3.10525 5.6174C3.2024 5.80601 3.40044 5.99085 3.61716 6.10025L3.80025 6.18701L3.58353 6.19078C3.37428 6.19078 3.36681 6.19456 3.38923 6.27377C3.46396 6.51897 3.75914 6.77926 4.08796 6.89242L4.31962 6.97164L4.11785 7.09235C3.81893 7.26588 3.46769 7.36396 3.11646 7.3715C2.94832 7.37527 2.81007 7.39036 2.81007 7.40168C2.81007 7.4394 3.26592 7.65065 3.53122 7.73364C4.32709 7.97883 5.27244 7.87321 5.98238 7.45449C6.48681 7.15648 6.99124 6.56424 7.22664 5.99085C7.35368 5.6853 7.48072 5.12701 7.48072 4.85918C7.48072 4.68565 7.49193 4.66302 7.70118 4.45555C7.82448 4.33483 7.94031 4.2028 7.96273 4.16508C8.0001 4.09341 7.99636 4.09341 7.8058 4.15754C7.48819 4.2707 7.44336 4.25562 7.60029 4.08586C7.71612 3.96515 7.85437 3.74636 7.85437 3.68223C7.85437 3.67092 7.79833 3.68978 7.7348 3.72373C7.66755 3.76145 7.51809 3.81803 7.40599 3.85198L7.20422 3.91611L7.02113 3.79163C6.92024 3.72373 6.77825 3.64828 6.70352 3.62565C6.51296 3.57284 6.22151 3.58038 6.04963 3.64074C5.58257 3.81049 5.28738 4.24807 5.32101 4.72715Z" fill="white"/>
</svg>
