<svg width="11" height="12" viewBox="0 0 11 12" fill="none" xmlns="http://www.w3.org/2000/svg">
<path opacity="0.1" fill-rule="evenodd" clip-rule="evenodd" d="M0.0879517 5.72712C0.0879517 2.77689 2.47959 0.385254 5.42982 0.385254C8.38005 0.385254 10.7717 2.77689 10.7717 5.72712C10.7717 8.67735 8.38005 11.069 5.42982 11.069C2.47959 11.069 0.0879517 8.67735 0.0879517 5.72712Z" fill="white"/>
<path fill-rule="evenodd" clip-rule="evenodd" d="M5.43008 2.87817C4.65633 2.87817 4.55923 2.88156 4.25533 2.89539C3.95203 2.90928 3.745 2.95729 3.56385 3.02775C3.37647 3.10052 3.21752 3.19786 3.05916 3.35628C2.90068 3.51463 2.80334 3.67359 2.73033 3.86091C2.6597 4.04212 2.61162 4.24921 2.59797 4.55239C2.58438 4.85629 2.58082 4.95345 2.58082 5.7272C2.58082 6.50095 2.58426 6.59775 2.59803 6.90165C2.61198 7.20495 2.66 7.41198 2.73039 7.59313C2.80322 7.78051 2.90056 7.93946 3.05898 8.09782C3.21728 8.2563 3.37623 8.35388 3.56349 8.42665C3.74476 8.4971 3.95185 8.54512 4.25509 8.55901C4.55899 8.57284 4.65604 8.57622 5.42972 8.57622C6.20353 8.57622 6.30034 8.57284 6.60423 8.55901C6.90754 8.54512 7.1148 8.4971 7.29607 8.42665C7.4834 8.35388 7.64211 8.2563 7.80041 8.09782C7.95889 7.93946 8.05623 7.78051 8.12923 7.59319C8.19927 7.41198 8.24735 7.20489 8.26159 6.90171C8.27525 6.59781 8.27881 6.50095 8.27881 5.7272C8.27881 4.95345 8.27525 4.85635 8.26159 4.55245C8.24735 4.24915 8.19927 4.04212 8.12923 3.86097C8.05623 3.67359 7.95889 3.51463 7.80041 3.35628C7.64193 3.1978 7.48345 3.10046 7.29589 3.02775C7.11427 2.95729 6.90712 2.90928 6.60382 2.89539C6.29992 2.88156 6.20317 2.87817 5.42919 2.87817H5.43008ZM5.17449 3.39158C5.25034 3.39146 5.33498 3.39158 5.43007 3.39158C6.19076 3.39158 6.28092 3.39431 6.58131 3.40797C6.85909 3.42067 7.00985 3.46708 7.11028 3.50608C7.24323 3.55772 7.33802 3.61945 7.43768 3.71916C7.5374 3.81888 7.59912 3.91385 7.65088 4.0468C7.68988 4.14711 7.73635 4.29787 7.74899 4.57565C7.76265 4.87598 7.76561 4.9662 7.76561 5.72654C7.76561 6.48687 7.76265 6.57709 7.74899 6.87742C7.73629 7.1552 7.68988 7.30596 7.65088 7.40627C7.59924 7.53923 7.5374 7.6339 7.43768 7.73356C7.33796 7.83327 7.24329 7.895 7.11028 7.94664C7.00997 7.98581 6.85909 8.03211 6.58131 8.04481C6.28098 8.05846 6.19076 8.06143 5.43007 8.06143C4.66932 8.06143 4.57916 8.05846 4.27882 8.04481C4.00104 8.03199 3.85028 7.98558 3.7498 7.94658C3.61684 7.89494 3.52187 7.83321 3.42216 7.7335C3.32244 7.63378 3.26071 7.53905 3.20896 7.40604C3.16996 7.30573 3.12349 7.15497 3.11084 6.87719C3.09719 6.57685 3.09446 6.48663 3.09446 5.72582C3.09446 4.96502 3.09719 4.87527 3.11084 4.57494C3.12355 4.29716 3.16996 4.1464 3.20896 4.04597C3.2606 3.91301 3.32244 3.81805 3.42216 3.71833C3.52187 3.61862 3.61684 3.55689 3.7498 3.50513C3.85022 3.46596 4.00104 3.41966 4.27882 3.4069C4.54165 3.39503 4.6435 3.39146 5.17449 3.39087V3.39158ZM6.95085 3.86464C6.76211 3.86464 6.60897 4.0176 6.60897 4.20641C6.60897 4.39515 6.76211 4.54829 6.95085 4.54829C7.1396 4.54829 7.29274 4.39515 7.29274 4.20641C7.29274 4.01766 7.1396 3.86464 6.95085 3.86464ZM5.43008 4.2641C4.62209 4.2641 3.96699 4.91919 3.96699 5.72719C3.96699 6.53519 4.62209 7.18999 5.43008 7.18999C6.23808 7.18999 6.89294 6.53519 6.89294 5.72719C6.89294 4.91919 6.23808 4.2641 5.43008 4.2641ZM5.43007 4.77752C5.95453 4.77752 6.37975 5.20267 6.37975 5.72719C6.37975 6.25165 5.95453 6.67686 5.43007 6.67686C4.90556 6.67686 4.4804 6.25165 4.4804 5.72719C4.4804 5.20267 4.90556 4.77752 5.43007 4.77752Z" fill="white"/>
</svg>
