<svg width="11" height="12" viewBox="0 0 11 12" fill="none" xmlns="http://www.w3.org/2000/svg">
<path opacity="0.1" fill-rule="evenodd" clip-rule="evenodd" d="M0.16473 5.72712C0.16473 2.77689 2.55636 0.385254 5.50659 0.385254C8.45683 0.385254 10.8485 2.77689 10.8485 5.72712C10.8485 8.67735 8.45683 11.069 5.50659 11.069C2.55636 11.069 0.16473 8.67735 0.16473 5.72712Z" fill="white"/>
<path fill-rule="evenodd" clip-rule="evenodd" d="M7.73273 3.8907C7.9779 3.95798 8.17099 4.15621 8.23651 4.40795C8.35559 4.86419 8.35559 5.81615 8.35559 5.81615C8.35559 5.81615 8.35559 6.76807 8.23651 7.22435C8.17099 7.47608 7.9779 7.67432 7.73273 7.74163C7.28841 7.86386 5.50659 7.86386 5.50659 7.86386C5.50659 7.86386 3.72478 7.86386 3.28043 7.74163C3.03525 7.67432 2.84217 7.47608 2.77664 7.22435C2.6576 6.76807 2.6576 5.81615 2.6576 5.81615C2.6576 5.81615 2.6576 4.86419 2.77664 4.40795C2.84217 4.15621 3.03525 3.95798 3.28043 3.8907C3.72478 3.76843 5.50659 3.76843 5.50659 3.76843C5.50659 3.76843 7.28841 3.76843 7.73273 3.8907ZM4.97241 5.01485V6.79547L6.39691 5.90519L4.97241 5.01485Z" fill="white"/>
</svg>
