<svg width="18" height="21" viewBox="0 0 18 21" fill="none" xmlns="http://www.w3.org/2000/svg">
<path d="M8.97819 0.638512H8.81601L8.34673 0.673021C8.09277 0.688278 7.84023 0.721723 7.59105 0.773091C7.42965 0.795753 7.26956 0.826847 7.11142 0.866253L6.57657 1.01463C5.66625 1.29392 4.80735 1.71928 4.03348 2.2741C3.01103 3.01625 2.15727 3.96644 1.52835 5.06218C1.15869 5.69382 0.864527 6.3667 0.651894 7.06698C0.428465 7.82809 0.299823 8.61386 0.26888 9.40649C0.248315 9.82286 0.25523 10.2401 0.289583 10.6556C0.289583 10.8661 0.348243 11.0766 0.375848 11.2905C0.399066 11.5062 0.439451 11.7196 0.496618 11.9289C0.806903 13.3135 1.43648 14.6065 2.33513 15.7046C3.23378 16.8028 4.37663 17.6757 5.67252 18.2538C6.61042 18.6585 7.6157 18.8844 8.63658 18.9198C9.69099 18.9778 10.7465 18.8265 11.7421 18.4747L12.0458 18.3608H12.0872L12.1217 18.3815L16.4729 20.5899L16.3452 20.7003C15.8794 19.2579 15.4308 17.8605 14.996 16.5182V16.4664L15.034 16.4285C16.0895 15.3653 16.8731 14.0633 17.3183 12.6328C17.7215 11.325 17.8392 9.94589 17.6633 8.5887C17.507 7.38254 17.1191 6.21792 16.5212 5.1588C16.0058 4.24899 15.3409 3.43244 14.5544 2.74338C13.9055 2.19798 13.1873 1.74084 12.4184 1.38384C11.8367 1.13294 11.2309 0.942171 10.6103 0.814496L9.9202 0.700626L9.41987 0.662669L9.11622 0.641966H9.0127C9.0471 0.638149 9.08181 0.638149 9.11622 0.641966H9.42332L9.92365 0.662669L10.6138 0.762734C11.242 0.881062 11.8561 1.06495 12.446 1.31138C13.2281 1.66413 13.9592 2.12023 14.6199 2.66747C15.4209 3.35347 16.0999 4.17015 16.6282 5.08289C17.2431 6.15339 17.6428 7.33378 17.8048 8.55764C17.9952 9.93579 17.8858 11.3388 17.4839 12.6708C17.0358 14.131 16.2401 15.4607 15.1651 16.5458L15.1858 16.4561C15.6206 17.7983 16.0726 19.1958 16.5419 20.6347L16.6075 20.8452L16.4108 20.7452L12.0596 18.5402H12.1355L11.8249 18.6541C10.8101 19.0112 9.7351 19.1659 8.66074 19.1096C7.61785 19.0699 6.59155 18.8358 5.63456 18.4195C3.80909 17.6377 2.29031 16.2789 1.31096 14.5513C0.860281 13.7535 0.531152 12.8929 0.334439 11.9979C0.280571 11.7832 0.240235 11.5654 0.213669 11.3457C0.186064 11.1283 0.141207 10.9144 0.130855 10.7005C0.0374676 9.47269 0.167235 8.23815 0.513872 7.05663C0.731799 6.34671 1.03416 5.66552 1.41448 5.02767C2.0584 3.92197 2.92995 2.96574 3.97137 2.22234C4.75798 1.66611 5.6313 1.24402 6.55587 0.973221L7.09761 0.835199C7.25706 0.798214 7.4183 0.769421 7.5807 0.748934C7.83247 0.702315 8.08737 0.674631 8.34328 0.666118L8.81601 0.648869C8.86976 0.641629 8.92396 0.638166 8.97819 0.638512Z" fill="#072F5E"/>
<path d="M10.945 8.68534H10.3066L8.9264 6.74611V5.47283C8.9264 5.47283 7.93953 5.41072 8.05685 7.07736C8.17417 8.744 8.05685 8.31958 8.05685 8.31958C8.05685 8.31958 5.96234 8.31958 5.78981 8.50936C5.61728 8.69914 5.60693 10.7212 5.58277 11.8495C5.56955 12.1215 5.6476 12.3902 5.80452 12.6127C5.96144 12.8353 6.18823 12.999 6.44887 13.078C6.52193 13.0982 6.59735 13.1086 6.67316 13.109C7.19765 13.109 9.86497 12.6846 9.86497 12.6846H10.9657L10.945 8.68534Z" fill="#072F5E"/>
<path d="M12.7704 8.34369L12.377 12.7052H11.2866V8.43341L12.7704 8.34369Z" fill="#072F5E"/>
</svg>
