<svg width="2" height="3" viewBox="0 0 2 3" fill="none" xmlns="http://www.w3.org/2000/svg">
<path d="M1.5397 1.59031C1.53018 1.72932 1.48002 1.86246 1.39546 1.97319C1.31089 2.08392 1.19565 2.16735 1.06406 2.21312C0.932458 2.25889 0.790314 2.26499 0.655286 2.23063C0.520259 2.19628 0.398295 2.123 0.304572 2.0199C0.210849 1.91681 0.149491 1.78844 0.128124 1.65076C0.106757 1.51308 0.126331 1.37216 0.184399 1.24551C0.242467 1.11885 0.33647 1.01206 0.454735 0.938398C0.573 0.864736 0.710303 0.827455 0.849582 0.831188C1.04088 0.842769 1.22009 0.928609 1.34901 1.07042C1.47792 1.21223 1.54635 1.39878 1.5397 1.59031Z" fill="#072F5E"/>
</svg>
