<svg width="36" height="7" viewBox="0 0 36 7" fill="none" xmlns="http://www.w3.org/2000/svg">
<path d="M35.0522 6.97173C35.1219 6.96468 35.1904 6.94844 35.2558 6.92342C35.3513 6.88608 35.4344 6.82256 35.4954 6.74016C35.5564 6.65776 35.593 6.55982 35.6009 6.45759C35.6009 5.90894 35.6009 5.1084 35.6009 4.08012C35.6009 3.56598 35.6009 2.98973 35.6009 2.35482C35.6009 2.19955 35.6009 2.03737 35.6009 1.87519C35.6234 1.71782 35.5891 1.55759 35.5043 1.42316C35.4568 1.35871 35.395 1.30615 35.3237 1.26963C35.2525 1.23311 35.1737 1.21361 35.0936 1.21268H34.5553H29.5692L0.708426 1.10571C0.634554 1.10445 0.561473 1.12105 0.495391 1.15409C0.429308 1.18713 0.372182 1.23564 0.328863 1.29549C0.245536 1.43046 0.213679 1.59096 0.239144 1.74752C0.239144 2.09258 0.239144 2.43764 0.239144 2.7827C0.239144 3.47282 0.239144 4.16294 0.239144 4.85306C0.239144 5.19812 0.239144 5.54318 0.239144 5.88824C0.224829 6.04895 0.224829 6.21061 0.239144 6.37132C0.257271 6.44022 0.290964 6.50404 0.337624 6.55788C0.384284 6.61172 0.442667 6.65414 0.50829 6.68188C0.576281 6.70894 0.64908 6.72186 0.722231 6.71983H2.47858L10.1424 6.76124L23.1166 6.8406L31.8639 6.90961L34.2413 6.93722H34.859C35.0005 6.93722 35.0695 6.93722 35.0695 6.93722H34.859H34.2413H31.8639H23.1166L10.1424 6.89581L2.47858 6.86476H0.722231C0.625571 6.86867 0.529167 6.85221 0.439279 6.81645C0.348421 6.77768 0.267619 6.71866 0.203035 6.64391C0.138451 6.56916 0.09179 6.48065 0.0666141 6.38513C0.0466394 6.29456 0.039669 6.20161 0.0459113 6.10908V5.85373C0.0459113 5.50867 0.0459113 5.16361 0.0459113 4.81855C0.0459113 4.12843 0.0459113 3.43831 0.0459113 2.74819C0.0459113 2.40313 0.0459113 2.05807 0.0459113 1.71301C0.0393303 1.62111 0.0393303 1.52886 0.0459113 1.43696C0.0588413 1.33546 0.0980978 1.23911 0.159782 1.15747C0.219308 1.07417 0.298092 1.00651 0.389418 0.960247C0.480744 0.913983 0.581906 0.890494 0.684274 0.891773L29.5451 1.0505L34.5312 1.08501H35.0695C35.1643 1.08508 35.2578 1.10801 35.3418 1.15186C35.4259 1.19571 35.4982 1.25918 35.5526 1.3369C35.6499 1.48692 35.6891 1.66725 35.663 1.84414C35.663 2.00631 35.663 2.16849 35.663 2.32377C35.663 2.95178 35.663 3.52803 35.663 4.04907C35.663 5.08425 35.6388 5.87788 35.6319 6.42998C35.6235 6.53613 35.5849 6.63767 35.5207 6.72264C35.4565 6.80761 35.3694 6.87248 35.2696 6.90961C35.2043 6.95008 35.1291 6.97159 35.0522 6.97173Z" fill="#E0E0E0"/>
</svg>
