<svg width="51" height="102" viewBox="0 0 51 102" fill="none" xmlns="http://www.w3.org/2000/svg">
<path d="M42.7549 101.632L8.28681 101.473C6.29631 101.462 4.39154 100.662 2.99083 99.2473C1.59012 97.833 0.80801 95.9206 0.816269 93.9301L1.18203 7.52365C1.1861 6.53749 1.38448 5.5618 1.76584 4.65235C2.1472 3.7429 2.70407 2.91753 3.40459 2.22341C4.10512 1.52929 4.93557 0.98004 5.84849 0.607054C6.76141 0.234068 7.73888 0.0446609 8.72504 0.0496569L43.1896 0.208384C45.1801 0.218428 47.0853 1.01809 48.4866 2.43173C49.888 3.84538 50.671 5.75743 50.6636 7.74794L50.2979 94.1509C50.2938 95.1374 50.0955 96.1135 49.7142 97.0233C49.3329 97.9331 48.7761 98.759 48.0757 99.4536C47.3753 100.148 46.5449 100.698 45.6319 101.072C44.719 101.446 43.7413 101.636 42.7549 101.632Z" fill="#455A64"/>
</svg>
