<svg width="3" height="3" viewBox="0 0 3 3" fill="none" xmlns="http://www.w3.org/2000/svg">
<path d="M2.34167 1.57993C2.33225 1.71821 2.28261 1.85073 2.19885 1.96117C2.11509 2.07161 2.00087 2.15515 1.87025 2.20151C1.73963 2.24787 1.5983 2.25503 1.46366 2.2221C1.32902 2.18918 1.20694 2.11761 1.11245 2.0162C1.01796 1.9148 0.955181 1.78798 0.931833 1.65136C0.908485 1.51473 0.925587 1.37426 0.981042 1.24723C1.0365 1.1202 1.12788 1.01215 1.24394 0.936385C1.36001 0.86062 1.4957 0.820451 1.63431 0.820803C1.82866 0.827998 2.01224 0.91193 2.14483 1.05422C2.27742 1.19651 2.3482 1.38555 2.34167 1.57993Z" fill="#072F5E"/>
</svg>
