<svg width="37" height="7" viewBox="0 0 37 7" fill="none" xmlns="http://www.w3.org/2000/svg">
<path d="M35.828 6.83002C35.8977 6.82146 35.9668 6.80878 36.035 6.79207C36.1314 6.76139 36.2201 6.71041 36.2951 6.64255C36.3701 6.57469 36.4296 6.49154 36.4698 6.3987C36.5241 6.2594 36.5454 6.10938 36.5319 5.96047C36.5319 5.79484 36.5319 5.61541 36.5319 5.41527C36.5319 5.015 36.5319 4.55953 36.5319 4.03503V1.84391C36.5484 1.68527 36.5133 1.52555 36.4318 1.38843C36.3467 1.2478 36.2128 1.1434 36.0557 1.09513C35.8838 1.06446 35.7088 1.05519 35.5347 1.06752H30.5693L1.80851 0.960555C1.6538 0.96092 1.5045 1.01745 1.38835 1.11963C1.2722 1.22182 1.19711 1.36271 1.17704 1.5161C1.17704 1.84391 1.17704 2.20622 1.17704 2.55128C1.17704 3.2414 1.17704 3.93152 1.17704 4.62164C1.17704 4.9667 1.17704 5.31176 1.17704 5.65682C1.16419 5.81809 1.17114 5.98032 1.19775 6.1399C1.24083 6.27982 1.3295 6.40129 1.44964 6.48496C1.5771 6.56585 1.72683 6.60449 1.87752 6.59538H2.35715H3.35437L10.9906 6.63334L23.9199 6.7127L32.6362 6.78171L35.0067 6.80932H32.6362H23.9199L10.9836 6.79551L3.34747 6.76791H1.84646C1.65982 6.77898 1.47462 6.72934 1.31852 6.62644C1.16151 6.51767 1.04692 6.35798 0.994163 6.17441C0.963236 5.99908 0.953965 5.82061 0.966558 5.64301C0.966558 5.29796 0.966558 4.9529 0.966558 4.60784C0.966558 3.91772 0.966558 3.2276 0.966558 2.53748C0.966558 2.19242 0.966558 1.84736 0.966558 1.5023C0.991736 1.30499 1.08796 1.12362 1.23722 0.992146C1.38648 0.860671 1.57854 0.788103 1.77745 0.788025L30.5382 0.94675L35.5036 0.984706C35.6885 0.973364 35.8741 0.986123 36.0557 1.02266C36.235 1.08124 36.3862 1.20418 36.4801 1.36772C36.5694 1.51971 36.6081 1.69613 36.5905 1.87151C36.5905 2.03369 36.5905 2.19242 36.5905 2.35115C36.5905 2.9757 36.5905 3.5485 36.5905 4.07645C36.5905 4.60439 36.5905 5.04951 36.5905 5.45669C36.5905 5.65337 36.5905 5.83625 36.5905 6.00533C36.6031 6.15964 36.5782 6.3147 36.5181 6.45736C36.4733 6.55257 36.4085 6.637 36.3281 6.70488C36.2477 6.77277 36.1536 6.82252 36.0522 6.85072C35.9768 6.85696 35.9009 6.84995 35.828 6.83002Z" fill="#E0E0E0"/>
</svg>
