<svg width="3" height="3" viewBox="0 0 3 3" fill="none" xmlns="http://www.w3.org/2000/svg">
<path d="M2.34807 1.53164C2.33788 1.67044 2.28718 1.80319 2.20225 1.91344C2.11731 2.02369 2.00188 2.10657 1.87027 2.15182C1.73866 2.19708 1.59666 2.2027 1.46189 2.16799C1.32711 2.13328 1.20549 2.05978 1.1121 1.95659C1.01872 1.8534 0.957683 1.72506 0.936561 1.5875C0.915439 1.44994 0.935159 1.30921 0.993283 1.18276C1.05141 1.0563 1.14538 0.949695 1.26353 0.876152C1.38168 0.802609 1.51882 0.765367 1.65795 0.769048C1.84986 0.780633 2.0296 0.866962 2.15861 1.00952C2.28762 1.15208 2.35564 1.33952 2.34807 1.53164Z" fill="#072F5E"/>
</svg>
