<svg width="2" height="3" viewBox="0 0 2 3" fill="none" xmlns="http://www.w3.org/2000/svg">
<path d="M1.94562 1.55925C1.9362 1.69753 1.88656 1.83004 1.8028 1.94048C1.71904 2.05092 1.60482 2.13446 1.4742 2.18083C1.34358 2.22719 1.20225 2.23434 1.06761 2.20142C0.932972 2.1685 0.810893 2.09693 0.716402 1.99552C0.62191 1.89412 0.559122 1.7673 0.535774 1.63068C0.512426 1.49405 0.529539 1.35358 0.584993 1.22655C0.640447 1.09952 0.731828 0.991469 0.847895 0.915704C0.963961 0.839939 1.09964 0.79976 1.23825 0.800112C1.4326 0.807307 1.61618 0.89125 1.74877 1.03354C1.88136 1.17583 1.95215 1.36487 1.94562 1.55925Z" fill="#072F5E"/>
</svg>
