<svg width="2" height="3" viewBox="0 0 2 3" fill="none" xmlns="http://www.w3.org/2000/svg">
<path d="M1.94855 1.51095C1.93837 1.64975 1.88767 1.7825 1.80273 1.89275C1.7178 2.003 1.60237 2.08588 1.47076 2.13113C1.33915 2.17638 1.19715 2.182 1.06237 2.1473C0.927599 2.11259 0.805976 2.03909 0.712591 1.9359C0.619207 1.83271 0.558171 1.70437 0.537049 1.56681C0.515928 1.42925 0.535648 1.28852 0.593771 1.16206C0.651895 1.03561 0.745865 0.929004 0.864018 0.855461C0.982172 0.781918 1.11931 0.744676 1.25843 0.748357C1.45067 0.759068 1.63094 0.845144 1.76013 0.987902C1.88933 1.13066 1.95703 1.3186 1.94855 1.51095Z" fill="#072F5E"/>
</svg>
