<svg width="6" height="6" viewBox="0 0 6 6" fill="none" xmlns="http://www.w3.org/2000/svg">
<path d="M3.41692 2.77745C3.65662 2.67189 3.85999 2.49818 4.00171 2.27792C4.14344 2.05766 4.21727 1.80058 4.21401 1.53869C4.22294 1.36844 4.19711 1.19815 4.13811 1.0382C4.07911 0.87825 3.98817 0.731986 3.87082 0.608317C3.75347 0.484649 3.61217 0.386166 3.45553 0.318866C3.29889 0.251566 3.13019 0.216858 2.95971 0.216858C2.78923 0.216858 2.62052 0.251566 2.46389 0.318866C2.30725 0.386166 2.16595 0.484649 2.0486 0.608317C1.93125 0.731986 1.84031 0.87825 1.78131 1.0382C1.72231 1.19815 1.69649 1.36844 1.70542 1.53869C1.70017 1.8032 1.7734 2.06335 1.91587 2.28628C2.05835 2.50921 2.26369 2.68493 2.50596 2.79125C0.573619 3.0811 0.659893 5.17907 0.659893 5.17907L5.22848 5.19977C5.22848 5.19977 5.33545 3.06385 3.41692 2.77745Z" fill="#072F5E"/>
</svg>
