<svg width="3" height="3" viewBox="0 0 3 3" fill="none" xmlns="http://www.w3.org/2000/svg">
<path d="M2.14658 1.52131C2.15337 1.61859 2.14006 1.71622 2.1075 1.80814C2.07494 1.90006 2.02382 1.9843 1.95731 2.05561C1.8908 2.12693 1.81033 2.1838 1.7209 2.22268C1.63147 2.26156 1.53499 2.28163 1.43748 2.28163C1.33996 2.28163 1.24348 2.26156 1.15405 2.22268C1.06463 2.1838 0.984153 2.12693 0.917642 2.05561C0.851132 1.9843 0.800008 1.90006 0.767447 1.80814C0.734887 1.71622 0.721589 1.61859 0.728379 1.52131C0.721589 1.42403 0.734887 1.32639 0.767447 1.23447C0.800008 1.14255 0.851132 1.05832 0.917642 0.987C0.984153 0.915685 1.06463 0.858817 1.15405 0.819935C1.24348 0.781054 1.33996 0.760986 1.43748 0.760986C1.53499 0.760986 1.63147 0.781054 1.7209 0.819935C1.81033 0.858817 1.8908 0.915685 1.95731 0.987C2.02382 1.05832 2.07494 1.14255 2.1075 1.23447C2.14006 1.32639 2.15337 1.42403 2.14658 1.52131Z" fill="#072F5E"/>
</svg>
