<svg width="37" height="7" viewBox="0 0 37 7" fill="none" xmlns="http://www.w3.org/2000/svg">
<path d="M35.759 6.32666C35.8287 6.31843 35.8979 6.30575 35.966 6.28871C36.062 6.25821 36.1503 6.20768 36.2253 6.14046C36.3002 6.07324 36.3601 5.99086 36.4008 5.89879C36.4549 5.75942 36.4761 5.60947 36.4629 5.46057C36.4629 5.29149 36.4629 5.11551 36.4629 4.91192C36.4629 4.5151 36.4629 4.05617 36.4629 3.53168V1.34055C36.4794 1.18191 36.4443 1.02219 36.3628 0.885068C36.2757 0.747003 36.1424 0.644304 35.9867 0.595218C35.815 0.563324 35.64 0.552894 35.4657 0.564164H30.5003L1.73951 0.457197C1.58481 0.457562 1.4355 0.514094 1.31935 0.616279C1.2032 0.718465 1.12812 0.859344 1.10805 1.01274C1.10805 1.3578 1.10805 1.70286 1.10805 2.04792C1.10805 2.73804 1.10805 3.42816 1.10805 4.11828C1.10805 4.46334 1.10805 4.8084 1.10805 5.15346C1.0952 5.31358 1.10215 5.47468 1.12875 5.6331C1.17008 5.77389 1.25914 5.8959 1.38064 5.97816C1.50731 6.06086 1.65765 6.09965 1.80852 6.08857H3.30953L10.9457 6.12998L23.8751 6.20934L32.5913 6.27836L34.9619 6.30596H32.5913H23.8751L10.9457 6.268L3.30953 6.23695H1.80852C1.62173 6.24955 1.43604 6.19979 1.28058 6.09547C1.12357 5.98671 1.00898 5.82702 0.956222 5.64345C0.925295 5.46811 0.916024 5.28964 0.928617 5.11205C0.928617 4.76699 0.928617 4.42193 0.928617 4.07687C0.928617 3.38675 0.928617 2.69663 0.928617 2.00651C0.928617 1.66145 0.928617 1.3164 0.928617 0.954084C0.953011 0.757067 1.04853 0.575748 1.19723 0.444213C1.34592 0.312678 1.53753 0.239985 1.73606 0.239807L30.4968 0.398532L35.4622 0.436494C35.6471 0.425151 35.8327 0.437905 36.0143 0.474445C36.1936 0.533023 36.3448 0.655958 36.4387 0.819505C36.528 0.971489 36.5667 1.1479 36.5492 1.32329C36.5492 1.48547 36.5492 1.64765 36.5492 1.80293C36.5492 2.42749 36.5492 3.00029 36.5492 3.52823C36.5492 4.05617 36.5492 4.5013 36.5492 4.90847C36.5492 5.10515 36.5492 5.28803 36.5492 5.45711C36.5624 5.61145 36.5375 5.76667 36.4767 5.90914C36.4319 6.00435 36.3671 6.08878 36.2867 6.15667C36.2063 6.22455 36.1122 6.2743 36.0109 6.30251C35.93 6.33021 35.8437 6.33847 35.759 6.32666Z" fill="#E0E0E0"/>
</svg>
