<svg width="2" height="3" viewBox="0 0 2 3" fill="none" xmlns="http://www.w3.org/2000/svg">
<path d="M1.54611 1.54201C1.53593 1.68081 1.48522 1.81357 1.40029 1.92381C1.31535 2.03406 1.19992 2.11695 1.06831 2.1622C0.936703 2.20745 0.794703 2.21307 0.659928 2.17836C0.525153 2.14366 0.403535 2.07016 0.310151 1.96697C0.216766 1.86378 0.155726 1.73545 0.134604 1.59789C0.113482 1.46033 0.133208 1.31958 0.191331 1.19313C0.249454 1.06668 0.343419 0.960071 0.461572 0.886528C0.579726 0.812985 0.71687 0.775743 0.855994 0.779423C1.04791 0.791009 1.22764 0.877338 1.35666 1.0199C1.48567 1.16245 1.55368 1.3499 1.54611 1.54201Z" fill="#072F5E"/>
</svg>
