<svg width="2" height="3" viewBox="0 0 2 3" fill="none" xmlns="http://www.w3.org/2000/svg">
<path d="M1.74413 1.54888C1.73462 1.68788 1.68446 1.82103 1.59989 1.93176C1.51532 2.04249 1.40007 2.12592 1.26848 2.17169C1.13688 2.21746 0.994741 2.22355 0.859713 2.18919C0.724686 2.15484 0.602727 2.08156 0.509004 1.97847C0.415281 1.87537 0.353924 1.74701 0.332557 1.60933C0.31119 1.47164 0.330758 1.33073 0.388826 1.20407C0.446894 1.07742 0.540903 0.970628 0.659167 0.896965C0.777432 0.823303 0.914736 0.786012 1.05401 0.789745C1.24531 0.801326 1.42452 0.887176 1.55344 1.02898C1.68236 1.17079 1.75078 1.35735 1.74413 1.54888Z" fill="#072F5E"/>
</svg>
