<svg width="3" height="3" viewBox="0 0 3 3" fill="none" xmlns="http://www.w3.org/2000/svg">
<path d="M2.14364 1.56964C2.15043 1.66692 2.13713 1.76456 2.10457 1.85648C2.07201 1.9484 2.02088 2.03264 1.95437 2.10395C1.88786 2.17527 1.80738 2.23214 1.71795 2.27102C1.62853 2.3099 1.53206 2.32996 1.43454 2.32996C1.33702 2.32996 1.24054 2.3099 1.15111 2.27102C1.06168 2.23214 0.981217 2.17527 0.914707 2.10395C0.848196 2.03264 0.797072 1.9484 0.764512 1.85648C0.731952 1.76456 0.718654 1.66692 0.725444 1.56964C0.718654 1.47236 0.731952 1.37472 0.764512 1.2828C0.797072 1.19088 0.848196 1.10664 0.914707 1.03533C0.981217 0.964015 1.06168 0.907157 1.15111 0.868275C1.24054 0.829394 1.33702 0.809326 1.43454 0.809326C1.53206 0.809326 1.62853 0.829394 1.71795 0.868275C1.80738 0.907157 1.88786 0.964015 1.95437 1.03533C2.02088 1.10664 2.07201 1.19088 2.10457 1.2828C2.13713 1.37472 2.15043 1.47236 2.14364 1.56964Z" fill="#072F5E"/>
</svg>
