<svg width="46" height="96" viewBox="0 0 46 96" fill="none" xmlns="http://www.w3.org/2000/svg">
<path d="M40.1378 0.179363H33.4575C33.2395 0.183403 33.0245 0.230347 32.8246 0.317511C32.6248 0.404676 32.4441 0.530353 32.2929 0.687365C32.1416 0.844378 32.0228 1.02965 31.9432 1.23259C31.8635 1.43554 31.8247 1.65219 31.8288 1.87016V3.08132C31.8329 3.29912 31.794 3.51559 31.7144 3.71834C31.6347 3.92109 31.5158 4.10614 31.3645 4.26287C31.2132 4.41961 31.0325 4.54496 30.8327 4.63175C30.6329 4.71854 30.4179 4.76507 30.2001 4.76866L17.1776 4.71C16.737 4.69825 16.3191 4.51214 16.0157 4.19254C15.7123 3.87293 15.5481 3.44597 15.5592 3.0054V1.79424C15.5704 1.35426 15.4067 0.927807 15.104 0.6083C14.8013 0.288794 14.3843 0.102289 13.9443 0.0896468H11.5945L5.74572 0.062044C4.35458 0.0537613 3.01683 0.597056 2.02539 1.57297C1.03396 2.54889 0.469623 3.87789 0.455956 5.269L0.110896 89.6086C0.107716 90.2987 0.240499 90.9827 0.501668 91.6215C0.762837 92.2603 1.14728 92.8414 1.63303 93.3317C2.11879 93.8219 2.69635 94.2117 3.33273 94.4787C3.96912 94.7457 4.65187 94.8848 5.342 94.888L39.7376 95.0467C40.4282 95.0499 41.1126 94.917 41.7518 94.6557C42.3911 94.3943 42.9726 94.0096 43.4631 93.5235C43.9537 93.0375 44.3437 92.4595 44.6109 91.8227C44.8781 91.1859 45.0173 90.5027 45.0204 89.8121L45.3655 5.47258C45.3738 4.07756 44.8277 2.73634 43.8475 1.74376C42.8672 0.751184 41.5329 0.188487 40.1378 0.179363Z" fill="white"/>
</svg>
